<svg width="1392" height="317" viewBox="0 0 1392 317" fill="none" xmlns="http://www.w3.org/2000/svg">
<g opacity="0.5">
<path d="M88.1737 0.362274H28.4885V52.589H88.1737V0.362274Z" fill="#C8E7ED"/>
<path d="M91.8351 0.362274V193.637C91.8351 224.765 89.383 245.046 84.4787 254.514C79.5745 263.982 72.2181 268.716 62.4097 268.716C52.6012 268.716 43.4739 261.785 35.0107 247.924L0 287.498C18.5952 306.774 38.723 316.413 60.3663 316.413C115.828 316.413 143.568 278.882 143.568 203.786V0.362274H91.818H91.8351Z" fill="#C8E7ED"/>
<path d="M369.451 0.362274L307.11 111.797L335.003 164.552L431.231 0.362274H369.451Z" fill="#C8E7ED"/>
<path d="M641.739 0.362274V172.845C641.739 239.137 620.947 272.275 579.347 272.275C552.084 272.275 533.812 257.936 524.429 229.482V306.246C539.721 313.024 557.942 316.413 579.108 316.413C655.362 316.413 693.506 272.445 693.506 184.509V0.362274H641.756H641.739Z" fill="#C8E7ED"/>
<path d="M516.953 173.476C516.953 173.271 516.953 173.067 516.953 172.863V0.380247H464.693V184.527C464.693 243.957 482.13 283.259 516.953 302.535V173.493V173.476Z" fill="#C8E7ED"/>
<path d="M910.602 0.362274V172.845C910.602 239.137 889.81 272.275 848.21 272.275C820.947 272.275 802.675 257.936 793.292 229.482V306.246C808.584 313.024 826.805 316.413 847.971 316.413C924.225 316.413 962.369 272.445 962.369 184.509V0.362274H910.619H910.602Z" fill="#C8E7ED"/>
<path d="M785.817 173.476C785.817 173.271 785.817 173.067 785.817 172.863V0.380247H733.557V184.527C733.557 243.957 750.994 283.259 785.817 302.535V173.493V173.476Z" fill="#C8E7ED"/>
<path d="M1007.46 0.362274V316.413H1059.72L1060.23 91.1757L1214.77 296.029V223.845L1047.04 0.362274H1007.46Z" fill="#C8E7ED"/>
<path d="M303.381 115.526L244.019 0.362274H182.137L279.03 168.281V308.307V316.413H331.273V308.307V168.281L303.381 115.526Z" fill="#C8E7ED"/>
<path d="M1222.23 0.362274V297.8V314.386V316.413H1273.81V314.386V0.362274H1222.23Z" fill="#C8E7ED"/>
<path d="M1339.74 0.362274V308.307V316.413H1392V308.307V0.362274H1339.74Z" fill="#C8E7ED"/>
</g>
</svg>
