<svg width="90" height="51" viewBox="0 0 90 51" fill="none" xmlns="http://www.w3.org/2000/svg">
<path fill-rule="evenodd" clip-rule="evenodd" d="M45 45.8333C69.8528 45.8333 90 35.5732 90 22.9167C90 10.2601 69.8528 0 45 0C20.1472 0 0 10.2601 0 22.9167C0 29.6762 5.74667 35.7522 14.8877 39.9467L8.74999 50.4167L25.2091 43.5038C31.1817 44.9957 37.8988 45.8333 45 45.8333Z" fill="#20A4AF"/>
<path d="M27.0469 23.9766C27.0469 23.0391 27.3672 22.25 28.0078 21.6094C28.6484 20.9688 29.5156 20.6484 30.6094 20.6484C31.7031 20.6484 32.5703 20.9688 33.2109 21.6094C33.8516 22.25 34.1719 23.0391 34.1719 23.9766C34.1719 24.8984 33.8516 25.6797 33.2109 26.3203C32.5703 26.9453 31.7031 27.2578 30.6094 27.2578C29.5156 27.2578 28.6484 26.9453 28.0078 26.3203C27.3672 25.6797 27.0469 24.8984 27.0469 23.9766ZM40.6875 23.9766C40.6875 23.0391 41.0078 22.25 41.6484 21.6094C42.2891 20.9688 43.1562 20.6484 44.25 20.6484C45.3438 20.6484 46.2109 20.9688 46.8516 21.6094C47.4922 22.25 47.8125 23.0391 47.8125 23.9766C47.8125 24.8984 47.4922 25.6797 46.8516 26.3203C46.2109 26.9453 45.3438 27.2578 44.25 27.2578C43.1562 27.2578 42.2891 26.9453 41.6484 26.3203C41.0078 25.6797 40.6875 24.8984 40.6875 23.9766ZM54.3281 23.9766C54.3281 23.0391 54.6484 22.25 55.2891 21.6094C55.9297 20.9688 56.7969 20.6484 57.8906 20.6484C58.9844 20.6484 59.8516 20.9688 60.4922 21.6094C61.1328 22.25 61.4531 23.0391 61.4531 23.9766C61.4531 24.8984 61.1328 25.6797 60.4922 26.3203C59.8516 26.9453 58.9844 27.2578 57.8906 27.2578C56.7969 27.2578 55.9297 26.9453 55.2891 26.3203C54.6484 25.6797 54.3281 24.8984 54.3281 23.9766Z" fill="white"/>
</svg>
