<svg width="922" height="685" viewBox="0 0 922 685" fill="none" xmlns="http://www.w3.org/2000/svg">
<g opacity="0.6">
<rect x="3.99982" y="7.62939e-05" width="918" height="2" fill="#D9D9D9"/>
<rect x="3.99982" y="38.0001" width="918" height="2" fill="#D9D9D9"/>
<rect x="3.99982" y="76.0001" width="918" height="2" fill="#D9D9D9"/>
<rect x="3.99982" y="114" width="918" height="2" fill="#D9D9D9"/>
<rect x="3.99982" y="152" width="918" height="2" fill="#D9D9D9"/>
<rect x="3.99982" y="190" width="918" height="2" fill="#D9D9D9"/>
<rect x="3.99982" y="228" width="918" height="2" fill="#D9D9D9"/>
<rect x="3.99982" y="266" width="918" height="2" fill="#D9D9D9"/>
<rect x="3.99982" y="304" width="918" height="2" fill="#D9D9D9"/>
<rect x="3.99982" y="342" width="918" height="2" fill="#D9D9D9"/>
<rect x="3.99982" y="380" width="918" height="2" fill="#D9D9D9"/>
<rect x="3.99982" y="418" width="918" height="2" fill="#D9D9D9"/>
<rect x="3.99982" y="456" width="918" height="2" fill="#D9D9D9"/>
<rect x="3.99982" y="494" width="918" height="2" fill="#D9D9D9"/>
<rect x="3.99982" y="532" width="918" height="2" fill="#D9D9D9"/>
<rect x="3.99982" y="570" width="918" height="2" fill="#D9D9D9"/>
<rect x="3.99982" y="608" width="918" height="2" fill="#D9D9D9"/>
<rect x="3.99982" y="608" width="918" height="2" fill="#D9D9D9"/>
<rect x="3.99982" y="646" width="918" height="2" fill="#D9D9D9"/>
</g>
<g opacity="0.2">
<path d="M720.337 5C675.735 46.144 637.775 91.1154 615 132.259L641.571 148.526C666.245 127.475 730.143 79.3144 767.785 66.2376L720.337 5Z" fill="#FFEF00" stroke="black" stroke-width="2" stroke-linecap="round"/>
<path d="M766.45 117.194C726.564 133.069 690.143 153.132 664.77 174.49L678.393 191.87C700.033 184.213 754.494 168.567 782.775 169.416L766.45 117.194Z" fill="#FFEF00" stroke="black" stroke-width="2" stroke-linecap="round"/>
</g>
<g opacity="0.2">
<rect x="555" y="234" width="14.5623" height="16.4012" fill="white" stroke="#79AAD3" stroke-width="2"/>
<rect x="555" y="390.411" width="14.5623" height="16.4012" fill="white" stroke="#79AAD3" stroke-width="2"/>
<rect x="726.834" y="390.411" width="14.5623" height="16.4012" fill="white" stroke="#79AAD3" stroke-width="2"/>
<rect x="726.834" y="234" width="14.5623" height="16.4012" fill="white" stroke="#79AAD3" stroke-width="2"/>
<path d="M570.562 242.201H725.834" stroke="#79AAD3" stroke-width="2" stroke-linecap="round"/>
<path d="M734.115 251.401V389.411" stroke="#79AAD3" stroke-width="2" stroke-linecap="round"/>
<path d="M570.562 398.611H725.834" stroke="#79AAD3" stroke-width="2" stroke-linecap="round"/>
<path d="M562.281 251.401V389.411" stroke="#79AAD3" stroke-width="2" stroke-linecap="square"/>
<path d="M629.996 487C629.515 487.003 629.039 486.911 628.594 486.729C628.149 486.548 627.745 486.28 627.404 485.942L605.023 463.548L592.866 481.784C592.478 482.377 591.927 482.844 591.279 483.129C590.631 483.414 589.913 483.504 589.215 483.389C588.53 483.287 587.889 482.993 587.365 482.541C586.842 482.089 586.457 481.498 586.257 480.836L564.352 407.89C564.091 407.237 564.026 406.523 564.162 405.833C564.299 405.143 564.632 404.507 565.122 404.003C565.612 403.498 566.238 403.145 566.924 402.987C567.61 402.829 568.327 402.873 568.988 403.113L642.007 424.996C642.67 425.196 643.262 425.58 643.714 426.103C644.167 426.626 644.461 427.267 644.563 427.951C644.678 428.649 644.588 429.365 644.303 430.013C644.017 430.66 643.55 431.211 642.957 431.598L624.702 443.743L647.119 466.101C647.461 466.44 647.733 466.844 647.918 467.288C648.103 467.732 648.199 468.209 648.199 468.691C648.199 469.172 648.103 469.649 647.918 470.093C647.733 470.538 647.461 470.941 647.119 471.28L632.515 485.869C631.856 486.561 630.951 486.967 629.996 487ZM629.996 478.21L639.452 468.764L613.311 442.686L632.478 429.92L573.37 412.194L591.113 471.244L603.891 452.096L629.996 478.21Z" fill="#333333"/>
</g>
<path opacity="0.2" d="M755.994 553.877L806.442 430.926L821.862 434.215L771.325 557.146L755.994 553.877ZM790.042 561.138L840.58 438.207L856 441.495L805.462 564.426L790.042 561.138ZM857.919 494.984L765.132 475.196L768.166 460.966L860.953 480.754L857.919 494.984ZM842.378 534.647L749.68 514.879L752.715 500.649L845.413 520.417L842.378 534.647Z" fill="#005497"/>
<g opacity="0.2">
<mask id="path-32-outside-1_520_213" maskUnits="userSpaceOnUse" x="-2.73205" y="259.708" width="211.734" height="211.734" fill="black">
<rect fill="white" x="-2.73205" y="259.708" width="211.734" height="211.734"/>
<path fill-rule="evenodd" clip-rule="evenodd" d="M48.0297 310.02L27.1472 346.19L70.5506 371.249L43.4034 418.269L79.5729 439.152L106.72 392.131L157.358 421.367L178.24 385.197L127.603 355.962L154.75 308.941L118.58 288.059L91.4331 335.079L48.0297 310.02Z"/>
</mask>
<path fill-rule="evenodd" clip-rule="evenodd" d="M48.0297 310.02L27.1472 346.19L70.5506 371.249L43.4034 418.269L79.5729 439.152L106.72 392.131L157.358 421.367L178.24 385.197L127.603 355.962L154.75 308.941L118.58 288.059L91.4331 335.079L48.0297 310.02Z" fill="#79AAD3"/>
<path d="M27.1472 346.19L25.4152 345.19L24.4152 346.922L26.1472 347.922L27.1472 346.19ZM48.0297 310.02L49.0297 308.288L47.2977 307.288L46.2977 309.02L48.0297 310.02ZM70.5506 371.249L72.2827 372.249L73.2827 370.517L71.5506 369.517L70.5506 371.249ZM43.4034 418.269L41.6713 417.269L40.6713 419.001L42.4034 420.001L43.4034 418.269ZM79.5729 439.152L78.5729 440.884L80.305 441.884L81.305 440.152L79.5729 439.152ZM106.72 392.131L107.72 390.399L105.988 389.399L104.988 391.131L106.72 392.131ZM157.358 421.367L156.358 423.099L158.09 424.099L159.09 422.367L157.358 421.367ZM178.24 385.197L179.972 386.197L180.972 384.465L179.24 383.465L178.24 385.197ZM127.603 355.962L125.871 354.962L124.871 356.694L126.603 357.694L127.603 355.962ZM154.75 308.941L156.482 309.941L157.482 308.209L155.75 307.209L154.75 308.941ZM118.58 288.059L119.58 286.327L117.848 285.327L116.848 287.059L118.58 288.059ZM91.4331 335.079L90.4331 336.811L92.1652 337.811L93.1652 336.079L91.4331 335.079ZM28.8793 347.19L49.7618 311.02L46.2977 309.02L25.4152 345.19L28.8793 347.19ZM71.5506 369.517L28.1472 344.458L26.1472 347.922L69.5506 372.981L71.5506 369.517ZM45.1354 419.269L72.2827 372.249L68.8186 370.249L41.6713 417.269L45.1354 419.269ZM80.5729 437.42L44.4034 416.537L42.4034 420.001L78.5729 440.884L80.5729 437.42ZM104.988 391.131L77.8409 438.152L81.305 440.152L108.452 393.131L104.988 391.131ZM158.358 419.635L107.72 390.399L105.72 393.863L156.358 423.099L158.358 419.635ZM176.508 384.197L155.625 420.367L159.09 422.367L179.972 386.197L176.508 384.197ZM126.603 357.694L177.24 386.929L179.24 383.465L128.603 354.23L126.603 357.694ZM153.018 307.941L125.871 354.962L129.335 356.962L156.482 309.941L153.018 307.941ZM117.58 289.791L153.75 310.673L155.75 307.209L119.58 286.327L117.58 289.791ZM93.1652 336.079L120.312 289.059L116.848 287.059L89.7011 334.079L93.1652 336.079ZM47.0297 311.752L90.4331 336.811L92.4331 333.347L49.0297 308.288L47.0297 311.752Z" fill="black" mask="url(#path-32-outside-1_520_213)"/>
</g>
<g opacity="0.2">
<rect x="40.6826" y="29.6463" width="54.1441" height="197.519" transform="rotate(-29.8677 40.6826 29.6463)" fill="#C8E7ED" stroke="#333333"/>
<rect x="40.6826" y="29.6463" width="18.3004" height="197.519" transform="rotate(-29.8677 40.6826 29.6463)" fill="#79AAD3" stroke="#333333"/>
<path d="M139.992 201.54L186.05 175.09L180.214 218.253L139.992 201.54Z" fill="#E7E7E7" stroke="#333333"/>
<path d="M182.303 205.281L180.622 218.965L167.957 213.52L182.303 205.281Z" fill="#333333"/>
</g>
<g opacity="0.2">
<path d="M109.176 559.955C104.278 556.216 97.2748 557.158 93.5352 562.058C89.7955 566.958 90.7344 573.961 95.6333 577.699C115.95 593.204 135.331 598.542 152.638 590.812C168.8 583.594 179.022 566.557 185.949 548.292C191.442 533.812 200.157 528.126 208.191 526.651C216.811 525.068 226.592 527.977 234.063 534.339C245.586 544.153 260.46 550.112 276.675 547.205C292.791 544.316 307.772 533.107 320.603 513.777C324.012 508.642 322.614 501.716 317.479 498.308C312.345 494.901 305.419 496.302 302.01 501.437C291.26 517.632 280.904 523.773 272.743 525.236C264.681 526.682 256.342 523.993 248.535 517.344C236.674 507.243 220.258 501.744 204.167 504.699C187.488 507.761 172.98 519.558 165.082 540.383C158.618 557.426 151.153 567.034 143.542 570.433C137.069 573.324 126.588 573.244 109.176 559.955Z" fill="#FFEF00" stroke="black" stroke-width="2" stroke-linecap="round"/>
<circle cx="318.799" cy="427.673" r="17.5204" transform="rotate(16.2366 318.799 427.673)" fill="#FFEF00" stroke="black" stroke-width="2"/>
</g>
</svg>
