<svg width="115" height="483" viewBox="0 0 115 483" fill="none" xmlns="http://www.w3.org/2000/svg">
<mask id="path-1-outside-1_447_1824" maskUnits="userSpaceOnUse" x="13.2679" y="152.268" width="103.818" height="103.818" fill="black">
<rect fill="white" x="13.2679" y="152.268" width="103.818" height="103.818"/>
<path fill-rule="evenodd" clip-rule="evenodd" d="M39 177.517L29 194.837L49.7846 206.837L36.7846 229.354L54.1051 239.354L67.1051 216.837L91.3538 230.837L101.354 213.517L77.1051 199.517L90.1051 177L72.7846 167L59.7846 189.517L39 177.517Z"/>
</mask>
<path fill-rule="evenodd" clip-rule="evenodd" d="M39 177.517L29 194.837L49.7846 206.837L36.7846 229.354L54.1051 239.354L67.1051 216.837L91.3538 230.837L101.354 213.517L77.1051 199.517L90.1051 177L72.7846 167L59.7846 189.517L39 177.517Z" fill="#79AAD3"/>
<path d="M29 194.837L27.2679 193.837L26.2679 195.569L28 196.569L29 194.837ZM39 177.517L40 175.785L38.2679 174.785L37.2679 176.517L39 177.517ZM49.7846 206.837L51.5167 207.837L52.5167 206.105L50.7846 205.105L49.7846 206.837ZM36.7846 229.354L35.0526 228.354L34.0526 230.086L35.7846 231.086L36.7846 229.354ZM54.1051 239.354L53.1051 241.086L54.8372 242.086L55.8372 240.354L54.1051 239.354ZM67.1051 216.837L68.1051 215.105L66.3731 214.105L65.3731 215.837L67.1051 216.837ZM91.3538 230.837L90.3538 232.569L92.0859 233.569L93.0859 231.837L91.3538 230.837ZM101.354 213.517L103.086 214.517L104.086 212.785L102.354 211.785L101.354 213.517ZM77.1051 199.517L75.3731 198.517L74.3731 200.249L76.1051 201.249L77.1051 199.517ZM90.1051 177L91.8372 178L92.8372 176.268L91.1051 175.268L90.1051 177ZM72.7846 167L73.7846 165.268L72.0526 164.268L71.0526 166L72.7846 167ZM59.7846 189.517L58.7846 191.249L60.5167 192.249L61.5167 190.517L59.7846 189.517ZM30.7321 195.837L40.732 178.517L37.2679 176.517L27.2679 193.837L30.7321 195.837ZM50.7846 205.105L30 193.105L28 196.569L48.7846 208.569L50.7846 205.105ZM38.5167 230.354L51.5167 207.837L48.0526 205.837L35.0526 228.354L38.5167 230.354ZM55.1051 237.622L37.7846 227.622L35.7846 231.086L53.1051 241.086L55.1051 237.622ZM65.3731 215.837L52.3731 238.354L55.8372 240.354L68.8372 217.837L65.3731 215.837ZM92.3538 229.105L68.1051 215.105L66.1051 218.569L90.3538 232.569L92.3538 229.105ZM99.6218 212.517L89.6218 229.837L93.0859 231.837L103.086 214.517L99.6218 212.517ZM76.1051 201.249L100.354 215.249L102.354 211.785L78.1051 197.785L76.1051 201.249ZM88.3731 176L75.3731 198.517L78.8372 200.517L91.8372 178L88.3731 176ZM71.7846 168.732L89.1051 178.732L91.1051 175.268L73.7846 165.268L71.7846 168.732ZM61.5167 190.517L74.5167 168L71.0526 166L58.0526 188.517L61.5167 190.517ZM38 179.249L58.7846 191.249L60.7846 187.785L40 175.785L38 179.249Z" fill="black" mask="url(#path-1-outside-1_447_1824)"/>
<path d="M9.63567 446.404C6.58597 445.226 3.1592 446.745 1.98137 449.795C0.803526 452.845 2.32026 456.272 5.37 457.45C16.9922 461.938 26.9581 461.856 34.1681 455.741C40.8703 450.056 43.3293 440.568 44.0794 431.109C44.6597 423.789 47.8524 420.139 51.2071 418.456C54.8444 416.631 59.6214 416.645 63.8342 418.537C70.6232 421.585 78.5117 422.373 85.8289 418.74C93.098 415.132 98.615 407.749 101.989 396.943C102.964 393.822 101.225 390.502 98.104 389.527C94.9834 388.553 91.664 390.294 90.6895 393.415C87.9101 402.317 83.9968 406.432 80.5677 408.135C77.1855 409.814 73.1106 409.722 68.6845 407.735C61.6808 404.59 53.14 404.241 45.9015 407.872C38.3797 411.645 33.1431 419.268 32.2782 430.175C31.5829 438.944 29.4262 444.239 26.5127 446.711C24.1022 448.755 19.4487 450.193 9.63567 446.404Z" fill="#FFEF00" stroke="black" stroke-width="2" stroke-linecap="round"/>
<rect x="55.6826" y="10.1446" width="19" height="71" transform="rotate(-29.8677 55.6826 10.1446)" fill="#C8E7ED" stroke="#333333"/>
<rect x="55.6826" y="10.1446" width="6" height="71" transform="rotate(-29.8677 55.6826 10.1446)" fill="#79AAD3" stroke="#333333"/>
<path d="M91.9855 72.3247L107.568 63.376L105.593 77.9789L91.9855 72.3247Z" fill="#E7E7E7" stroke="#333333"/>
<path d="M106.611 73.7274L106.002 78.6901L101.408 76.7154L106.611 73.7274Z" fill="#333333"/>
<circle cx="89" cy="357" r="9" fill="#FFEF00" stroke="black" stroke-width="2"/>
</svg>
