<svg width="135" height="500" viewBox="0 0 135 500" fill="none" xmlns="http://www.w3.org/2000/svg">
<path d="M47.5031 2C28.236 19.7733 11.8385 39.2 2 56.9733L13.4783 64C24.1366 54.9067 51.7391 34.1022 68 28.4533L47.5031 2Z" fill="#FFEF00" stroke="black" stroke-width="2" stroke-linecap="round"/>
<path d="M67.4233 50.4654C50.1933 57.3232 34.4602 65.9899 23.4994 75.2161L29.3845 82.7238C38.7323 79.4164 62.2584 72.6574 74.475 73.0241L67.4233 50.4654Z" fill="#FFEF00" stroke="black" stroke-width="2" stroke-linecap="round"/>
<rect x="24" y="189" width="7.84611" height="8.93932" fill="white" stroke="#79AAD3" stroke-width="2"/>
<rect x="24" y="281.984" width="7.84611" height="8.93932" fill="white" stroke="#79AAD3" stroke-width="2"/>
<rect x="126.153" y="281.984" width="7.84611" height="8.93932" fill="white" stroke="#79AAD3" stroke-width="2"/>
<rect x="126.153" y="189" width="7.84611" height="8.93932" fill="white" stroke="#79AAD3" stroke-width="2"/>
<path d="M32.8462 193.47H125.153" stroke="#79AAD3" stroke-width="2" stroke-linecap="round"/>
<path d="M130.076 198.939V280.984" stroke="#79AAD3" stroke-width="2" stroke-linecap="round"/>
<path d="M32.8462 286.454H125.153" stroke="#79AAD3" stroke-width="2" stroke-linecap="round"/>
<path d="M27.923 198.939V280.984" stroke="#79AAD3" stroke-width="2" stroke-linecap="square"/>
<path d="M68.1786 339C67.8929 339.002 67.6098 338.947 67.3453 338.839C67.0809 338.731 66.8404 338.572 66.6376 338.371L53.3327 325.058L46.1051 335.899C45.875 336.252 45.5472 336.529 45.1619 336.699C44.7765 336.868 44.3501 336.922 43.9347 336.853C43.5278 336.793 43.1465 336.618 42.8352 336.349C42.524 336.081 42.2956 335.729 42.1766 335.336L29.154 291.97C28.9992 291.582 28.9601 291.157 29.0413 290.747C29.1226 290.337 29.3208 289.959 29.6121 289.659C29.9034 289.359 30.2753 289.149 30.683 289.055C31.0908 288.962 31.517 288.987 31.9104 289.13L75.3194 302.139C75.7132 302.258 76.0651 302.486 76.3341 302.797C76.6031 303.108 76.7781 303.489 76.8387 303.896C76.9072 304.311 76.8533 304.737 76.6838 305.122C76.5142 305.507 76.2362 305.834 75.8837 306.064L65.0314 313.284L78.358 326.576C78.5614 326.777 78.7229 327.017 78.8331 327.281C78.9433 327.546 79 327.829 79 328.115C79 328.402 78.9433 328.685 78.8331 328.949C78.7229 329.213 78.5614 329.453 78.358 329.655L69.6762 338.328C69.2844 338.739 68.7466 338.98 68.1786 339ZM68.1786 333.774L73.8001 328.159L58.2597 312.656L69.6545 305.067L34.515 294.529L45.0633 329.633L52.6599 318.25L68.1786 333.774Z" fill="#333333"/>
<path d="M29.7417 491.052L54.0461 431.819L61.475 433.403L37.1276 492.627L29.7417 491.052ZM46.1453 494.55L70.4926 435.326L77.9215 436.91L53.5741 496.135L46.1453 494.55ZM78.8459 462.679L34.1441 453.146L35.606 446.291L80.3078 455.824L78.8459 462.679ZM71.3589 481.788L26.7 472.264L28.162 465.409L72.8208 474.933L71.3589 481.788Z" fill="#005497"/>
</svg>
