<svg width="89" height="89" viewBox="0 0 89 89" fill="none" xmlns="http://www.w3.org/2000/svg">
<circle cx="44.5" cy="44.5" r="44.25" fill="#C8E7ED" stroke="black" stroke-width="0.5"/>
<path d="M40.349 54.5904V59.096H24.2039V54.5904H40.349ZM25.9561 28.7247V59.096H20.2197V28.7247H25.9561ZM38.2422 41.2612V45.6625H24.2039V41.2612H38.2422ZM40.2864 28.7247V33.2512H24.2039V28.7247H40.2864Z" fill="white"/>
<path d="M68.7386 28.7247V59.096H62.9814L50.0695 38.028V59.096H44.3332V28.7247H50.0695L63.0232 49.8136V28.7247H68.7386Z" fill="white"/>
<path fill-rule="evenodd" clip-rule="evenodd" d="M40.7051 54.2344V59.452H19.8638V28.3688H40.6425V33.6073H26.3121V40.9053H38.5983V46.0186H26.3121V54.2344H40.7051ZM25.9561 54.5904H40.3491V59.096H20.2198V28.7248H40.2865V33.2513H25.9561V41.2613H38.2423V45.6626H25.9561V54.5904ZM69.0947 28.3688V59.452H62.7821L50.4255 39.2902V59.452H43.9772V28.3688H50.2687L62.6672 48.5538V28.3688H69.0947ZM63.0232 49.8136L50.0695 28.7248H44.3332V59.096H50.0695V38.0281L62.9815 59.096H68.7387V28.7248H63.0232V49.8136Z" fill="black"/>
</svg>
