<svg width="160" height="26" viewBox="0 0 160 26" fill="none" xmlns="http://www.w3.org/2000/svg">
<path d="M24.4681 13.7655H27.8641V14.6775H24.4681V13.7655ZM27.4081 13.7655H28.3321C28.3321 15.9135 28.5961 20.4735 33.3361 23.2815C33.1321 23.4375 32.7721 23.8215 32.6041 24.0375C27.8041 21.1335 27.4081 16.0215 27.4081 13.7655ZM27.0721 16.1175L28.0921 16.3095C27.2281 19.9695 25.6441 22.5015 22.9921 24.0615C22.8241 23.8695 22.4161 23.4975 22.1761 23.3295C24.8401 21.9375 26.3401 19.5135 27.0721 16.1175ZM35.2681 15.4215H38.6041V16.1055H35.2681V15.4215ZM40.7881 15.4215H44.1841V16.1055H40.7881V15.4215ZM43.8001 13.6095H44.7001V22.8495C44.7001 23.4615 44.5561 23.7495 44.1481 23.8935C43.7281 24.0495 43.0201 24.0615 41.9281 24.0615C41.8801 23.8095 41.7241 23.3895 41.5921 23.1255C42.4201 23.1735 43.2481 23.1615 43.4881 23.1495C43.7281 23.1375 43.8001 23.0775 43.8001 22.8495V13.6095ZM35.3401 13.6095H39.1321V18.0135H35.3401V17.2575H38.2801V14.3655H35.3401V13.6095ZM44.2681 13.6095V14.3655H41.1241V17.2695H44.2681V18.0255H40.2601V13.6095H44.2681ZM34.8361 13.6095H35.7241V24.0735H34.8361V13.6095Z" fill="#E7E7E7"/>
<path d="M67.4995 14.1975H77.3275V14.9655H67.4995V14.1975ZM67.8835 22.9935H76.9675V23.7495H67.8835V22.9935ZM69.8635 15.7575H74.9155V16.4415H69.8635V15.7575ZM69.8635 17.2695H74.9155V17.9535H69.8635V17.2695ZM66.9355 18.8175H77.8435V19.5735H66.9355V18.8175ZM69.4555 20.9655H75.3475V21.7095H69.4555V20.9655ZM69.3235 13.0455H70.2235V19.2375H69.3235V13.0455ZM74.6035 13.0455H75.5035V19.2375H74.6035V13.0455ZM71.9035 19.9575H72.8275V23.4135H71.9035V19.9575ZM69.9595 19.0215L70.7155 19.3095C69.9835 20.5455 68.6635 21.6855 67.4035 22.2735C67.2715 22.0695 67.0195 21.7575 66.8155 21.5895C68.0275 21.1095 69.3115 20.0775 69.9595 19.0215ZM74.8675 19.0215C75.5035 20.0415 76.7515 20.9895 77.9995 21.4335C77.7955 21.6015 77.5315 21.9135 77.3995 22.1295C76.1275 21.5895 74.8555 20.4735 74.1595 19.2975L74.8675 19.0215ZM79.1635 15.5655H89.6395V16.4775H79.1635V15.5655ZM81.5635 20.9175H87.1555V21.8295H81.5635V20.9175ZM83.9035 13.0455H84.8515V24.0735H83.9035V13.0455ZM83.6275 15.8655L84.4315 16.1415C83.3635 18.6855 81.4795 20.9775 79.4035 22.1895C79.2595 21.9615 78.9595 21.6255 78.7555 21.4455C80.7595 20.4015 82.6675 18.1695 83.6275 15.8655ZM85.1515 15.9015C86.0995 18.1815 87.9835 20.3655 90.0595 21.3615C89.8315 21.5535 89.5195 21.9135 89.3755 22.1655C87.2515 20.9895 85.4035 18.6975 84.3475 16.1775L85.1515 15.9015Z" fill="#E7E7E7"/>
<path d="M113.231 13.0695H114.047V24.0615H113.231V13.0695ZM111.527 17.0655H115.391V17.9175H111.527V17.0655ZM113.183 17.5095L113.747 17.7615C113.375 19.3695 112.631 21.4815 111.875 22.5855C111.779 22.3095 111.551 21.9135 111.395 21.6615C112.103 20.7255 112.859 18.9015 113.183 17.5095ZM114.023 18.1455C114.323 18.4935 115.379 20.0415 115.607 20.4255L115.007 21.1215C114.755 20.4975 113.915 19.0095 113.579 18.4935L114.023 18.1455ZM111.659 13.9695L112.271 13.8135C112.619 14.6535 112.895 15.7335 112.979 16.4415L112.319 16.6095C112.247 15.9015 111.971 14.7975 111.659 13.9695ZM114.983 13.7655L115.739 13.9575C115.439 14.8455 115.079 15.9735 114.767 16.6455L114.215 16.4655C114.479 15.7575 114.815 14.5815 114.983 13.7655ZM116.147 14.0175H122.255V14.7015H116.147V14.0175ZM116.447 15.4455H121.991V16.1055H116.447V15.4455ZM115.811 16.9215H122.555V17.6175H115.811V16.9215ZM118.667 13.0455H119.531V17.3055H118.667V13.0455ZM116.567 18.3495H121.187V19.0335H117.419V24.0615H116.567V18.3495ZM120.911 18.3495H121.763V23.1495C121.763 23.5815 121.679 23.8095 121.355 23.9415C121.043 24.0615 120.539 24.0615 119.795 24.0615C119.747 23.8455 119.639 23.5335 119.531 23.3175C120.071 23.3295 120.563 23.3295 120.719 23.3295C120.875 23.3295 120.911 23.2815 120.911 23.1495V18.3495ZM117.023 19.9215H121.259V20.5695H117.023V19.9215ZM117.023 21.4695H121.259V22.1175H117.023V21.4695ZM126.107 13.0335H126.971V14.2695H126.107V13.0335ZM123.695 13.9455H129.359V14.5935H123.695V13.9455ZM129.299 14.8575H133.043V15.6375H129.299V14.8575ZM124.079 17.4975H128.219V18.1095H124.079V17.4975ZM125.171 15.6495V16.4535H127.859V15.6495H125.171ZM124.415 15.0855H128.651V17.0055H124.415V15.0855ZM127.991 17.4975H128.171L128.339 17.4615L128.807 17.8455C128.231 18.3255 127.391 18.7695 126.683 19.0455C126.575 18.9015 126.383 18.7095 126.263 18.6135C126.887 18.3735 127.619 17.9775 127.991 17.6415V17.4975ZM126.119 18.5175H126.947V20.5695C126.947 20.9655 126.863 21.1455 126.551 21.2535C126.239 21.3615 125.747 21.3615 125.003 21.3615C124.967 21.1455 124.847 20.8935 124.739 20.7015C125.327 20.7255 125.783 20.7255 125.939 20.7135C126.083 20.7015 126.119 20.6775 126.119 20.5455V18.5175ZM123.671 19.2375C125.051 19.1895 127.175 19.0935 129.239 18.9975L129.227 19.6335C127.235 19.7535 125.159 19.8495 123.743 19.9215L123.671 19.2375ZM132.599 14.8575H133.427C133.391 18.5175 133.379 20.5455 133.907 20.5455C134.087 20.5455 134.135 19.8255 134.147 18.9375C134.303 19.1175 134.543 19.3335 134.699 19.4415C134.627 20.8575 134.471 21.3135 133.847 21.3135C132.563 21.3135 132.599 19.1535 132.599 14.8575ZM129.083 17.2215L129.527 16.6215C130.571 17.2695 131.831 18.2535 132.407 18.9495L131.939 19.6455C131.363 18.9255 130.127 17.9055 129.083 17.2215ZM127.151 21.9375L127.979 21.8655C128.135 22.5255 128.255 23.3535 128.267 23.8575L127.367 23.9775C127.367 23.4495 127.283 22.5975 127.151 21.9375ZM129.611 21.9135L130.451 21.7695C130.751 22.4055 131.051 23.2575 131.159 23.7735L130.271 23.9655C130.175 23.4255 129.899 22.5735 129.611 21.9135ZM132.095 21.8775L132.947 21.6015C133.511 22.2615 134.183 23.1735 134.483 23.7735L133.595 24.0975C133.307 23.4975 132.659 22.5615 132.095 21.8775ZM125.111 21.6375L125.963 21.8655C125.627 22.6695 125.075 23.5575 124.463 24.0855L123.635 23.7375C124.223 23.2575 124.787 22.4295 125.111 21.6375ZM130.631 13.0335H131.411V15.6975C131.411 17.6895 131.087 19.8375 128.747 21.4575C128.603 21.2775 128.339 21.0375 128.135 20.8935C130.355 19.3935 130.631 17.4015 130.631 15.6975V13.0335Z" fill="#005497"/>
<rect x="16" width="38.6977" height="9.08517" rx="4" fill="#79AAD3"/>
<rect x="60.6511" width="38.6977" height="9.08517" rx="4" fill="#79AAD3"/>
<rect x="105.302" width="38.6977" height="9.08517" rx="4" fill="#79AAD3"/>
</svg>
