<svg width="80" height="80" viewBox="0 0 80 80" fill="none" xmlns="http://www.w3.org/2000/svg">
<path d="M69.6132 9.12646H46.6421C46.6421 9.12646 39.6769 38.8702 37.4451 38.8702L70.911 38.9828V10.3391C70.911 9.66943 70.3295 9.12646 69.6125 9.12646H69.6132ZM65.5569 32.9354C65.5569 33.6042 64.9762 34.1472 64.2591 34.1472H55.8088C55.0962 34.1472 54.5169 33.6102 54.5117 32.9442L54.371 15.3146C54.3658 14.642 54.948 14.0939 55.668 14.0939H64.2591C64.9754 14.0939 65.5569 14.6361 65.5569 15.3057V32.9354Z" fill="white"/>
<path d="M26.9519 55.2089L28.5615 47.0955C50.9534 31.957 53.3875 59.9141 70.9119 45.3104L70.8623 54.5563C70.8623 54.9163 70.2808 55.2081 69.5645 55.2081H26.9519V55.2089Z" fill="white"/>
<path d="M28.5288 22.4635C30.5585 14.9539 32.7659 9.12646 34.7273 9.12646L21.0977 9.13387L18.5162 22.4635H10.5925V28.9094C10.5925 29.6509 11.0614 30.2524 11.6399 30.2524H17.0081L12.1762 55.202H21.7555C21.7555 55.202 23.8318 42.3717 26.6029 30.2524H61.1355C61.714 30.2524 62.1829 29.6509 62.1829 28.9094V22.4635H28.5288Z" fill="white"/>
<path d="M14.4281 60.7109H11.8318V62.9828H14.4281V60.7109Z" fill="white"/>
<path d="M14.5873 60.7109V69.1183C14.5873 70.4724 14.4807 71.3546 14.2673 71.7665C14.054 72.1783 13.734 72.3843 13.3073 72.3843C12.8807 72.3843 12.4836 72.0828 12.1155 71.4798L10.5925 73.2013C11.4014 74.0398 12.277 74.4591 13.2185 74.4591C15.631 74.4591 16.8377 72.8265 16.8377 69.5598V60.7109H14.5866H14.5873Z" fill="white"/>
<path d="M26.6638 60.7109L23.9519 65.5583L25.1652 67.8532L29.3512 60.7109H26.6638Z" fill="white"/>
<path d="M38.5082 60.7109V68.2139C38.5082 71.0976 37.6038 72.5391 35.7942 72.5391C34.6082 72.5391 33.8134 71.9154 33.4053 70.6776V74.0169C34.0705 74.3117 34.8631 74.4591 35.7838 74.4591C39.1008 74.4591 40.7601 72.5465 40.7601 68.7213V60.7109H38.509H38.5082Z" fill="white"/>
<path d="M33.08 68.2415C33.08 68.2327 33.08 68.2238 33.08 68.2149V60.7119H30.8066V68.7223C30.8066 71.3075 31.5652 73.0171 33.08 73.8556V68.2423V68.2415Z" fill="white"/>
<path d="M50.2038 60.7109V68.2139C50.2038 71.0976 49.2993 72.5391 47.4897 72.5391C46.3038 72.5391 45.509 71.9154 45.1008 70.6776V74.0169C45.766 74.3117 46.5586 74.4591 47.4793 74.4591C50.7964 74.4591 52.4556 72.5465 52.4556 68.7213V60.7109H50.2045H50.2038Z" fill="white"/>
<path d="M44.7755 68.2415C44.7755 68.2327 44.7755 68.2238 44.7755 68.2149V60.7119H42.5022V68.7223C42.5022 71.3075 43.2607 73.0171 44.7755 73.8556V68.2423V68.2415Z" fill="white"/>
<path d="M54.417 60.7109V74.4591H56.6903L56.7125 64.6613L63.4348 73.5724V70.4324L56.1385 60.7109H54.417Z" fill="white"/>
<path d="M23.7895 65.7206L21.2072 60.7109H18.5154L22.7302 68.0154V74.1065V74.4591H25.0028V74.1065V68.0154L23.7895 65.7206Z" fill="white"/>
<path d="M63.7592 60.7109V73.6495V74.3709V74.4591H66.0029V74.3709V60.7109H63.7592Z" fill="white"/>
<path d="M68.8711 60.7109V74.1065V74.4591H71.1444V74.1065V60.7109H68.8711Z" fill="white"/>
</svg>
