<svg width="48" height="48" viewBox="0 0 48 48" fill="none" xmlns="http://www.w3.org/2000/svg">
<path d="M28.865 3.34275C28.9302 3.09908 29.0428 2.87064 29.1962 2.67048C29.3497 2.47032 29.5412 2.30237 29.7596 2.17622C29.978 2.05007 30.2191 1.96819 30.4692 1.93527C30.7193 1.90234 30.9734 1.91901 31.217 1.98433C34.7764 2.91302 38.0239 4.77375 40.625 7.37487C43.2261 9.976 45.0869 13.2235 46.0155 16.7829C46.0809 17.0265 46.0975 17.2806 46.0646 17.5307C46.0317 17.7808 45.9498 18.0219 45.8237 18.2403C45.6975 18.4588 45.5296 18.6502 45.3294 18.8037C45.1292 18.9572 44.9008 19.0697 44.6571 19.1349C44.495 19.1775 44.328 19.1993 44.1603 19.1997C43.7376 19.1998 43.3265 19.0604 42.9911 18.8031C42.6556 18.5457 42.4145 18.1849 42.3051 17.7765C41.5481 14.8704 40.0296 12.2188 37.9064 10.0951C35.7831 7.97136 33.1318 6.45239 30.2258 5.69477C29.982 5.62985 29.7533 5.51749 29.5528 5.36411C29.3524 5.21073 29.1842 5.01934 29.0578 4.80089C28.9314 4.58243 28.8493 4.34121 28.8163 4.09101C28.7832 3.84081 28.7998 3.58654 28.865 3.34275ZM28.3058 13.3748C31.6154 14.2581 33.7419 16.3869 34.6251 19.6965C34.7345 20.1049 34.9756 20.4658 35.311 20.7231C35.6465 20.9804 36.0575 21.1198 36.4803 21.1197C36.648 21.1193 36.8149 21.0975 36.9771 21.0549C37.2208 20.9897 37.4492 20.8772 37.6494 20.7237C37.8495 20.5702 38.0175 20.3788 38.1436 20.1604C38.2698 19.9419 38.3516 19.7008 38.3846 19.4507C38.4175 19.2006 38.4008 18.9465 38.3355 18.7029C37.1067 14.1045 33.8955 10.8932 29.297 9.66441C29.0534 9.59932 28.7993 9.58286 28.5493 9.61597C28.2994 9.64907 28.0583 9.73109 27.84 9.85734C27.6217 9.98359 27.4305 10.1516 27.2771 10.3518C27.1237 10.552 27.0113 10.7804 26.9462 11.024C26.8811 11.2677 26.8647 11.5217 26.8978 11.7717C26.9309 12.0217 27.0129 12.2627 27.1391 12.481C27.2654 12.6993 27.4334 12.8906 27.6336 13.044C27.8338 13.1973 28.0622 13.3098 28.3058 13.3748ZM45.6891 32.2702L34.3827 27.2038L34.3515 27.1894C33.7645 26.9383 33.1242 26.8376 32.4885 26.8962C31.8528 26.9549 31.2418 27.1711 30.7106 27.5254C30.6481 27.5667 30.588 27.6116 30.5306 27.6598L24.689 32.6398C20.9882 30.8422 17.1673 27.0502 15.3697 23.3973L20.357 17.4669C20.405 17.4069 20.4506 17.3469 20.4938 17.2821C20.8404 16.7524 21.0507 16.1452 21.106 15.5146C21.1612 14.884 21.0598 14.2496 20.8106 13.6676V13.6388L15.7297 2.31314C15.4003 1.55296 14.8339 0.919719 14.115 0.507932C13.3961 0.0961438 12.5633 -0.0721001 11.7409 0.0283146C8.48881 0.456255 5.50369 2.05338 3.34309 4.52139C1.18248 6.9894 -0.00585828 10.1595 2.17169e-05 13.4396C2.17169e-05 32.4958 15.5041 48 34.5603 48C37.8404 48.0059 41.0105 46.8175 43.4785 44.6569C45.9465 42.4963 47.5436 39.5112 47.9716 36.2591C48.0722 35.437 47.9043 34.6044 47.4929 33.8855C47.0816 33.1667 46.4489 32.6 45.6891 32.2702Z" fill="#79AAD3"/>
</svg>
