<svg width="1387" height="122" viewBox="0 0 1387 122" fill="none" xmlns="http://www.w3.org/2000/svg">
<g opacity="0.5">
<path d="M35.2627 98.8061L57.6886 7.80862H69.8294L70.6028 26.9823L46.6303 120.376H33.7934L35.2627 98.8061ZM21.1112 7.80862L39.5159 98.4968V120.376H25.5191L0 7.80862H21.1112ZM93.8792 98.1103L111.975 7.80862H133.163L107.644 120.376H93.6472L93.8792 98.1103ZM75.6292 7.80862L98.0551 99.1153L99.3697 120.376H86.5328L62.6377 26.9049L63.5657 7.80862H75.6292Z" fill="#C8E7ED"/>
<path d="M138.963 79.4005V77.7769C138.963 71.6434 139.839 65.9996 141.592 60.8454C143.345 55.6396 145.897 51.1297 149.248 47.3156C152.599 43.5015 156.697 40.5378 161.543 38.4246C166.389 36.2598 171.906 35.1774 178.092 35.1774C184.382 35.1774 189.95 36.2598 194.796 38.4246C199.693 40.5378 203.817 43.5015 207.168 47.3156C210.519 51.1297 213.071 55.6396 214.824 60.8454C216.577 65.9996 217.453 71.6434 217.453 77.7769V79.4005C217.453 85.4825 216.577 91.1263 214.824 96.3321C213.071 101.486 210.519 105.996 207.168 109.862C203.817 113.676 199.719 116.64 194.873 118.753C190.027 120.866 184.485 121.923 178.247 121.923C172.06 121.923 166.518 120.866 161.621 118.753C156.723 116.64 152.599 113.676 149.248 109.862C145.897 105.996 143.345 101.486 141.592 96.3321C139.839 91.1263 138.963 85.4825 138.963 79.4005ZM159.378 77.7769V79.4005C159.378 83.06 159.739 86.4875 160.461 89.6831C161.183 92.8788 162.291 95.6878 163.786 98.1103C165.281 100.533 167.214 102.44 169.586 103.831C172.009 105.172 174.896 105.842 178.247 105.842C181.546 105.842 184.382 105.172 186.753 103.831C189.125 102.44 191.058 100.533 192.553 98.1103C194.1 95.6878 195.234 92.8788 195.956 89.6831C196.677 86.4875 197.038 83.06 197.038 79.4005V77.7769C197.038 74.169 196.677 70.793 195.956 67.6489C195.234 64.4533 194.1 61.6443 192.553 59.2218C191.058 56.7478 189.099 54.815 186.676 53.4233C184.304 51.9801 181.443 51.2586 178.092 51.2586C174.793 51.2586 171.957 51.9801 169.586 53.4233C167.214 54.815 165.281 56.7478 163.786 59.2218C162.291 61.6443 161.183 64.4533 160.461 67.6489C159.739 70.793 159.378 74.169 159.378 77.7769Z" fill="#C8E7ED"/>
<path d="M252.716 53.8099V120.376H232.301V36.7237H251.633L252.716 53.8099ZM278.158 36.1825L277.849 55.2015C276.714 54.9954 275.425 54.8407 273.982 54.7376C272.59 54.6346 271.275 54.583 270.038 54.583C266.893 54.583 264.135 55.0211 261.764 55.8973C259.392 56.722 257.407 57.9333 255.809 59.5311C254.263 61.1289 253.077 63.0875 252.252 65.4068C251.427 67.6747 250.963 70.2518 250.86 73.1382L246.452 72.597C246.452 67.2881 246.994 62.3659 248.076 57.8302C249.159 53.2945 250.731 49.3257 252.793 45.924C254.856 42.5222 257.433 39.8935 260.526 38.038C263.671 36.131 267.28 35.1774 271.353 35.1774C272.487 35.1774 273.698 35.2805 274.987 35.4867C276.328 35.6413 277.385 35.8733 278.158 36.1825Z" fill="#C8E7ED"/>
<path d="M309.786 1.54626V120.376H289.371V1.54626H309.786ZM362.216 36.7237L325.793 77.6223L306.074 97.6464L299.578 81.7972L314.812 62.6236L337.548 36.7237H362.216ZM341.337 120.376L315.431 81.4107L329.041 68.1901L365 120.376H341.337Z" fill="#C8E7ED"/>
<path d="M419.054 97.4918C419.054 95.7393 418.59 94.1673 417.662 92.7757C416.734 91.384 414.981 90.1213 412.404 88.9873C409.877 87.8019 406.166 86.6937 401.268 85.6629C396.937 84.7351 392.942 83.5754 389.282 82.1838C385.621 80.7921 382.477 79.117 379.847 77.1584C377.218 75.1483 375.156 72.8031 373.661 70.1229C372.218 67.3912 371.496 64.2472 371.496 60.6908C371.496 57.2374 372.243 53.9903 373.738 50.9493C375.233 47.8568 377.399 45.1508 380.234 42.8314C383.07 40.4605 386.524 38.605 390.596 37.2649C394.669 35.8733 399.257 35.1774 404.361 35.1774C411.476 35.1774 417.585 36.3371 422.689 38.6565C427.844 40.9759 431.788 44.1715 434.52 48.2433C437.252 52.2636 438.619 56.7993 438.619 61.8504H418.203C418.203 59.6341 417.688 57.624 416.657 55.82C415.677 54.0161 414.156 52.5729 412.094 51.4905C410.032 50.3566 407.429 49.7896 404.284 49.7896C401.448 49.7896 399.051 50.2535 397.092 51.1812C395.185 52.109 393.741 53.3202 392.762 54.815C391.782 56.3097 391.292 57.959 391.292 59.763C391.292 61.1031 391.55 62.3143 392.066 63.3967C392.633 64.4275 393.535 65.3811 394.772 66.2573C396.01 67.1335 397.685 67.9324 399.799 68.654C401.964 69.3756 404.619 70.0714 407.764 70.7414C414.002 71.9785 419.441 73.6278 424.081 75.6895C428.772 77.6996 432.432 80.3798 435.061 83.73C437.691 87.0803 439.005 91.3583 439.005 96.564C439.005 100.275 438.206 103.677 436.608 106.769C435.01 109.81 432.69 112.465 429.648 114.733C426.607 117 422.972 118.779 418.745 120.067C414.517 121.304 409.749 121.923 404.439 121.923C396.757 121.923 390.261 120.557 384.951 117.825C379.641 115.042 375.62 111.537 372.888 107.311C370.155 103.033 368.789 98.5999 368.789 94.0127H388.354C388.508 97.2598 389.385 99.8627 390.983 101.821C392.581 103.78 394.592 105.197 397.015 106.074C399.489 106.898 402.093 107.311 404.825 107.311C407.918 107.311 410.522 106.898 412.636 106.074C414.749 105.197 416.347 104.038 417.43 102.594C418.513 101.1 419.054 99.3988 419.054 97.4918Z" fill="#C8E7ED"/>
<path d="M490.353 79.4005V77.7769C490.353 71.6434 491.229 65.9996 492.982 60.8454C494.735 55.6396 497.287 51.1297 500.638 47.3156C503.989 43.5015 508.087 40.5378 512.933 38.4246C517.779 36.2598 523.296 35.1774 529.482 35.1774C535.772 35.1774 541.339 36.2598 546.185 38.4246C551.083 40.5378 555.207 43.5015 558.558 47.3156C561.909 51.1297 564.461 55.6396 566.214 60.8454C567.967 65.9996 568.843 71.6434 568.843 77.7769V79.4005C568.843 85.4825 567.967 91.1263 566.214 96.3321C564.461 101.486 561.909 105.996 558.558 109.862C555.207 113.676 551.109 116.64 546.263 118.753C541.417 120.866 535.875 121.923 529.637 121.923C523.45 121.923 517.908 120.866 513.011 118.753C508.113 116.64 503.989 113.676 500.638 109.862C497.287 105.996 494.735 101.486 492.982 96.3321C491.229 91.1263 490.353 85.4825 490.353 79.4005ZM510.768 77.7769V79.4005C510.768 83.06 511.129 86.4875 511.851 89.6831C512.572 92.8788 513.681 95.6878 515.176 98.1103C516.671 100.533 518.604 102.44 520.976 103.831C523.399 105.172 526.286 105.842 529.637 105.842C532.936 105.842 535.772 105.172 538.143 103.831C540.514 102.44 542.448 100.533 543.943 98.1103C545.489 95.6878 546.624 92.8788 547.345 89.6831C548.067 86.4875 548.428 83.06 548.428 79.4005V77.7769C548.428 74.169 548.067 70.793 547.345 67.6489C546.624 64.4533 545.489 61.6443 543.943 59.2218C542.448 56.7478 540.489 54.815 538.066 53.4233C535.694 51.9801 532.833 51.2586 529.482 51.2586C526.183 51.2586 523.347 51.9801 520.976 53.4233C518.604 54.815 516.671 56.7478 515.176 59.2218C513.681 61.6443 512.572 64.4533 511.851 67.6489C511.129 70.793 510.768 74.169 510.768 77.7769Z" fill="#C8E7ED"/>
<path d="M610.447 120.376H589.877V28.9924C589.877 22.7043 591.089 17.4212 593.512 13.1432C595.935 8.81369 599.389 5.54077 603.874 3.32446C608.359 1.10815 613.643 0 619.727 0C621.737 0 623.645 0.128855 625.449 0.386565C627.305 0.644275 629.135 1.00507 630.94 1.46895L630.553 17.0089C629.573 16.7512 628.491 16.5708 627.305 16.4677C626.171 16.3646 624.908 16.3131 623.516 16.3131C620.732 16.3131 618.361 16.8027 616.401 17.782C614.442 18.7613 612.947 20.2045 611.916 22.1115C610.937 23.967 610.447 26.2607 610.447 28.9924V120.376ZM627.382 36.7237V51.4132H577.272V36.7237H627.382Z" fill="#C8E7ED"/>
<path d="M708.657 98.8061L731.083 7.80862H743.224L743.997 26.9823L720.024 120.376H707.187L708.657 98.8061ZM694.505 7.80862L712.91 98.4968V120.376H698.913L673.394 7.80862H694.505ZM767.273 98.1103L785.369 7.80862H806.557L781.038 120.376H767.041L767.273 98.1103ZM749.023 7.80862L771.449 99.1153L772.764 120.376H759.927L736.032 26.9049L736.96 7.80862H749.023Z" fill="#C8E7ED"/>
<path d="M853.574 121.923C847.233 121.923 841.536 120.892 836.484 118.83C831.432 116.768 827.127 113.908 823.57 110.248C820.064 106.537 817.358 102.234 815.45 97.3371C813.594 92.3891 812.666 87.0803 812.666 81.4107V78.3181C812.666 71.8754 813.594 66.0254 815.45 60.7681C817.306 55.4592 819.935 50.8978 823.338 47.0837C826.74 43.2695 830.813 40.3316 835.556 38.27C840.299 36.2083 845.532 35.1774 851.254 35.1774C857.183 35.1774 862.416 36.1825 866.952 38.1927C871.489 40.1512 875.278 42.9345 878.32 46.5425C881.362 50.1504 883.656 54.4799 885.202 59.5311C886.749 64.5306 887.522 70.0714 887.522 76.1534V84.7351H821.946V70.6641H867.416V69.1179C867.313 65.8707 866.695 62.9071 865.56 60.2269C864.426 57.4951 862.673 55.3304 860.302 53.7326C857.93 52.0832 854.863 51.2586 851.1 51.2586C848.058 51.2586 845.403 51.9286 843.135 53.2687C840.918 54.5572 839.062 56.4128 837.567 58.8352C836.123 61.2062 835.041 64.041 834.319 67.3397C833.597 70.6384 833.236 74.2978 833.236 78.3181V81.4107C833.236 84.9155 833.7 88.1627 834.628 91.1521C835.608 94.1415 837.025 96.7444 838.881 98.9607C840.789 101.125 843.057 102.826 845.686 104.063C848.367 105.249 851.409 105.842 854.811 105.842C859.09 105.842 862.957 105.017 866.411 103.368C869.917 101.667 872.958 99.1669 875.536 95.8682L885.821 106.537C884.068 109.114 881.697 111.589 878.707 113.959C875.768 116.33 872.211 118.263 868.035 119.758C863.859 121.201 859.039 121.923 853.574 121.923Z" fill="#C8E7ED"/>
<path d="M901.132 1.62357H921.625V101.899L919.614 120.376H901.132V1.62357ZM975.447 77.6996V79.3232C975.447 85.5598 974.751 91.281 973.359 96.4867C972.019 101.692 969.982 106.202 967.25 110.016C964.518 113.779 961.115 116.717 957.042 118.83C953.021 120.892 948.304 121.923 942.891 121.923C937.736 121.923 933.25 120.918 929.435 118.907C925.672 116.897 922.501 114.063 919.924 110.403C917.346 106.692 915.284 102.337 913.737 97.3371C912.191 92.286 911.031 86.771 910.257 80.7921V76.3853C911.031 70.3549 912.191 64.8399 913.737 59.8403C915.284 54.8407 917.346 50.4854 919.924 46.7744C922.501 43.0634 925.672 40.2028 929.435 38.1927C933.199 36.1825 937.632 35.1774 942.736 35.1774C948.201 35.1774 952.97 36.2341 957.042 38.3473C961.167 40.409 964.569 43.3469 967.25 47.161C969.982 50.9235 972.019 55.4077 973.359 60.6134C974.751 65.7676 975.447 71.463 975.447 77.6996ZM954.954 79.3232V77.6996C954.954 74.1432 954.671 70.793 954.104 67.6489C953.537 64.4533 952.609 61.6443 951.32 59.2218C950.031 56.7993 948.278 54.8923 946.061 53.5006C943.845 52.109 941.061 51.4132 937.71 51.4132C934.513 51.4132 931.781 51.9544 929.513 53.0368C927.296 54.1191 925.44 55.6139 923.945 57.5209C922.501 59.428 921.367 61.67 920.542 64.2472C919.769 66.8243 919.254 69.6075 918.996 72.597V84.6578C919.357 88.6265 920.207 92.2087 921.548 95.4043C922.888 98.5484 924.873 101.048 927.502 102.904C930.183 104.759 933.637 105.687 937.864 105.687C941.164 105.687 943.922 105.043 946.139 103.754C948.356 102.414 950.108 100.559 951.397 98.1876C952.686 95.7651 953.588 92.9561 954.104 89.7605C954.671 86.5649 954.954 83.0858 954.954 79.3232Z" fill="#C8E7ED"/>
<path d="M1008.7 59.6084L1029.19 46.1559C1032.44 43.9911 1034.68 41.9037 1035.92 39.8935C1037.16 37.8834 1037.78 35.4609 1037.78 32.6261C1037.78 30.1006 1036.8 27.7554 1034.84 25.5906C1032.93 23.3743 1030.22 22.2662 1026.72 22.2662C1024.24 22.2662 1022.15 22.8331 1020.45 23.967C1018.75 25.101 1017.46 26.6215 1016.59 28.5285C1015.76 30.384 1015.35 32.4457 1015.35 34.7136C1015.35 37.033 1015.94 39.4039 1017.13 41.8264C1018.37 44.2488 1020.02 46.8002 1022.08 49.4804C1024.19 52.109 1026.54 54.9696 1029.11 58.0621L1082.24 120.376H1058.89L1015.43 69.8137C1011.77 65.278 1008.52 61.1031 1005.68 57.289C1002.85 53.4749 1000.63 49.7896 999.033 46.2332C997.486 42.6253 996.713 38.9142 996.713 35.1001C996.713 29.2243 997.95 24.1217 1000.42 19.7921C1002.9 15.4626 1006.38 12.1124 1010.86 9.74145C1015.4 7.37051 1020.71 6.18504 1026.79 6.18504C1032.57 6.18504 1037.54 7.37051 1041.72 9.74145C1045.95 12.0608 1049.22 15.1534 1051.54 19.019C1053.86 22.8847 1055.02 27.1111 1055.02 31.6984C1055.02 35.2032 1054.38 38.4504 1053.09 41.4398C1051.8 44.3777 1050.02 47.0837 1047.75 49.5577C1045.48 51.9801 1042.85 54.2738 1039.86 56.4385L1015.74 73.7567C1013.42 75.7153 1011.66 77.6481 1010.48 79.5551C1009.34 81.4107 1008.57 83.1373 1008.16 84.7351C1007.8 86.3329 1007.62 87.8276 1007.62 89.2193C1007.62 92.3633 1008.29 95.1981 1009.63 97.7237C1011.02 100.198 1012.98 102.182 1015.5 103.677C1018.08 105.12 1021.12 105.842 1024.63 105.842C1028.91 105.842 1033.03 104.888 1037 102.981C1040.97 101.074 1044.53 98.368 1047.67 94.8631C1050.87 91.3583 1053.4 87.1834 1055.25 82.3384C1057.16 77.4419 1058.11 72.0558 1058.11 66.18H1075.59C1075.59 71.7981 1075.05 77.1327 1073.97 82.1838C1072.88 87.1834 1071.13 91.8221 1068.71 96.1001C1066.28 100.378 1063.11 104.192 1059.2 107.542C1058.84 107.852 1058.4 108.264 1057.88 108.779C1057.42 109.295 1057 109.707 1056.64 110.016C1051.95 114.037 1046.87 117.052 1041.41 119.062C1036 121.021 1030.09 122 1023.7 122C1016.17 122 1009.68 120.634 1004.21 117.902C998.749 115.171 994.522 111.408 991.532 106.615C988.593 101.821 987.124 96.3321 987.124 90.147C987.124 85.5598 988.026 81.5653 989.83 78.1635C991.686 74.7102 994.238 71.5146 997.486 68.5767C1000.73 65.5872 1004.47 62.5978 1008.7 59.6084Z" fill="#C8E7ED"/>
<path d="M1139.47 24.8948L1107.37 120.376H1084.87L1126.94 7.80862H1141.32L1139.47 24.8948ZM1166.3 120.376L1134.05 24.8948L1132.12 7.80862H1146.58L1188.88 120.376H1166.3ZM1164.83 78.5501V95.327H1104.43V78.5501H1164.83Z" fill="#C8E7ED"/>
<path d="M1243.78 79.3232H1214.78V62.6236H1243.78C1248.53 62.6236 1252.37 61.8504 1255.31 60.3042C1258.3 58.7064 1260.49 56.5416 1261.88 53.8099C1263.27 51.0266 1263.97 47.8568 1263.97 44.3004C1263.97 40.8471 1263.27 37.6257 1261.88 34.6363C1260.49 31.6468 1258.3 29.2243 1255.31 27.3688C1252.37 25.5133 1248.53 24.5856 1243.78 24.5856H1221.74V120.376H1200.48V7.80862H1243.78C1252.55 7.80862 1260.02 9.38065 1266.21 12.5247C1272.45 15.6172 1277.19 19.921 1280.44 25.436C1283.74 30.8995 1285.39 37.136 1285.39 44.1458C1285.39 51.4132 1283.74 57.6755 1280.44 62.9328C1277.19 68.1901 1272.45 72.2362 1266.21 75.071C1260.02 77.9058 1252.55 79.3232 1243.78 79.3232Z" fill="#C8E7ED"/>
<path d="M1345.4 79.3232H1316.4V62.6236H1345.4C1350.14 62.6236 1353.98 61.8504 1356.92 60.3042C1359.91 58.7064 1362.1 56.5416 1363.49 53.8099C1364.88 51.0266 1365.58 47.8568 1365.58 44.3004C1365.58 40.8471 1364.88 37.6257 1363.49 34.6363C1362.1 31.6468 1359.91 29.2243 1356.92 27.3688C1353.98 25.5133 1350.14 24.5856 1345.4 24.5856H1323.36V120.376H1302.09V7.80862H1345.4C1354.16 7.80862 1361.64 9.38065 1367.82 12.5247C1374.06 15.6172 1378.8 19.921 1382.05 25.436C1385.35 30.8995 1387 37.136 1387 44.1458C1387 51.4132 1385.35 57.6755 1382.05 62.9328C1378.8 68.1901 1374.06 72.2362 1367.82 75.071C1361.64 77.9058 1354.16 79.3232 1345.4 79.3232Z" fill="#C8E7ED"/>
</g>
</svg>
