<svg width="53" height="53" viewBox="0 0 53 53" fill="none" xmlns="http://www.w3.org/2000/svg">
<path d="M22.3778 30.6222L16.0472 24.2917C15.5074 23.7519 14.8204 23.4819 13.9861 23.4819C13.1519 23.4819 12.4648 23.7519 11.925 24.2917C11.3852 24.8315 11.1153 25.5185 11.1153 26.3528C11.1153 27.187 11.3852 27.8741 11.925 28.4139L20.3167 36.8056C20.9056 37.3944 21.5926 37.6889 22.3778 37.6889C23.163 37.6889 23.85 37.3944 24.4389 36.8056L41.075 20.1694C41.6148 19.6296 41.8847 18.9426 41.8847 18.1083C41.8847 17.2741 41.6148 16.587 41.075 16.0472C40.5352 15.5074 39.8481 15.2375 39.0139 15.2375C38.1796 15.2375 37.4926 15.5074 36.9528 16.0472L22.3778 30.6222ZM5.88889 53C4.26945 53 2.88261 52.4229 1.72839 51.2687C0.574171 50.1144 -0.00195796 48.7286 4.99906e-06 47.1111V5.88889C4.99906e-06 4.26945 0.577116 2.88261 1.73134 1.72839C2.88556 0.574171 4.27141 -0.00195796 5.88889 4.99906e-06H47.1111C48.7305 4.99906e-06 50.1174 0.577116 51.2716 1.73134C52.4258 2.88556 53.002 4.27141 53 5.88889V47.1111C53 48.7305 52.4229 50.1174 51.2687 51.2716C50.1144 52.4258 48.7286 53.002 47.1111 53H5.88889Z" fill="#20A4AF"/>
</svg>
