<svg width="92" height="30" viewBox="0 0 92 30" fill="none" xmlns="http://www.w3.org/2000/svg">
<rect width="91.4" height="30" rx="15" fill="#20A4AF"/>
<path d="M20.896 9.388V10.108H23.236V9.388H20.896ZM22.24 12.364V13.084H25.612V12.364H22.24ZM20.572 18.808V19.6H27.424V18.808H20.572ZM26.212 9.268C25.888 9.592 25.288 10.108 24.88 10.396L25.264 10.78C25.696 10.516 26.248 10.144 26.728 9.76L26.212 9.268ZM26.944 10.516C26.62 10.864 25.996 11.38 25.588 11.668L25.972 12.088C26.416 11.824 26.98 11.428 27.472 11.044L26.944 10.516ZM25.132 16.684C25.012 17.236 24.712 18.052 24.496 18.568L25.216 18.772C25.456 18.28 25.732 17.548 25.984 16.888L25.132 16.684ZM21.952 16.888C22.228 17.488 22.48 18.268 22.552 18.784L23.356 18.544C23.272 18.028 23.008 17.26 22.72 16.696L21.952 16.888ZM22.228 14.572H25.6V15.88H22.228V14.572ZM21.4 13.852V16.6H26.464V13.852H21.4ZM20.716 11.008C21.172 11.356 21.7 11.872 21.94 12.232L22.48 11.656C22.228 11.308 21.688 10.828 21.22 10.504L20.716 11.008ZM22.912 9.388V9.532C22.516 11.224 21.388 12.676 20.164 13.312C20.344 13.48 20.572 13.792 20.68 13.996C22.036 13.192 23.212 11.632 23.716 9.556L23.2 9.352L23.056 9.388H22.912ZM24.784 8.956L24.028 9.124C24.556 11.188 25.552 12.94 27.052 13.804C27.184 13.588 27.436 13.264 27.64 13.108C26.236 12.4 25.252 10.768 24.784 8.956ZM16.972 12.556V13.276H20.212V12.556H16.972ZM17.032 9.352V10.072H20.164V9.352H17.032ZM16.972 14.164V14.884H20.212V14.164H16.972ZM16.456 10.924V11.668H20.56V10.924H16.456ZM17.392 15.784V16.528H19.456V18.532H17.392V19.276H20.212V15.784H17.392ZM16.948 15.784V19.84H17.716V15.784H16.948ZM30.196 16.252V19.996H31.072V16.888H37.012V19.972H37.924V16.252H30.196ZM30.652 17.608V18.208H37.36V17.608H30.652ZM30.652 18.976V19.6H37.36V18.976H30.652ZM33.496 8.908V15.424H34.408V8.908H33.496ZM29.944 9.748V10.348H36.964V12.436H29.8V13.024H37.864V9.748H29.944ZM28.672 11.044V11.716H39.328V11.044H28.672ZM29.476 13.696V14.308H38.524V13.696H29.476ZM28.648 15.016V15.688H39.34V15.016H28.648ZM40.54 13.312V14.032H47.38V13.312H40.54ZM43.564 12.46V13.708H44.392V12.46H43.564ZM42.256 15.376H45.772V16.492H42.256V15.376ZM41.464 14.74V17.128H46.6V14.74H41.464ZM42.172 11.248H45.844V11.992H42.172V11.248ZM42.172 9.952H45.844V10.696H42.172V9.952ZM41.356 9.376V12.568H46.684V9.376H41.356ZM43.564 16.684V19.096C43.564 19.216 43.528 19.252 43.384 19.252C43.228 19.264 42.784 19.264 42.232 19.24C42.364 19.456 42.52 19.744 42.568 19.96C43.24 19.96 43.684 19.96 43.996 19.84C44.308 19.72 44.392 19.516 44.392 19.108V16.684H43.564ZM41.824 17.428C41.536 18.076 41.032 18.712 40.492 19.156C40.684 19.276 41.008 19.492 41.152 19.624C41.692 19.132 42.256 18.376 42.604 17.632L41.824 17.428ZM45.148 17.788C45.616 18.304 46.156 19.012 46.408 19.456L47.116 19.072C46.852 18.628 46.3 17.944 45.832 17.44L45.148 17.788ZM50.152 9.136C49.48 10.06 48.244 11.044 47.2 11.596C47.416 11.764 47.692 12.04 47.848 12.232C48.952 11.584 50.2 10.54 51.004 9.484L50.152 9.136ZM50.476 12.46C49.732 13.432 48.388 14.464 47.248 15.052C47.476 15.22 47.752 15.496 47.908 15.688C49.096 15.004 50.452 13.924 51.316 12.808L50.476 12.46ZM50.788 15.856C49.972 17.272 48.4 18.52 46.768 19.228C46.996 19.42 47.26 19.732 47.404 19.948C49.144 19.132 50.728 17.776 51.664 16.168L50.788 15.856ZM52.768 11.452V12.364H63.244V11.452H52.768ZM55.168 16.804V17.716H60.76V16.804H55.168ZM57.508 8.932V19.96H58.456V8.932H57.508ZM57.232 11.752C56.272 14.056 54.364 16.288 52.36 17.332C52.564 17.512 52.864 17.848 53.008 18.076C55.084 16.864 56.968 14.572 58.036 12.028L57.232 11.752ZM58.756 11.788L57.952 12.064C59.008 14.584 60.856 16.876 62.98 18.052C63.124 17.8 63.436 17.44 63.664 17.248C61.588 16.252 59.704 14.068 58.756 11.788Z" fill="white"/>
<path d="M69.4 21L68 19.6L72.6 15L68 10.4L69.4 9L75.4 15L69.4 21Z" fill="white"/>
</svg>
