<svg width="108" height="112" viewBox="0 0 108 112" fill="none" xmlns="http://www.w3.org/2000/svg">
<rect x="0.25" y="0.25" width="106.663" height="110.541" rx="53.3314" fill="#C8E7ED" stroke="black" stroke-width="0.5"/>
<path d="M31.5 76.25V80.125C31.5 81.2229 31.132 82.1439 30.396 82.8879C29.66 83.6319 28.7502 84.0026 27.6667 84H23.8333C22.7472 84 21.8362 83.628 21.1002 82.884C20.3642 82.14 19.9975 81.2203 20 80.125V49.125L28.05 25.875C28.4333 24.7125 29.1195 23.776 30.1085 23.0656C31.0975 22.3552 32.2002 22 33.4167 22H75.5833C76.7972 22 77.9 22.3552 78.8915 23.0656C79.8831 23.776 80.5692 24.7125 80.95 25.875L89 49.125V80.125C89 81.2229 88.6333 82.1439 87.8998 82.8879C87.1664 83.6319 86.2553 84.0026 85.1667 84H81.3333C80.2472 84 79.3362 83.628 78.6002 82.884C77.8642 82.14 77.4974 81.2203 77.5 80.125V76.25H31.5ZM30.7333 41.375H78.2667L74.2417 29.75H34.7583L30.7333 41.375ZM37.25 64.625C38.8472 64.625 40.2055 64.0592 41.3248 62.9277C42.4442 61.7962 43.0026 60.4245 43 58.8125C43 57.1979 42.4403 55.8249 41.321 54.6934C40.2017 53.5619 38.8447 52.9974 37.25 53C35.6528 53 34.2945 53.5657 33.1752 54.6972C32.0558 55.8287 31.4975 57.2005 31.5 58.8125C31.5 60.4271 32.0597 61.8001 33.179 62.9316C34.2983 64.0631 35.6553 64.6276 37.25 64.625ZM71.75 64.625C73.3472 64.625 74.7055 64.0592 75.8248 62.9277C76.9442 61.7962 77.5026 60.4245 77.5 58.8125C77.5 57.1979 76.9403 55.8249 75.821 54.6934C74.7017 53.5619 73.3447 52.9974 71.75 53C70.1528 53 68.7945 53.5657 67.6752 54.6972C66.5558 55.8287 65.9974 57.2005 66 58.8125C66 60.4271 66.5597 61.8001 67.679 62.9316C68.7983 64.0631 70.1553 64.6276 71.75 64.625ZM27.6667 68.5H81.3333V49.125H27.6667V68.5Z" fill="white" stroke="black" stroke-width="0.5"/>
</svg>
