<svg width="108" height="112" viewBox="0 0 108 112" fill="none" xmlns="http://www.w3.org/2000/svg">
<rect x="0.25" y="0.25" width="106.663" height="110.541" rx="53.3314" fill="#C8E7ED" stroke="black" stroke-width="0.5"/>
<path d="M42.3147 60.9025V37.1368H48.76V60.9025C48.76 63.1681 48.2678 65.1134 47.2834 66.7384C46.2991 68.3478 44.9553 69.5822 43.2522 70.4415C41.5491 71.3009 39.6272 71.7306 37.4866 71.7306C35.2834 71.7306 33.3303 71.3634 31.6272 70.629C29.9241 69.879 28.5881 68.7384 27.6194 67.2072C26.6663 65.6759 26.1897 63.7306 26.1897 61.3712H32.6584C32.6584 62.6525 32.8538 63.6837 33.2444 64.465C33.635 65.2462 34.1897 65.8087 34.9084 66.1525C35.6428 66.4962 36.5022 66.6681 37.4866 66.6681C38.4397 66.6681 39.2756 66.4493 39.9944 66.0118C40.7288 65.5587 41.2991 64.9025 41.7053 64.0431C42.1116 63.1837 42.3147 62.1368 42.3147 60.9025Z" fill="white"/>
<path d="M68.2834 58.8165H59.4944V53.754H68.2834C69.7209 53.754 70.885 53.5197 71.7756 53.0509C72.6819 52.5665 73.3459 51.9103 73.7678 51.0822C74.1897 50.2384 74.4006 49.2775 74.4006 48.1993C74.4006 47.1525 74.1897 46.1759 73.7678 45.2697C73.3459 44.3634 72.6819 43.629 71.7756 43.0665C70.885 42.504 69.7209 42.2228 68.2834 42.2228H61.6038V71.2618H55.1584V37.1368H68.2834C70.9397 37.1368 73.2053 37.6134 75.0803 38.5665C76.9709 39.504 78.4084 40.8087 79.3928 42.4806C80.3928 44.1368 80.8928 46.0275 80.8928 48.1525C80.8928 50.3556 80.3928 52.254 79.3928 53.8478C78.4084 55.4415 76.9709 56.6681 75.0803 57.5275C73.2053 58.3868 70.9397 58.8165 68.2834 58.8165Z" fill="white"/>
<path fill-rule="evenodd" clip-rule="evenodd" d="M41.8147 36.6368H49.26V60.9025C49.26 63.2417 48.7512 65.2805 47.7111 66.9975L47.71 66.9993C46.6765 68.689 45.2626 69.9871 43.4774 70.8879C41.6963 71.7866 39.6958 72.2306 37.4866 72.2306C35.2279 72.2306 33.2055 71.8541 31.4292 71.0882L31.4257 71.0866C29.6342 70.2977 28.2202 69.0921 27.1968 67.4745L27.1949 67.4714C26.1794 65.8399 25.6897 63.7958 25.6897 61.3712V60.8712H33.1584V61.3712C33.1584 62.6083 33.3481 63.5543 33.6916 64.2414C34.0372 64.9326 34.5146 65.4093 35.1223 65.7005C35.7773 66.0067 36.561 66.1681 37.4866 66.1681C38.36 66.1681 39.1032 65.9687 39.7333 65.5854C40.3764 65.1882 40.8843 64.6099 41.2533 63.8294C41.62 63.0537 41.8147 62.0841 41.8147 60.9025V36.6368ZM39.9944 66.0118C39.2756 66.4493 38.4397 66.6681 37.4866 66.6681C36.5022 66.6681 35.6428 66.4962 34.9084 66.1525C34.1897 65.8087 33.635 65.2462 33.2444 64.465C32.8538 63.6837 32.6584 62.6525 32.6584 61.3712H26.1897C26.1897 61.54 26.1921 61.7067 26.197 61.8712C26.2603 64.0068 26.7344 65.7854 27.6194 67.2072C28.5881 68.7384 29.9241 69.879 31.6272 70.629C33.3303 71.3634 35.2834 71.7306 37.4866 71.7306C39.6272 71.7306 41.5491 71.3009 43.2522 70.4415C44.9553 69.5822 46.2991 68.3478 47.2834 66.7384C48.2678 65.1134 48.76 63.1681 48.76 60.9025V37.1368H42.3147V60.9025C42.3147 62.1368 42.1116 63.1837 41.7053 64.0431C41.2991 64.9025 40.7288 65.5587 39.9944 66.0118ZM61.6038 53.754H68.2834C69.7209 53.754 70.885 53.5197 71.7756 53.0509C72.6819 52.5665 73.3459 51.9103 73.7678 51.0822C74.1897 50.2384 74.4006 49.2775 74.4006 48.1993C74.4006 47.1525 74.1897 46.1759 73.7678 45.2697C73.3459 44.3634 72.6819 43.629 71.7756 43.0665C70.885 42.504 69.7209 42.2228 68.2834 42.2228H61.6038V53.754ZM62.1038 42.7228V53.254H68.2834C69.6715 53.254 70.7468 53.027 71.5414 52.6092C72.366 52.1681 72.9511 51.5831 73.3215 50.8568C73.7034 50.0922 73.9006 49.2102 73.9006 48.1993C73.9006 47.2218 73.7042 46.3177 73.3145 45.4807C72.9365 44.6686 72.3414 44.0061 71.512 43.4913L71.5086 43.4893C70.7221 42.9925 69.6598 42.7228 68.2834 42.7228H62.1038ZM61.6038 58.8165V71.2618H55.1584V37.1368H68.2834C70.9397 37.1368 73.2053 37.6134 75.0803 38.5665C76.9709 39.504 78.4084 40.8087 79.3928 42.4806C80.3928 44.1368 80.8928 46.0275 80.8928 48.1525C80.8928 50.3556 80.3928 52.254 79.3928 53.8478C78.4084 55.4415 76.9709 56.6681 75.0803 57.5275C73.2053 58.3868 70.9397 58.8165 68.2834 58.8165H61.6038ZM62.1038 59.3165V71.7618H54.6584V36.6368H68.2834C70.9972 36.6368 73.3439 37.1235 75.3047 38.1197C77.2723 39.0958 78.7847 40.4635 79.8223 42.2245C80.873 43.9657 81.3928 45.9466 81.3928 48.1525C81.3928 50.4325 80.8747 52.4259 79.8175 54.1117C78.7756 55.7981 77.258 57.0867 75.2882 57.9822C73.3319 58.8787 70.9915 59.3165 68.2834 59.3165H62.1038Z" fill="black"/>
</svg>
