<svg width="108" height="112" viewBox="0 0 108 112" fill="none" xmlns="http://www.w3.org/2000/svg">
<rect x="0.25" y="0.25" width="106.663" height="110.541" rx="53.3314" fill="#C8E7ED" stroke="black" stroke-width="0.5"/>
<path d="M53.7784 65.1764C52.2764 65.1807 50.8371 65.7907 49.7748 66.873C48.7124 67.9553 48.1134 69.4222 48.1084 70.9532V82.7675C48.1084 84.3003 48.7058 85.7703 49.7691 86.8542C50.8324 87.9381 52.2746 88.547 53.7784 88.547C55.2822 88.547 56.7244 87.9381 57.7877 86.8542C58.851 85.7703 59.4484 84.3003 59.4484 82.7675V82.6495V82.655V70.9559C59.4441 69.4254 58.8461 67.9587 57.7849 66.8759C56.7236 65.7931 55.2853 65.1822 53.7838 65.1764H53.7784Z" fill="white" stroke="black" stroke-width="0.5"/>
<path d="M74.3236 29.7885H63.4117C62.0897 25.5705 58.2774 22.5682 53.7759 22.5682C49.2743 22.5682 45.4647 25.5705 44.1617 29.7144L44.1428 29.7885H33.3736C32.6217 29.7885 31.9006 30.0929 31.3689 30.6349C30.8373 31.1768 30.5386 31.9118 30.5386 32.6782C30.5386 33.4447 30.8373 34.1797 31.3689 34.7216C31.9006 35.2636 32.6217 35.568 33.3736 35.568H44.2855C45.007 38.0352 46.574 40.055 48.6336 41.3201L48.6767 41.3448C40.947 43.7241 35.4063 50.895 35.3578 59.3942V74.5648C35.369 75.825 35.865 77.0304 36.739 77.9218C37.613 78.8133 38.7953 79.3195 40.0317 79.3316H43.8601V71.0987C43.8601 68.3788 44.9201 65.7702 46.807 63.8469C48.6938 61.9237 51.2529 60.8432 53.9213 60.8432C56.5897 60.8432 59.1487 61.9237 61.0356 63.8469C62.9224 65.7702 63.9824 68.3788 63.9824 71.0987V79.3316H67.8082C69.0457 79.3216 70.2298 78.8163 71.1051 77.9245C71.9804 77.0328 72.4769 75.8262 72.4874 74.5648V59.5424C72.4857 55.4913 71.201 51.549 68.8246 48.3019C66.4482 45.0548 63.1069 42.6764 59.2978 41.5204L59.1686 41.4875C61.2739 40.2071 62.8342 38.1714 63.5436 35.7793L63.5624 35.708H74.4743C75.2256 35.7058 75.9454 35.4006 76.4766 34.8592C77.0078 34.3177 77.3072 33.5839 77.3093 32.8182C77.2801 32.0239 76.9576 31.2702 76.4065 30.708C75.8553 30.1457 75.1162 29.8163 74.337 29.7857H74.3317L74.3236 29.7885ZM53.7759 38.595C52.6545 38.595 51.5582 38.256 50.6258 37.621C49.6934 36.9859 48.9666 36.0833 48.5375 35.0272C48.1083 33.9711 47.9961 32.809 48.2148 31.6879C48.4336 30.5668 48.9736 29.537 49.7666 28.7287C50.5596 27.9204 51.5698 27.37 52.6697 27.147C53.7696 26.924 54.9096 27.0384 55.9457 27.4759C56.9818 27.9133 57.8673 28.6541 58.4903 29.6045C59.1133 30.555 59.4459 31.6724 59.4459 32.8155L59.4486 32.9801C59.4486 36.0812 56.9824 38.595 53.9401 38.595L53.7705 38.5922H53.7786L53.7759 38.595Z" fill="white" stroke="black" stroke-width="0.5"/>
</svg>
