<svg width="139" height="72" viewBox="0 0 139 72" fill="none" xmlns="http://www.w3.org/2000/svg">
<g clip-path="url(#clip0_435_953)">
<path d="M47.1174 19H28.8377C28.8377 19 23.2951 42.4783 21.519 42.4783L48.1501 42.5672V19.9572C48.1501 19.4286 47.6874 19 47.1168 19H47.1174ZM43.8895 37.7937C43.8895 38.3216 43.4274 38.7502 42.8568 38.7502H36.1322C35.5652 38.7502 35.1042 38.3263 35.1001 37.8007L34.9881 23.8846C34.984 23.3537 35.4473 22.921 36.0203 22.921H42.8568C43.4268 22.921 43.8895 23.3491 43.8895 23.8776V37.7937Z" fill="#333333"/>
<path d="M13.1687 55.3752L14.4496 48.9709C32.2683 37.0212 34.2052 59.0893 48.1506 47.5618L48.1111 54.8601C48.1111 55.1442 47.6483 55.3746 47.0783 55.3746H13.1687V55.3752Z" fill="#333333"/>
<path d="M14.4237 29.5277C16.0388 23.5999 17.7954 19 19.3563 19L8.5103 19.0058L6.45605 29.5277H0.150635V34.6158C0.150635 35.2011 0.52376 35.6758 0.984126 35.6758H5.25591L1.41089 55.3699H9.03374C9.03374 55.3699 10.686 45.2422 12.8911 35.6758H40.371C40.8314 35.6758 41.2045 35.2011 41.2045 34.6158V29.5277H14.4237Z" fill="#333333"/>
<path d="M64.3927 37H60.9658V39.9745H64.3927V37Z" fill="#333333"/>
<path d="M64.6028 37V48.0075C64.6028 49.7804 64.462 50.9354 64.1805 51.4747C63.8989 52.0139 63.4765 52.2835 62.9134 52.2835C62.3502 52.2835 61.8262 51.8888 61.3402 51.0994L59.3301 53.3532C60.3977 54.4511 61.5534 55 62.796 55C65.9804 55 67.5731 52.8625 67.5731 48.5856V37H64.6019H64.6028Z" fill="#333333"/>
<path d="M80.5423 37L76.9629 43.3466L78.5644 46.3511L84.0894 37H80.5423Z" fill="#333333"/>
<path d="M96.1756 37V46.8234C96.1756 50.5989 94.9818 52.4862 92.5933 52.4862C91.028 52.4862 89.9789 51.6696 89.4402 50.049V54.421C90.3182 54.807 91.3643 55 92.5796 55C96.9578 55 99.1478 52.4959 99.1478 47.4877V37H96.1766H96.1756Z" fill="#333333"/>
<path d="M89.0111 46.8598C89.0111 46.8482 89.0111 46.8365 89.0111 46.8249V37.0015H86.0105V47.4892C86.0105 50.8739 87.0117 53.1123 89.0111 54.2101V46.8608V46.8598Z" fill="#333333"/>
<path d="M111.613 37V46.8234C111.613 50.5989 110.419 52.4862 108.03 52.4862C106.465 52.4862 105.416 51.6696 104.877 50.049V54.421C105.755 54.807 106.801 55 108.017 55C112.395 55 114.585 52.4959 114.585 47.4877V37H111.614H111.613Z" fill="#333333"/>
<path d="M104.448 46.8598C104.448 46.8482 104.448 46.8365 104.448 46.8249V37.0015H101.448V47.4892C101.448 50.8739 102.449 53.1123 104.448 54.2101V46.8608V46.8598Z" fill="#333333"/>
<path d="M117.174 37V55H120.174L120.204 42.1721L129.076 53.8391V49.728L119.446 37H117.174Z" fill="#333333"/>
<path d="M76.7491 43.5589L73.3408 37H69.7878L75.351 46.5635V54.5384V55H78.3506V54.5384V46.5635L76.7491 43.5589Z" fill="#333333"/>
<path d="M129.505 37V53.94V54.8846V55H132.466V54.8846V37H129.505Z" fill="#333333"/>
<path d="M136.252 37V54.5384V55H139.253V54.5384V37H136.252Z" fill="#333333"/>
</g>
<defs>
<clipPath id="clip0_435_953">
<rect width="139" height="37" fill="white" transform="translate(0 18)"/>
</clipPath>
</defs>
</svg>
