<svg width="1440" height="665" viewBox="0 0 1440 665" fill="none" xmlns="http://www.w3.org/2000/svg">
<path fill-rule="evenodd" clip-rule="evenodd" d="M197.571 345.853C196.837 343.989 195.363 342.511 193.59 341.645C191.856 340.708 189.797 340.37 187.855 340.856L144.817 351.65L128.754 310.857C127.33 307.242 123.121 305.077 119.353 306.022C115.584 306.967 113.683 310.664 115.107 314.279L133.657 361.391C134.862 364.451 138.063 366.471 141.304 366.446C142.166 366.533 143.044 366.478 143.899 366.264L186.415 355.602L202.475 396.386C203.312 398.513 205.114 400.138 207.223 400.923C209.088 402.182 211.458 402.702 213.675 402.146L262.787 389.83C266.555 388.885 268.456 385.188 267.033 381.573C265.609 377.958 261.4 375.794 257.632 376.739L214.038 387.671L197.571 345.853Z" fill="#D2EBEE"/>
<path fill-rule="evenodd" clip-rule="evenodd" d="M136.813 30.5208L-24.1524 165.587C-28.049 168.857 -28.5573 174.666 -25.2876 178.563C-22.0179 182.46 -16.2084 182.968 -12.3117 179.698L148.654 44.6319C152.551 41.3622 153.059 35.5527 149.789 31.656C146.519 27.7593 140.71 27.2511 136.813 30.5208ZM-26.0807 163.289C-31.2466 167.624 -31.9204 175.325 -27.5857 180.491C-23.251 185.657 -15.5492 186.331 -10.3833 181.996L150.582 46.9301C155.748 42.5954 156.422 34.8936 152.087 29.7277C147.753 24.5618 140.051 23.8879 134.885 28.2227L-26.0807 163.289ZM182.347 5.36199C186.681 10.5279 186.008 18.2297 180.842 22.5644C175.676 26.8991 167.974 26.2253 163.639 21.0594C159.304 15.8935 159.978 8.19169 165.144 3.85698C170.31 -0.477735 178.012 0.196074 182.347 5.36199ZM91.7565 158.545C96.0912 163.711 95.4173 171.413 90.2514 175.747C85.0855 180.082 77.3837 179.408 73.049 174.242C68.7143 169.076 69.3881 161.375 74.554 157.04C79.72 152.705 87.4217 153.379 91.7565 158.545ZM-115.638 316.63C-120.804 320.965 -121.478 328.667 -117.143 333.833C-112.808 338.998 -105.107 339.672 -99.9406 335.338L61.0249 200.271C66.1908 195.937 66.8647 188.235 62.5299 183.069C58.1952 177.903 50.4935 177.229 45.3275 181.564L-115.638 316.63ZM104.174 132.186C99.0083 136.521 98.3345 144.222 102.669 149.388C107.004 154.554 114.706 155.228 119.872 150.893L269.847 25.0489C275.013 20.7142 275.687 13.0124 271.352 7.84652C267.017 2.68061 259.316 2.0068 254.15 6.34151L104.174 132.186Z" fill="#C2E3DC"/>
<path d="M166.263 627.252C166.263 641.863 154.2 653.752 139.263 653.752C124.326 653.752 112.263 641.863 112.263 627.252C112.263 612.642 124.326 600.752 139.263 600.752C154.2 600.752 166.263 612.642 166.263 627.252Z" stroke="#B3D6CB" stroke-width="3"/>
<mask id="mask0_170_372" style="mask-type:alpha" maskUnits="userSpaceOnUse" x="34" y="490" width="105" height="106">
<ellipse cx="86.0552" cy="542.5" rx="52.0552" ry="52.5001" fill="#ADD0E6"/>
</mask>
<g mask="url(#mask0_170_372)">
<circle cx="35.3347" cy="491.335" r="1.33475" fill="#ADD0E6"/>
<circle cx="40.6737" cy="491.335" r="1.33475" fill="#ADD0E6"/>
<circle cx="46.0128" cy="491.335" r="1.33475" fill="#ADD0E6"/>
<circle cx="51.3517" cy="491.335" r="1.33475" fill="#ADD0E6"/>
<circle cx="56.6908" cy="491.335" r="1.33475" fill="#ADD0E6"/>
<circle cx="62.0297" cy="491.335" r="1.33475" fill="#ADD0E6"/>
<circle cx="67.3688" cy="491.335" r="1.33475" fill="#ADD0E6"/>
<circle cx="72.7077" cy="491.335" r="1.33475" fill="#ADD0E6"/>
<circle cx="78.0468" cy="491.335" r="1.33475" fill="#ADD0E6"/>
<circle cx="83.3857" cy="491.335" r="1.33475" fill="#ADD0E6"/>
<circle cx="88.7248" cy="491.335" r="1.33475" fill="#ADD0E6"/>
<circle cx="94.0638" cy="491.335" r="1.33475" fill="#ADD0E6"/>
<circle cx="99.4028" cy="491.335" r="1.33475" fill="#ADD0E6"/>
<circle cx="104.742" cy="491.335" r="1.33475" fill="#ADD0E6"/>
<circle cx="110.081" cy="491.335" r="1.33475" fill="#ADD0E6"/>
<circle cx="115.42" cy="491.335" r="1.33475" fill="#ADD0E6"/>
<circle cx="120.759" cy="491.335" r="1.33475" fill="#ADD0E6"/>
<circle cx="126.098" cy="491.335" r="1.33475" fill="#ADD0E6"/>
<circle cx="131.437" cy="491.335" r="1.33475" fill="#ADD0E6"/>
<circle cx="136.776" cy="491.335" r="1.33475" fill="#ADD0E6"/>
<circle cx="35.3347" cy="496.674" r="1.33475" fill="#ADD0E6"/>
<circle cx="40.6737" cy="496.674" r="1.33475" fill="#ADD0E6"/>
<circle cx="46.0128" cy="496.674" r="1.33475" fill="#ADD0E6"/>
<circle cx="51.3517" cy="496.674" r="1.33475" fill="#ADD0E6"/>
<circle cx="56.6908" cy="496.674" r="1.33475" fill="#ADD0E6"/>
<circle cx="62.0297" cy="496.674" r="1.33475" fill="#ADD0E6"/>
<circle cx="67.3688" cy="496.674" r="1.33475" fill="#ADD0E6"/>
<circle cx="72.7077" cy="496.674" r="1.33475" fill="#ADD0E6"/>
<circle cx="78.0468" cy="496.674" r="1.33475" fill="#ADD0E6"/>
<circle cx="83.3857" cy="496.674" r="1.33475" fill="#ADD0E6"/>
<circle cx="88.7248" cy="496.674" r="1.33475" fill="#ADD0E6"/>
<circle cx="94.0638" cy="496.674" r="1.33475" fill="#ADD0E6"/>
<circle cx="99.4028" cy="496.674" r="1.33475" fill="#ADD0E6"/>
<circle cx="104.742" cy="496.674" r="1.33475" fill="#ADD0E6"/>
<circle cx="110.081" cy="496.674" r="1.33475" fill="#ADD0E6"/>
<circle cx="115.42" cy="496.674" r="1.33475" fill="#ADD0E6"/>
<circle cx="120.759" cy="496.674" r="1.33475" fill="#ADD0E6"/>
<circle cx="126.098" cy="496.674" r="1.33475" fill="#ADD0E6"/>
<circle cx="131.437" cy="496.674" r="1.33475" fill="#ADD0E6"/>
<circle cx="136.776" cy="496.674" r="1.33475" fill="#ADD0E6"/>
<circle cx="35.3347" cy="502.013" r="1.33475" fill="#ADD0E6"/>
<circle cx="40.6737" cy="502.013" r="1.33475" fill="#ADD0E6"/>
<circle cx="46.0128" cy="502.013" r="1.33475" fill="#ADD0E6"/>
<circle cx="51.3517" cy="502.013" r="1.33475" fill="#ADD0E6"/>
<circle cx="56.6908" cy="502.013" r="1.33475" fill="#ADD0E6"/>
<circle cx="62.0297" cy="502.013" r="1.33475" fill="#ADD0E6"/>
<circle cx="67.3688" cy="502.013" r="1.33475" fill="#ADD0E6"/>
<circle cx="72.7077" cy="502.013" r="1.33475" fill="#ADD0E6"/>
<circle cx="78.0468" cy="502.013" r="1.33475" fill="#ADD0E6"/>
<circle cx="83.3857" cy="502.013" r="1.33475" fill="#ADD0E6"/>
<circle cx="88.7248" cy="502.013" r="1.33475" fill="#ADD0E6"/>
<circle cx="94.0638" cy="502.013" r="1.33475" fill="#ADD0E6"/>
<circle cx="99.4028" cy="502.013" r="1.33475" fill="#ADD0E6"/>
<circle cx="104.742" cy="502.013" r="1.33475" fill="#ADD0E6"/>
<circle cx="110.081" cy="502.013" r="1.33475" fill="#ADD0E6"/>
<circle cx="115.42" cy="502.013" r="1.33475" fill="#ADD0E6"/>
<circle cx="120.759" cy="502.013" r="1.33475" fill="#ADD0E6"/>
<circle cx="126.098" cy="502.013" r="1.33475" fill="#ADD0E6"/>
<circle cx="131.437" cy="502.013" r="1.33475" fill="#ADD0E6"/>
<circle cx="136.776" cy="502.013" r="1.33475" fill="#ADD0E6"/>
<circle cx="35.3347" cy="507.352" r="1.33475" fill="#ADD0E6"/>
<circle cx="40.6737" cy="507.352" r="1.33475" fill="#ADD0E6"/>
<circle cx="46.0128" cy="507.352" r="1.33475" fill="#ADD0E6"/>
<circle cx="51.3517" cy="507.352" r="1.33475" fill="#ADD0E6"/>
<circle cx="56.6908" cy="507.352" r="1.33475" fill="#ADD0E6"/>
<circle cx="62.0297" cy="507.352" r="1.33475" fill="#ADD0E6"/>
<circle cx="67.3688" cy="507.352" r="1.33475" fill="#ADD0E6"/>
<circle cx="72.7077" cy="507.352" r="1.33475" fill="#ADD0E6"/>
<circle cx="78.0468" cy="507.352" r="1.33475" fill="#ADD0E6"/>
<circle cx="83.3857" cy="507.352" r="1.33475" fill="#ADD0E6"/>
<circle cx="88.7248" cy="507.352" r="1.33475" fill="#ADD0E6"/>
<circle cx="94.0638" cy="507.352" r="1.33475" fill="#ADD0E6"/>
<circle cx="99.4028" cy="507.352" r="1.33475" fill="#ADD0E6"/>
<circle cx="104.742" cy="507.352" r="1.33475" fill="#ADD0E6"/>
<circle cx="110.081" cy="507.352" r="1.33475" fill="#ADD0E6"/>
<circle cx="115.42" cy="507.352" r="1.33475" fill="#ADD0E6"/>
<circle cx="120.759" cy="507.352" r="1.33475" fill="#ADD0E6"/>
<circle cx="126.098" cy="507.352" r="1.33475" fill="#ADD0E6"/>
<circle cx="131.437" cy="507.352" r="1.33475" fill="#ADD0E6"/>
<circle cx="136.776" cy="507.352" r="1.33475" fill="#ADD0E6"/>
<circle cx="35.3347" cy="512.691" r="1.33475" fill="#ADD0E6"/>
<circle cx="40.6737" cy="512.691" r="1.33475" fill="#ADD0E6"/>
<circle cx="46.0128" cy="512.691" r="1.33475" fill="#ADD0E6"/>
<circle cx="51.3517" cy="512.691" r="1.33475" fill="#ADD0E6"/>
<circle cx="56.6908" cy="512.691" r="1.33475" fill="#ADD0E6"/>
<circle cx="62.0297" cy="512.691" r="1.33475" fill="#ADD0E6"/>
<circle cx="67.3688" cy="512.691" r="1.33475" fill="#ADD0E6"/>
<circle cx="72.7077" cy="512.691" r="1.33475" fill="#ADD0E6"/>
<circle cx="78.0468" cy="512.691" r="1.33475" fill="#ADD0E6"/>
<circle cx="83.3857" cy="512.691" r="1.33475" fill="#ADD0E6"/>
<circle cx="88.7248" cy="512.691" r="1.33475" fill="#ADD0E6"/>
<circle cx="94.0638" cy="512.691" r="1.33475" fill="#ADD0E6"/>
<circle cx="99.4028" cy="512.691" r="1.33475" fill="#ADD0E6"/>
<circle cx="104.742" cy="512.691" r="1.33475" fill="#ADD0E6"/>
<circle cx="110.081" cy="512.691" r="1.33475" fill="#ADD0E6"/>
<circle cx="115.42" cy="512.691" r="1.33475" fill="#ADD0E6"/>
<circle cx="120.759" cy="512.691" r="1.33475" fill="#ADD0E6"/>
<circle cx="126.098" cy="512.691" r="1.33475" fill="#ADD0E6"/>
<circle cx="131.437" cy="512.691" r="1.33475" fill="#ADD0E6"/>
<circle cx="136.776" cy="512.691" r="1.33475" fill="#ADD0E6"/>
<circle cx="35.3347" cy="518.03" r="1.33475" fill="#ADD0E6"/>
<circle cx="40.6737" cy="518.03" r="1.33475" fill="#ADD0E6"/>
<circle cx="46.0128" cy="518.03" r="1.33475" fill="#ADD0E6"/>
<circle cx="51.3517" cy="518.03" r="1.33475" fill="#ADD0E6"/>
<circle cx="56.6908" cy="518.03" r="1.33475" fill="#ADD0E6"/>
<circle cx="62.0297" cy="518.03" r="1.33475" fill="#ADD0E6"/>
<circle cx="67.3688" cy="518.03" r="1.33475" fill="#ADD0E6"/>
<circle cx="72.7077" cy="518.03" r="1.33475" fill="#ADD0E6"/>
<circle cx="78.0468" cy="518.03" r="1.33475" fill="#ADD0E6"/>
<circle cx="83.3857" cy="518.03" r="1.33475" fill="#ADD0E6"/>
<circle cx="88.7248" cy="518.03" r="1.33475" fill="#ADD0E6"/>
<circle cx="94.0638" cy="518.03" r="1.33475" fill="#ADD0E6"/>
<circle cx="99.4028" cy="518.03" r="1.33475" fill="#ADD0E6"/>
<circle cx="104.742" cy="518.03" r="1.33475" fill="#ADD0E6"/>
<circle cx="110.081" cy="518.03" r="1.33475" fill="#ADD0E6"/>
<circle cx="115.42" cy="518.03" r="1.33475" fill="#ADD0E6"/>
<circle cx="120.759" cy="518.03" r="1.33475" fill="#ADD0E6"/>
<circle cx="126.098" cy="518.03" r="1.33475" fill="#ADD0E6"/>
<circle cx="131.437" cy="518.03" r="1.33475" fill="#ADD0E6"/>
<circle cx="136.776" cy="518.03" r="1.33475" fill="#ADD0E6"/>
<circle cx="35.3347" cy="523.369" r="1.33475" fill="#ADD0E6"/>
<circle cx="40.6737" cy="523.369" r="1.33475" fill="#ADD0E6"/>
<circle cx="46.0128" cy="523.369" r="1.33475" fill="#ADD0E6"/>
<circle cx="51.3517" cy="523.369" r="1.33475" fill="#ADD0E6"/>
<circle cx="56.6908" cy="523.369" r="1.33475" fill="#ADD0E6"/>
<circle cx="62.0297" cy="523.369" r="1.33475" fill="#ADD0E6"/>
<circle cx="67.3688" cy="523.369" r="1.33475" fill="#ADD0E6"/>
<circle cx="72.7077" cy="523.369" r="1.33475" fill="#ADD0E6"/>
<circle cx="78.0468" cy="523.369" r="1.33475" fill="#ADD0E6"/>
<circle cx="83.3857" cy="523.369" r="1.33475" fill="#ADD0E6"/>
<circle cx="88.7248" cy="523.369" r="1.33475" fill="#ADD0E6"/>
<circle cx="94.0638" cy="523.369" r="1.33475" fill="#ADD0E6"/>
<circle cx="99.4028" cy="523.369" r="1.33475" fill="#ADD0E6"/>
<circle cx="104.742" cy="523.369" r="1.33475" fill="#ADD0E6"/>
<circle cx="110.081" cy="523.369" r="1.33475" fill="#ADD0E6"/>
<circle cx="115.42" cy="523.369" r="1.33475" fill="#ADD0E6"/>
<circle cx="120.759" cy="523.369" r="1.33475" fill="#ADD0E6"/>
<circle cx="126.098" cy="523.369" r="1.33475" fill="#ADD0E6"/>
<circle cx="131.437" cy="523.369" r="1.33475" fill="#ADD0E6"/>
<circle cx="136.776" cy="523.369" r="1.33475" fill="#ADD0E6"/>
<circle cx="35.3347" cy="528.708" r="1.33475" fill="#ADD0E6"/>
<circle cx="40.6737" cy="528.708" r="1.33475" fill="#ADD0E6"/>
<circle cx="46.0128" cy="528.708" r="1.33475" fill="#ADD0E6"/>
<circle cx="51.3517" cy="528.708" r="1.33475" fill="#ADD0E6"/>
<circle cx="56.6908" cy="528.708" r="1.33475" fill="#ADD0E6"/>
<circle cx="62.0297" cy="528.708" r="1.33475" fill="#ADD0E6"/>
<circle cx="67.3688" cy="528.708" r="1.33475" fill="#ADD0E6"/>
<circle cx="72.7077" cy="528.708" r="1.33475" fill="#ADD0E6"/>
<circle cx="78.0468" cy="528.708" r="1.33475" fill="#ADD0E6"/>
<circle cx="83.3857" cy="528.708" r="1.33475" fill="#ADD0E6"/>
<circle cx="88.7248" cy="528.708" r="1.33475" fill="#ADD0E6"/>
<circle cx="94.0638" cy="528.708" r="1.33475" fill="#ADD0E6"/>
<circle cx="99.4028" cy="528.708" r="1.33475" fill="#ADD0E6"/>
<circle cx="104.742" cy="528.708" r="1.33475" fill="#ADD0E6"/>
<circle cx="110.081" cy="528.708" r="1.33475" fill="#ADD0E6"/>
<circle cx="115.42" cy="528.708" r="1.33475" fill="#ADD0E6"/>
<circle cx="120.759" cy="528.708" r="1.33475" fill="#ADD0E6"/>
<circle cx="126.098" cy="528.708" r="1.33475" fill="#ADD0E6"/>
<circle cx="131.437" cy="528.708" r="1.33475" fill="#ADD0E6"/>
<circle cx="136.776" cy="528.708" r="1.33475" fill="#ADD0E6"/>
<circle cx="35.3347" cy="534.047" r="1.33475" fill="#ADD0E6"/>
<circle cx="40.6737" cy="534.047" r="1.33475" fill="#ADD0E6"/>
<circle cx="46.0128" cy="534.047" r="1.33475" fill="#ADD0E6"/>
<circle cx="51.3517" cy="534.047" r="1.33475" fill="#ADD0E6"/>
<circle cx="56.6908" cy="534.047" r="1.33475" fill="#ADD0E6"/>
<circle cx="62.0297" cy="534.047" r="1.33475" fill="#ADD0E6"/>
<circle cx="67.3688" cy="534.047" r="1.33475" fill="#ADD0E6"/>
<circle cx="72.7077" cy="534.047" r="1.33475" fill="#ADD0E6"/>
<circle cx="78.0468" cy="534.047" r="1.33475" fill="#ADD0E6"/>
<circle cx="83.3857" cy="534.047" r="1.33475" fill="#ADD0E6"/>
<circle cx="88.7248" cy="534.047" r="1.33475" fill="#ADD0E6"/>
<circle cx="94.0638" cy="534.047" r="1.33475" fill="#ADD0E6"/>
<circle cx="99.4028" cy="534.047" r="1.33475" fill="#ADD0E6"/>
<circle cx="104.742" cy="534.047" r="1.33475" fill="#ADD0E6"/>
<circle cx="110.081" cy="534.047" r="1.33475" fill="#ADD0E6"/>
<circle cx="115.42" cy="534.047" r="1.33475" fill="#ADD0E6"/>
<circle cx="120.759" cy="534.047" r="1.33475" fill="#ADD0E6"/>
<circle cx="126.098" cy="534.047" r="1.33475" fill="#ADD0E6"/>
<circle cx="131.437" cy="534.047" r="1.33475" fill="#ADD0E6"/>
<circle cx="136.776" cy="534.047" r="1.33475" fill="#ADD0E6"/>
<circle cx="35.3347" cy="539.386" r="1.33475" fill="#ADD0E6"/>
<circle cx="40.6737" cy="539.386" r="1.33475" fill="#ADD0E6"/>
<circle cx="46.0128" cy="539.386" r="1.33475" fill="#ADD0E6"/>
<circle cx="51.3517" cy="539.386" r="1.33475" fill="#ADD0E6"/>
<circle cx="56.6908" cy="539.386" r="1.33475" fill="#ADD0E6"/>
<circle cx="62.0297" cy="539.386" r="1.33475" fill="#ADD0E6"/>
<circle cx="67.3688" cy="539.386" r="1.33475" fill="#ADD0E6"/>
<circle cx="72.7077" cy="539.386" r="1.33475" fill="#ADD0E6"/>
<circle cx="78.0468" cy="539.386" r="1.33475" fill="#ADD0E6"/>
<circle cx="83.3857" cy="539.386" r="1.33475" fill="#ADD0E6"/>
<circle cx="88.7248" cy="539.386" r="1.33475" fill="#ADD0E6"/>
<circle cx="94.0638" cy="539.386" r="1.33475" fill="#ADD0E6"/>
<circle cx="99.4028" cy="539.386" r="1.33475" fill="#ADD0E6"/>
<circle cx="104.742" cy="539.386" r="1.33475" fill="#ADD0E6"/>
<circle cx="110.081" cy="539.386" r="1.33475" fill="#ADD0E6"/>
<circle cx="115.42" cy="539.386" r="1.33475" fill="#ADD0E6"/>
<circle cx="120.759" cy="539.386" r="1.33475" fill="#ADD0E6"/>
<circle cx="126.098" cy="539.386" r="1.33475" fill="#ADD0E6"/>
<circle cx="131.437" cy="539.386" r="1.33475" fill="#ADD0E6"/>
<circle cx="136.776" cy="539.386" r="1.33475" fill="#ADD0E6"/>
<circle cx="35.3347" cy="544.725" r="1.33475" fill="#ADD0E6"/>
<circle cx="40.6737" cy="544.725" r="1.33475" fill="#ADD0E6"/>
<circle cx="46.0128" cy="544.725" r="1.33475" fill="#ADD0E6"/>
<circle cx="51.3517" cy="544.725" r="1.33475" fill="#ADD0E6"/>
<circle cx="56.6908" cy="544.725" r="1.33475" fill="#ADD0E6"/>
<circle cx="62.0297" cy="544.725" r="1.33475" fill="#ADD0E6"/>
<circle cx="67.3688" cy="544.725" r="1.33475" fill="#ADD0E6"/>
<circle cx="72.7077" cy="544.725" r="1.33475" fill="#ADD0E6"/>
<circle cx="78.0468" cy="544.725" r="1.33475" fill="#ADD0E6"/>
<circle cx="83.3857" cy="544.725" r="1.33475" fill="#ADD0E6"/>
<circle cx="88.7248" cy="544.725" r="1.33475" fill="#ADD0E6"/>
<circle cx="94.0638" cy="544.725" r="1.33475" fill="#ADD0E6"/>
<circle cx="99.4028" cy="544.725" r="1.33475" fill="#ADD0E6"/>
<circle cx="104.742" cy="544.725" r="1.33475" fill="#ADD0E6"/>
<circle cx="110.081" cy="544.725" r="1.33475" fill="#ADD0E6"/>
<circle cx="115.42" cy="544.725" r="1.33475" fill="#ADD0E6"/>
<circle cx="120.759" cy="544.725" r="1.33475" fill="#ADD0E6"/>
<circle cx="126.098" cy="544.725" r="1.33475" fill="#ADD0E6"/>
<circle cx="131.437" cy="544.725" r="1.33475" fill="#ADD0E6"/>
<circle cx="136.776" cy="544.725" r="1.33475" fill="#ADD0E6"/>
<circle cx="35.3347" cy="550.064" r="1.33475" fill="#ADD0E6"/>
<circle cx="40.6737" cy="550.064" r="1.33475" fill="#ADD0E6"/>
<circle cx="46.0128" cy="550.064" r="1.33475" fill="#ADD0E6"/>
<circle cx="51.3517" cy="550.064" r="1.33475" fill="#ADD0E6"/>
<circle cx="56.6908" cy="550.064" r="1.33475" fill="#ADD0E6"/>
<circle cx="62.0297" cy="550.064" r="1.33475" fill="#ADD0E6"/>
<circle cx="67.3688" cy="550.064" r="1.33475" fill="#ADD0E6"/>
<circle cx="72.7077" cy="550.064" r="1.33475" fill="#ADD0E6"/>
<circle cx="78.0468" cy="550.064" r="1.33475" fill="#ADD0E6"/>
<circle cx="83.3857" cy="550.064" r="1.33475" fill="#ADD0E6"/>
<circle cx="88.7248" cy="550.064" r="1.33475" fill="#ADD0E6"/>
<circle cx="94.0638" cy="550.064" r="1.33475" fill="#ADD0E6"/>
<circle cx="99.4028" cy="550.064" r="1.33475" fill="#ADD0E6"/>
<circle cx="104.742" cy="550.064" r="1.33475" fill="#ADD0E6"/>
<circle cx="110.081" cy="550.064" r="1.33475" fill="#ADD0E6"/>
<circle cx="115.42" cy="550.064" r="1.33475" fill="#ADD0E6"/>
<circle cx="120.759" cy="550.064" r="1.33475" fill="#ADD0E6"/>
<circle cx="126.098" cy="550.064" r="1.33475" fill="#ADD0E6"/>
<circle cx="131.437" cy="550.064" r="1.33475" fill="#ADD0E6"/>
<circle cx="136.776" cy="550.064" r="1.33475" fill="#ADD0E6"/>
<circle cx="35.3347" cy="555.403" r="1.33475" fill="#ADD0E6"/>
<circle cx="40.6737" cy="555.403" r="1.33475" fill="#ADD0E6"/>
<circle cx="46.0128" cy="555.403" r="1.33475" fill="#ADD0E6"/>
<circle cx="51.3517" cy="555.403" r="1.33475" fill="#ADD0E6"/>
<circle cx="56.6908" cy="555.403" r="1.33475" fill="#ADD0E6"/>
<circle cx="62.0297" cy="555.403" r="1.33475" fill="#ADD0E6"/>
<circle cx="67.3688" cy="555.403" r="1.33475" fill="#ADD0E6"/>
<circle cx="72.7077" cy="555.403" r="1.33475" fill="#ADD0E6"/>
<circle cx="78.0468" cy="555.403" r="1.33475" fill="#ADD0E6"/>
<circle cx="83.3857" cy="555.403" r="1.33475" fill="#ADD0E6"/>
<circle cx="88.7248" cy="555.403" r="1.33475" fill="#ADD0E6"/>
<circle cx="94.0638" cy="555.403" r="1.33475" fill="#ADD0E6"/>
<circle cx="99.4028" cy="555.403" r="1.33475" fill="#ADD0E6"/>
<circle cx="104.742" cy="555.403" r="1.33475" fill="#ADD0E6"/>
<circle cx="110.081" cy="555.403" r="1.33475" fill="#ADD0E6"/>
<circle cx="115.42" cy="555.403" r="1.33475" fill="#ADD0E6"/>
<circle cx="120.759" cy="555.403" r="1.33475" fill="#ADD0E6"/>
<circle cx="126.098" cy="555.403" r="1.33475" fill="#ADD0E6"/>
<circle cx="131.437" cy="555.403" r="1.33475" fill="#ADD0E6"/>
<circle cx="136.776" cy="555.403" r="1.33475" fill="#ADD0E6"/>
<circle cx="35.3347" cy="560.742" r="1.33475" fill="#ADD0E6"/>
<circle cx="40.6737" cy="560.742" r="1.33475" fill="#ADD0E6"/>
<circle cx="46.0128" cy="560.742" r="1.33475" fill="#ADD0E6"/>
<circle cx="51.3517" cy="560.742" r="1.33475" fill="#ADD0E6"/>
<circle cx="56.6908" cy="560.742" r="1.33475" fill="#ADD0E6"/>
<circle cx="62.0297" cy="560.742" r="1.33475" fill="#ADD0E6"/>
<circle cx="67.3688" cy="560.742" r="1.33475" fill="#ADD0E6"/>
<circle cx="72.7077" cy="560.742" r="1.33475" fill="#ADD0E6"/>
<circle cx="78.0468" cy="560.742" r="1.33475" fill="#ADD0E6"/>
<circle cx="83.3857" cy="560.742" r="1.33475" fill="#ADD0E6"/>
<circle cx="88.7248" cy="560.742" r="1.33475" fill="#ADD0E6"/>
<circle cx="94.0638" cy="560.742" r="1.33475" fill="#ADD0E6"/>
<circle cx="99.4028" cy="560.742" r="1.33475" fill="#ADD0E6"/>
<circle cx="104.742" cy="560.742" r="1.33475" fill="#ADD0E6"/>
<circle cx="110.081" cy="560.742" r="1.33475" fill="#ADD0E6"/>
<circle cx="115.42" cy="560.742" r="1.33475" fill="#ADD0E6"/>
<circle cx="120.759" cy="560.742" r="1.33475" fill="#ADD0E6"/>
<circle cx="126.098" cy="560.742" r="1.33475" fill="#ADD0E6"/>
<circle cx="131.437" cy="560.742" r="1.33475" fill="#ADD0E6"/>
<circle cx="136.776" cy="560.742" r="1.33475" fill="#ADD0E6"/>
<circle cx="35.3347" cy="566.081" r="1.33475" fill="#ADD0E6"/>
<circle cx="40.6737" cy="566.081" r="1.33475" fill="#ADD0E6"/>
<circle cx="46.0128" cy="566.081" r="1.33475" fill="#ADD0E6"/>
<circle cx="51.3517" cy="566.081" r="1.33475" fill="#ADD0E6"/>
<circle cx="56.6908" cy="566.081" r="1.33475" fill="#ADD0E6"/>
<circle cx="62.0297" cy="566.081" r="1.33475" fill="#ADD0E6"/>
<circle cx="67.3688" cy="566.081" r="1.33475" fill="#ADD0E6"/>
<circle cx="72.7077" cy="566.081" r="1.33475" fill="#ADD0E6"/>
<circle cx="78.0468" cy="566.081" r="1.33475" fill="#ADD0E6"/>
<circle cx="83.3857" cy="566.081" r="1.33475" fill="#ADD0E6"/>
<circle cx="88.7248" cy="566.081" r="1.33475" fill="#ADD0E6"/>
<circle cx="94.0638" cy="566.081" r="1.33475" fill="#ADD0E6"/>
<circle cx="99.4028" cy="566.081" r="1.33475" fill="#ADD0E6"/>
<circle cx="104.742" cy="566.081" r="1.33475" fill="#ADD0E6"/>
<circle cx="110.081" cy="566.081" r="1.33475" fill="#ADD0E6"/>
<circle cx="115.42" cy="566.081" r="1.33475" fill="#ADD0E6"/>
<circle cx="120.759" cy="566.081" r="1.33475" fill="#ADD0E6"/>
<circle cx="126.098" cy="566.081" r="1.33475" fill="#ADD0E6"/>
<circle cx="131.437" cy="566.081" r="1.33475" fill="#ADD0E6"/>
<circle cx="136.776" cy="566.081" r="1.33475" fill="#ADD0E6"/>
<circle cx="35.3347" cy="571.42" r="1.33475" fill="#ADD0E6"/>
<circle cx="40.6737" cy="571.42" r="1.33475" fill="#ADD0E6"/>
<circle cx="46.0128" cy="571.42" r="1.33475" fill="#ADD0E6"/>
<circle cx="51.3517" cy="571.42" r="1.33475" fill="#ADD0E6"/>
<circle cx="56.6908" cy="571.42" r="1.33475" fill="#ADD0E6"/>
<circle cx="62.0297" cy="571.42" r="1.33475" fill="#ADD0E6"/>
<circle cx="67.3688" cy="571.42" r="1.33475" fill="#ADD0E6"/>
<circle cx="72.7077" cy="571.42" r="1.33475" fill="#ADD0E6"/>
<circle cx="78.0468" cy="571.42" r="1.33475" fill="#ADD0E6"/>
<circle cx="83.3857" cy="571.42" r="1.33475" fill="#ADD0E6"/>
<circle cx="88.7248" cy="571.42" r="1.33475" fill="#ADD0E6"/>
<circle cx="94.0638" cy="571.42" r="1.33475" fill="#ADD0E6"/>
<circle cx="99.4028" cy="571.42" r="1.33475" fill="#ADD0E6"/>
<circle cx="104.742" cy="571.42" r="1.33475" fill="#ADD0E6"/>
<circle cx="110.081" cy="571.42" r="1.33475" fill="#ADD0E6"/>
<circle cx="115.42" cy="571.42" r="1.33475" fill="#ADD0E6"/>
<circle cx="120.759" cy="571.42" r="1.33475" fill="#ADD0E6"/>
<circle cx="126.098" cy="571.42" r="1.33475" fill="#ADD0E6"/>
<circle cx="131.437" cy="571.42" r="1.33475" fill="#ADD0E6"/>
<circle cx="136.776" cy="571.42" r="1.33475" fill="#ADD0E6"/>
<circle cx="35.3347" cy="576.759" r="1.33475" fill="#ADD0E6"/>
<circle cx="40.6737" cy="576.759" r="1.33475" fill="#ADD0E6"/>
<circle cx="46.0128" cy="576.759" r="1.33475" fill="#ADD0E6"/>
<circle cx="51.3517" cy="576.759" r="1.33475" fill="#ADD0E6"/>
<circle cx="56.6908" cy="576.759" r="1.33475" fill="#ADD0E6"/>
<circle cx="62.0297" cy="576.759" r="1.33475" fill="#ADD0E6"/>
<circle cx="67.3688" cy="576.759" r="1.33475" fill="#ADD0E6"/>
<circle cx="72.7077" cy="576.759" r="1.33475" fill="#ADD0E6"/>
<circle cx="78.0468" cy="576.759" r="1.33475" fill="#ADD0E6"/>
<circle cx="83.3857" cy="576.759" r="1.33475" fill="#ADD0E6"/>
<circle cx="88.7248" cy="576.759" r="1.33475" fill="#ADD0E6"/>
<circle cx="94.0638" cy="576.759" r="1.33475" fill="#ADD0E6"/>
<circle cx="99.4028" cy="576.759" r="1.33475" fill="#ADD0E6"/>
<circle cx="104.742" cy="576.759" r="1.33475" fill="#ADD0E6"/>
<circle cx="110.081" cy="576.759" r="1.33475" fill="#ADD0E6"/>
<circle cx="115.42" cy="576.759" r="1.33475" fill="#ADD0E6"/>
<circle cx="120.759" cy="576.759" r="1.33475" fill="#ADD0E6"/>
<circle cx="126.098" cy="576.759" r="1.33475" fill="#ADD0E6"/>
<circle cx="131.437" cy="576.759" r="1.33475" fill="#ADD0E6"/>
<circle cx="136.776" cy="576.759" r="1.33475" fill="#ADD0E6"/>
<circle cx="35.3347" cy="582.098" r="1.33475" fill="#ADD0E6"/>
<circle cx="40.6737" cy="582.098" r="1.33475" fill="#ADD0E6"/>
<circle cx="46.0128" cy="582.098" r="1.33475" fill="#ADD0E6"/>
<circle cx="51.3517" cy="582.098" r="1.33475" fill="#ADD0E6"/>
<circle cx="56.6908" cy="582.098" r="1.33475" fill="#ADD0E6"/>
<circle cx="62.0297" cy="582.098" r="1.33475" fill="#ADD0E6"/>
<circle cx="67.3688" cy="582.098" r="1.33475" fill="#ADD0E6"/>
<circle cx="72.7077" cy="582.098" r="1.33475" fill="#ADD0E6"/>
<circle cx="78.0468" cy="582.098" r="1.33475" fill="#ADD0E6"/>
<circle cx="83.3857" cy="582.098" r="1.33475" fill="#ADD0E6"/>
<circle cx="88.7248" cy="582.098" r="1.33475" fill="#ADD0E6"/>
<circle cx="94.0638" cy="582.098" r="1.33475" fill="#ADD0E6"/>
<circle cx="99.4028" cy="582.098" r="1.33475" fill="#ADD0E6"/>
<circle cx="104.742" cy="582.098" r="1.33475" fill="#ADD0E6"/>
<circle cx="110.081" cy="582.098" r="1.33475" fill="#ADD0E6"/>
<circle cx="115.42" cy="582.098" r="1.33475" fill="#ADD0E6"/>
<circle cx="120.759" cy="582.098" r="1.33475" fill="#ADD0E6"/>
<circle cx="126.098" cy="582.098" r="1.33475" fill="#ADD0E6"/>
<circle cx="131.437" cy="582.098" r="1.33475" fill="#ADD0E6"/>
<circle cx="136.776" cy="582.098" r="1.33475" fill="#ADD0E6"/>
<circle cx="35.3347" cy="587.437" r="1.33475" fill="#ADD0E6"/>
<circle cx="40.6737" cy="587.437" r="1.33475" fill="#ADD0E6"/>
<circle cx="46.0128" cy="587.437" r="1.33475" fill="#ADD0E6"/>
<circle cx="51.3517" cy="587.437" r="1.33475" fill="#ADD0E6"/>
<circle cx="56.6908" cy="587.437" r="1.33475" fill="#ADD0E6"/>
<circle cx="62.0297" cy="587.437" r="1.33475" fill="#ADD0E6"/>
<circle cx="67.3688" cy="587.437" r="1.33475" fill="#ADD0E6"/>
<circle cx="72.7077" cy="587.437" r="1.33475" fill="#ADD0E6"/>
<circle cx="78.0468" cy="587.437" r="1.33475" fill="#ADD0E6"/>
<circle cx="83.3857" cy="587.437" r="1.33475" fill="#ADD0E6"/>
<circle cx="88.7248" cy="587.437" r="1.33475" fill="#ADD0E6"/>
<circle cx="94.0638" cy="587.437" r="1.33475" fill="#ADD0E6"/>
<circle cx="99.4028" cy="587.437" r="1.33475" fill="#ADD0E6"/>
<circle cx="104.742" cy="587.437" r="1.33475" fill="#ADD0E6"/>
<circle cx="110.081" cy="587.437" r="1.33475" fill="#ADD0E6"/>
<circle cx="115.42" cy="587.437" r="1.33475" fill="#ADD0E6"/>
<circle cx="120.759" cy="587.437" r="1.33475" fill="#ADD0E6"/>
<circle cx="126.098" cy="587.437" r="1.33475" fill="#ADD0E6"/>
<circle cx="131.437" cy="587.437" r="1.33475" fill="#ADD0E6"/>
<circle cx="136.776" cy="587.437" r="1.33475" fill="#ADD0E6"/>
<circle cx="35.3347" cy="592.776" r="1.33475" fill="#ADD0E6"/>
<circle cx="40.6737" cy="592.776" r="1.33475" fill="#ADD0E6"/>
<circle cx="46.0128" cy="592.776" r="1.33475" fill="#ADD0E6"/>
<circle cx="51.3517" cy="592.776" r="1.33475" fill="#ADD0E6"/>
<circle cx="56.6908" cy="592.776" r="1.33475" fill="#ADD0E6"/>
<circle cx="62.0297" cy="592.776" r="1.33475" fill="#ADD0E6"/>
<circle cx="67.3688" cy="592.776" r="1.33475" fill="#ADD0E6"/>
<circle cx="72.7077" cy="592.776" r="1.33475" fill="#ADD0E6"/>
<circle cx="78.0468" cy="592.776" r="1.33475" fill="#ADD0E6"/>
<circle cx="83.3857" cy="592.776" r="1.33475" fill="#ADD0E6"/>
<circle cx="88.7248" cy="592.776" r="1.33475" fill="#ADD0E6"/>
<circle cx="94.0638" cy="592.776" r="1.33475" fill="#ADD0E6"/>
<circle cx="99.4028" cy="592.776" r="1.33475" fill="#ADD0E6"/>
<circle cx="104.742" cy="592.776" r="1.33475" fill="#ADD0E6"/>
<circle cx="110.081" cy="592.776" r="1.33475" fill="#ADD0E6"/>
<circle cx="115.42" cy="592.776" r="1.33475" fill="#ADD0E6"/>
<circle cx="120.759" cy="592.776" r="1.33475" fill="#ADD0E6"/>
<circle cx="126.098" cy="592.776" r="1.33475" fill="#ADD0E6"/>
<circle cx="131.437" cy="592.776" r="1.33475" fill="#ADD0E6"/>
<circle cx="136.776" cy="592.776" r="1.33475" fill="#ADD0E6"/>
</g>
<path fill-rule="evenodd" clip-rule="evenodd" d="M1169.38 496.672C1164.09 501.109 1163.4 508.994 1167.84 514.282L1170.79 517.8C1175.23 523.088 1183.11 523.778 1188.4 519.34L1325.34 404.436C1330.63 399.999 1331.32 392.114 1326.88 386.826L1323.93 383.308C1319.49 378.02 1311.61 377.33 1306.32 381.767L1169.38 496.672ZM1360.25 376.387C1366.51 371.134 1367.32 361.802 1362.07 355.542C1356.82 349.282 1347.48 348.465 1341.22 353.718C1334.96 358.971 1334.15 368.303 1339.4 374.563C1344.65 380.823 1353.99 381.639 1360.25 376.387Z" fill="#65AFD5"/>
<mask id="path-406-inside-1_170_372" fill="white">
<path fill-rule="evenodd" clip-rule="evenodd" d="M1133.03 650.962C1128.6 645.673 1129.29 637.789 1134.58 633.352L1216.8 564.361C1222.08 559.924 1229.97 560.613 1234.41 565.902L1237.36 569.419C1241.79 574.708 1241.1 582.592 1235.82 587.03L1153.6 656.02C1148.31 660.458 1140.42 659.768 1135.99 654.48L1133.03 650.962ZM1283.04 525.089C1278.61 519.801 1279.3 511.916 1284.58 507.479L1469.84 352.035C1475.12 347.597 1483.01 348.287 1487.45 353.576L1490.4 357.093C1494.84 362.382 1494.15 370.266 1488.86 374.704L1303.61 530.148C1298.32 534.585 1290.43 533.895 1286 528.607L1283.04 525.089ZM1269.47 558.789C1275.73 553.536 1276.55 544.204 1271.3 537.944C1266.04 531.684 1256.71 530.867 1250.45 536.12C1244.19 541.373 1243.38 550.705 1248.63 556.965C1253.88 563.225 1263.21 564.041 1269.47 558.789Z"/>
</mask>
<path d="M1235.82 587.03L1237.74 589.328L1235.82 587.03ZM1488.86 374.704L1490.79 377.002L1488.86 374.704ZM1132.65 631.053C1126.09 636.556 1125.23 646.333 1130.74 652.89L1135.33 649.034C1131.96 645.014 1132.48 639.022 1136.5 635.65L1132.65 631.053ZM1214.87 562.063L1132.65 631.053L1136.5 635.65L1218.72 566.659L1214.87 562.063ZM1236.7 563.973C1231.2 557.416 1221.42 556.56 1214.87 562.063L1218.72 566.659C1222.74 563.287 1228.73 563.811 1232.11 567.83L1236.7 563.973ZM1239.66 567.491L1236.7 563.973L1232.11 567.83L1235.06 571.348L1239.66 567.491ZM1237.74 589.328C1244.3 583.825 1245.16 574.049 1239.66 567.491L1235.06 571.348C1238.43 575.367 1237.91 581.359 1233.89 584.732L1237.74 589.328ZM1155.53 658.318L1237.74 589.328L1233.89 584.732L1151.67 653.722L1155.53 658.318ZM1133.69 656.408C1139.19 662.966 1148.97 663.821 1155.53 658.318L1151.67 653.722C1147.65 657.095 1141.66 656.57 1138.28 652.551L1133.69 656.408ZM1130.74 652.89L1133.69 656.408L1138.28 652.551L1135.33 649.034L1130.74 652.89ZM1282.66 505.181C1276.1 510.683 1275.24 520.46 1280.75 527.018L1285.34 523.161C1281.97 519.142 1282.49 513.149 1286.51 509.777L1282.66 505.181ZM1467.91 349.737L1282.66 505.181L1286.51 509.777L1471.76 354.333L1467.91 349.737ZM1489.74 351.647C1484.24 345.09 1474.47 344.234 1467.91 349.737L1471.76 354.333C1475.78 350.961 1481.78 351.485 1485.15 355.504L1489.74 351.647ZM1492.7 355.165L1489.74 351.647L1485.15 355.504L1488.1 359.022L1492.7 355.165ZM1490.79 377.002C1497.34 371.499 1498.2 361.723 1492.7 355.165L1488.1 359.022C1491.47 363.041 1490.95 369.033 1486.93 372.406L1490.79 377.002ZM1305.53 532.446L1490.79 377.002L1486.93 372.406L1301.68 527.849L1305.53 532.446ZM1283.7 530.535C1289.2 537.093 1298.98 537.948 1305.53 532.446L1301.68 527.849C1297.66 531.222 1291.67 530.698 1288.29 526.678L1283.7 530.535ZM1280.75 527.018L1283.7 530.535L1288.29 526.678L1285.34 523.161L1280.75 527.018ZM1269 539.872C1273.19 544.863 1272.54 552.303 1267.54 556.491L1271.4 561.087C1278.93 554.769 1279.91 543.544 1273.59 536.015L1269 539.872ZM1252.38 538.418C1257.37 534.231 1264.81 534.882 1269 539.872L1273.59 536.015C1267.28 528.486 1256.05 527.504 1248.52 533.822L1252.38 538.418ZM1250.93 555.037C1246.74 550.046 1247.39 542.606 1252.38 538.418L1248.52 533.822C1240.99 540.14 1240.01 551.364 1246.33 558.894L1250.93 555.037ZM1267.54 556.491C1262.55 560.678 1255.11 560.027 1250.93 555.037L1246.33 558.894C1252.65 566.423 1263.87 567.405 1271.4 561.087L1267.54 556.491Z" fill="#ADD0E6" mask="url(#path-406-inside-1_170_372)"/>
<mask id="mask1_170_372" style="mask-type:alpha" maskUnits="userSpaceOnUse" x="1170" y="0" width="204" height="205">
<ellipse cx="1271.52" cy="102.392" rx="101.525" ry="102.392" fill="#B3D6CB"/>
</mask>
<g mask="url(#mask1_170_372)">
<circle cx="1172.6" cy="2.6032" r="2.6032" fill="#B3D6CB"/>
<circle cx="1183.02" cy="2.6032" r="2.6032" fill="#B3D6CB"/>
<circle cx="1193.43" cy="2.6032" r="2.6032" fill="#B3D6CB"/>
<circle cx="1203.84" cy="2.6032" r="2.6032" fill="#B3D6CB"/>
<circle cx="1214.25" cy="2.6032" r="2.6032" fill="#B3D6CB"/>
<circle cx="1224.67" cy="2.6032" r="2.6032" fill="#B3D6CB"/>
<circle cx="1235.08" cy="2.6032" r="2.6032" fill="#B3D6CB"/>
<circle cx="1245.49" cy="2.6032" r="2.6032" fill="#B3D6CB"/>
<circle cx="1255.91" cy="2.6032" r="2.6032" fill="#B3D6CB"/>
<circle cx="1266.32" cy="2.6032" r="2.6032" fill="#B3D6CB"/>
<circle cx="1276.73" cy="2.6032" r="2.6032" fill="#B3D6CB"/>
<circle cx="1287.14" cy="2.6032" r="2.6032" fill="#B3D6CB"/>
<circle cx="1297.56" cy="2.6032" r="2.6032" fill="#B3D6CB"/>
<circle cx="1307.97" cy="2.6032" r="2.6032" fill="#B3D6CB"/>
<circle cx="1318.38" cy="2.6032" r="2.6032" fill="#B3D6CB"/>
<circle cx="1328.8" cy="2.6032" r="2.6032" fill="#B3D6CB"/>
<circle cx="1339.21" cy="2.6032" r="2.6032" fill="#B3D6CB"/>
<circle cx="1349.62" cy="2.6032" r="2.6032" fill="#B3D6CB"/>
<circle cx="1360.03" cy="2.6032" r="2.6032" fill="#B3D6CB"/>
<circle cx="1370.45" cy="2.6032" r="2.6032" fill="#B3D6CB"/>
<circle cx="1172.6" cy="13.016" r="2.6032" fill="#B3D6CB"/>
<circle cx="1183.02" cy="13.016" r="2.6032" fill="#B3D6CB"/>
<circle cx="1193.43" cy="13.016" r="2.6032" fill="#B3D6CB"/>
<circle cx="1203.84" cy="13.016" r="2.6032" fill="#B3D6CB"/>
<circle cx="1214.25" cy="13.016" r="2.6032" fill="#B3D6CB"/>
<circle cx="1224.67" cy="13.016" r="2.6032" fill="#B3D6CB"/>
<circle cx="1235.08" cy="13.016" r="2.6032" fill="#B3D6CB"/>
<circle cx="1245.49" cy="13.016" r="2.6032" fill="#B3D6CB"/>
<circle cx="1255.91" cy="13.016" r="2.6032" fill="#B3D6CB"/>
<circle cx="1266.32" cy="13.016" r="2.6032" fill="#B3D6CB"/>
<circle cx="1276.73" cy="13.016" r="2.6032" fill="#B3D6CB"/>
<circle cx="1287.14" cy="13.016" r="2.6032" fill="#B3D6CB"/>
<circle cx="1297.56" cy="13.016" r="2.6032" fill="#B3D6CB"/>
<circle cx="1307.97" cy="13.016" r="2.6032" fill="#B3D6CB"/>
<circle cx="1318.38" cy="13.016" r="2.6032" fill="#B3D6CB"/>
<circle cx="1328.8" cy="13.016" r="2.6032" fill="#B3D6CB"/>
<circle cx="1339.21" cy="13.016" r="2.6032" fill="#B3D6CB"/>
<circle cx="1349.62" cy="13.016" r="2.6032" fill="#B3D6CB"/>
<circle cx="1360.03" cy="13.016" r="2.6032" fill="#B3D6CB"/>
<circle cx="1370.45" cy="13.016" r="2.6032" fill="#B3D6CB"/>
<circle cx="1172.6" cy="23.4288" r="2.6032" fill="#B3D6CB"/>
<circle cx="1183.02" cy="23.4288" r="2.6032" fill="#B3D6CB"/>
<circle cx="1193.43" cy="23.4288" r="2.6032" fill="#B3D6CB"/>
<circle cx="1203.84" cy="23.4288" r="2.6032" fill="#B3D6CB"/>
<circle cx="1214.25" cy="23.4288" r="2.6032" fill="#B3D6CB"/>
<circle cx="1224.67" cy="23.4288" r="2.6032" fill="#B3D6CB"/>
<circle cx="1235.08" cy="23.4288" r="2.6032" fill="#B3D6CB"/>
<circle cx="1245.49" cy="23.4288" r="2.6032" fill="#B3D6CB"/>
<circle cx="1255.91" cy="23.4288" r="2.6032" fill="#B3D6CB"/>
<circle cx="1266.32" cy="23.4288" r="2.6032" fill="#B3D6CB"/>
<circle cx="1276.73" cy="23.4288" r="2.6032" fill="#B3D6CB"/>
<circle cx="1287.14" cy="23.4288" r="2.6032" fill="#B3D6CB"/>
<circle cx="1297.56" cy="23.4288" r="2.6032" fill="#B3D6CB"/>
<circle cx="1307.97" cy="23.4288" r="2.6032" fill="#B3D6CB"/>
<circle cx="1318.38" cy="23.4288" r="2.6032" fill="#B3D6CB"/>
<circle cx="1328.8" cy="23.4288" r="2.6032" fill="#B3D6CB"/>
<circle cx="1339.21" cy="23.4288" r="2.6032" fill="#B3D6CB"/>
<circle cx="1349.62" cy="23.4288" r="2.6032" fill="#B3D6CB"/>
<circle cx="1360.03" cy="23.4288" r="2.6032" fill="#B3D6CB"/>
<circle cx="1370.45" cy="23.4288" r="2.6032" fill="#B3D6CB"/>
<circle cx="1172.6" cy="33.8416" r="2.6032" fill="#B3D6CB"/>
<circle cx="1183.02" cy="33.8416" r="2.6032" fill="#B3D6CB"/>
<circle cx="1193.43" cy="33.8416" r="2.6032" fill="#B3D6CB"/>
<circle cx="1203.84" cy="33.8416" r="2.6032" fill="#B3D6CB"/>
<circle cx="1214.25" cy="33.8416" r="2.6032" fill="#B3D6CB"/>
<circle cx="1224.67" cy="33.8416" r="2.6032" fill="#B3D6CB"/>
<circle cx="1235.08" cy="33.8416" r="2.6032" fill="#B3D6CB"/>
<circle cx="1245.49" cy="33.8416" r="2.6032" fill="#B3D6CB"/>
<circle cx="1255.91" cy="33.8416" r="2.6032" fill="#B3D6CB"/>
<circle cx="1266.32" cy="33.8416" r="2.6032" fill="#B3D6CB"/>
<circle cx="1276.73" cy="33.8416" r="2.6032" fill="#B3D6CB"/>
<circle cx="1287.14" cy="33.8416" r="2.6032" fill="#B3D6CB"/>
<circle cx="1297.56" cy="33.8416" r="2.6032" fill="#B3D6CB"/>
<circle cx="1307.97" cy="33.8416" r="2.6032" fill="#B3D6CB"/>
<circle cx="1318.38" cy="33.8416" r="2.6032" fill="#B3D6CB"/>
<circle cx="1328.8" cy="33.8416" r="2.6032" fill="#B3D6CB"/>
<circle cx="1339.21" cy="33.8416" r="2.6032" fill="#B3D6CB"/>
<circle cx="1349.62" cy="33.8416" r="2.6032" fill="#B3D6CB"/>
<circle cx="1360.03" cy="33.8416" r="2.6032" fill="#B3D6CB"/>
<circle cx="1370.45" cy="33.8416" r="2.6032" fill="#B3D6CB"/>
<circle cx="1172.6" cy="44.2544" r="2.6032" fill="#B3D6CB"/>
<circle cx="1183.02" cy="44.2544" r="2.6032" fill="#B3D6CB"/>
<circle cx="1193.43" cy="44.2544" r="2.6032" fill="#B3D6CB"/>
<circle cx="1203.84" cy="44.2544" r="2.6032" fill="#B3D6CB"/>
<circle cx="1214.25" cy="44.2544" r="2.6032" fill="#B3D6CB"/>
<circle cx="1224.67" cy="44.2544" r="2.6032" fill="#B3D6CB"/>
<circle cx="1235.08" cy="44.2544" r="2.6032" fill="#B3D6CB"/>
<circle cx="1245.49" cy="44.2544" r="2.6032" fill="#B3D6CB"/>
<circle cx="1255.91" cy="44.2544" r="2.6032" fill="#B3D6CB"/>
<circle cx="1266.32" cy="44.2544" r="2.6032" fill="#B3D6CB"/>
<circle cx="1276.73" cy="44.2544" r="2.6032" fill="#B3D6CB"/>
<circle cx="1287.14" cy="44.2544" r="2.6032" fill="#B3D6CB"/>
<circle cx="1297.56" cy="44.2544" r="2.6032" fill="#B3D6CB"/>
<circle cx="1307.97" cy="44.2544" r="2.6032" fill="#B3D6CB"/>
<circle cx="1318.38" cy="44.2544" r="2.6032" fill="#B3D6CB"/>
<circle cx="1328.8" cy="44.2544" r="2.6032" fill="#B3D6CB"/>
<circle cx="1339.21" cy="44.2544" r="2.6032" fill="#B3D6CB"/>
<circle cx="1349.62" cy="44.2544" r="2.6032" fill="#B3D6CB"/>
<circle cx="1360.03" cy="44.2544" r="2.6032" fill="#B3D6CB"/>
<circle cx="1370.45" cy="44.2544" r="2.6032" fill="#B3D6CB"/>
<circle cx="1172.6" cy="54.6672" r="2.6032" fill="#B3D6CB"/>
<circle cx="1183.02" cy="54.6672" r="2.6032" fill="#B3D6CB"/>
<circle cx="1193.43" cy="54.6672" r="2.6032" fill="#B3D6CB"/>
<circle cx="1203.84" cy="54.6672" r="2.6032" fill="#B3D6CB"/>
<circle cx="1214.25" cy="54.6672" r="2.6032" fill="#B3D6CB"/>
<circle cx="1224.67" cy="54.6672" r="2.6032" fill="#B3D6CB"/>
<circle cx="1235.08" cy="54.6672" r="2.6032" fill="#B3D6CB"/>
<circle cx="1245.49" cy="54.6672" r="2.6032" fill="#B3D6CB"/>
<circle cx="1255.91" cy="54.6672" r="2.6032" fill="#B3D6CB"/>
<circle cx="1266.32" cy="54.6672" r="2.6032" fill="#B3D6CB"/>
<circle cx="1276.73" cy="54.6672" r="2.6032" fill="#B3D6CB"/>
<circle cx="1287.14" cy="54.6672" r="2.6032" fill="#B3D6CB"/>
<circle cx="1297.56" cy="54.6672" r="2.6032" fill="#B3D6CB"/>
<circle cx="1307.97" cy="54.6672" r="2.6032" fill="#B3D6CB"/>
<circle cx="1318.38" cy="54.6672" r="2.6032" fill="#B3D6CB"/>
<circle cx="1328.8" cy="54.6672" r="2.6032" fill="#B3D6CB"/>
<circle cx="1339.21" cy="54.6672" r="2.6032" fill="#B3D6CB"/>
<circle cx="1349.62" cy="54.6672" r="2.6032" fill="#B3D6CB"/>
<circle cx="1360.03" cy="54.6672" r="2.6032" fill="#B3D6CB"/>
<circle cx="1370.45" cy="54.6672" r="2.6032" fill="#B3D6CB"/>
<circle cx="1172.6" cy="65.08" r="2.6032" fill="#B3D6CB"/>
<circle cx="1183.02" cy="65.08" r="2.6032" fill="#B3D6CB"/>
<circle cx="1193.43" cy="65.08" r="2.6032" fill="#B3D6CB"/>
<circle cx="1203.84" cy="65.08" r="2.6032" fill="#B3D6CB"/>
<circle cx="1214.25" cy="65.08" r="2.6032" fill="#B3D6CB"/>
<circle cx="1224.67" cy="65.08" r="2.6032" fill="#B3D6CB"/>
<circle cx="1235.08" cy="65.08" r="2.6032" fill="#B3D6CB"/>
<circle cx="1245.49" cy="65.08" r="2.6032" fill="#B3D6CB"/>
<circle cx="1255.91" cy="65.08" r="2.6032" fill="#B3D6CB"/>
<circle cx="1266.32" cy="65.08" r="2.6032" fill="#B3D6CB"/>
<circle cx="1276.73" cy="65.08" r="2.6032" fill="#B3D6CB"/>
<circle cx="1287.14" cy="65.08" r="2.6032" fill="#B3D6CB"/>
<circle cx="1297.56" cy="65.08" r="2.6032" fill="#B3D6CB"/>
<circle cx="1307.97" cy="65.08" r="2.6032" fill="#B3D6CB"/>
<circle cx="1318.38" cy="65.08" r="2.6032" fill="#B3D6CB"/>
<circle cx="1328.8" cy="65.08" r="2.6032" fill="#B3D6CB"/>
<circle cx="1339.21" cy="65.08" r="2.6032" fill="#B3D6CB"/>
<circle cx="1349.62" cy="65.08" r="2.6032" fill="#B3D6CB"/>
<circle cx="1360.03" cy="65.08" r="2.6032" fill="#B3D6CB"/>
<circle cx="1370.45" cy="65.08" r="2.6032" fill="#B3D6CB"/>
<circle cx="1172.6" cy="75.4928" r="2.6032" fill="#B3D6CB"/>
<circle cx="1183.02" cy="75.4928" r="2.6032" fill="#B3D6CB"/>
<circle cx="1193.43" cy="75.4928" r="2.6032" fill="#B3D6CB"/>
<circle cx="1203.84" cy="75.4928" r="2.6032" fill="#B3D6CB"/>
<circle cx="1214.25" cy="75.4928" r="2.6032" fill="#B3D6CB"/>
<circle cx="1224.67" cy="75.4928" r="2.6032" fill="#B3D6CB"/>
<circle cx="1235.08" cy="75.4928" r="2.6032" fill="#B3D6CB"/>
<circle cx="1245.49" cy="75.4928" r="2.6032" fill="#B3D6CB"/>
<circle cx="1255.91" cy="75.4928" r="2.6032" fill="#B3D6CB"/>
<circle cx="1266.32" cy="75.4928" r="2.6032" fill="#B3D6CB"/>
<circle cx="1276.73" cy="75.4928" r="2.6032" fill="#B3D6CB"/>
<circle cx="1287.14" cy="75.4928" r="2.6032" fill="#B3D6CB"/>
<circle cx="1297.56" cy="75.4928" r="2.6032" fill="#B3D6CB"/>
<circle cx="1307.97" cy="75.4928" r="2.6032" fill="#B3D6CB"/>
<circle cx="1318.38" cy="75.4928" r="2.6032" fill="#B3D6CB"/>
<circle cx="1328.8" cy="75.4928" r="2.6032" fill="#B3D6CB"/>
<circle cx="1339.21" cy="75.4928" r="2.6032" fill="#B3D6CB"/>
<circle cx="1349.62" cy="75.4928" r="2.6032" fill="#B3D6CB"/>
<circle cx="1360.03" cy="75.4928" r="2.6032" fill="#B3D6CB"/>
<circle cx="1370.45" cy="75.4928" r="2.6032" fill="#B3D6CB"/>
<circle cx="1172.6" cy="85.9056" r="2.6032" fill="#B3D6CB"/>
<circle cx="1183.02" cy="85.9056" r="2.6032" fill="#B3D6CB"/>
<circle cx="1193.43" cy="85.9056" r="2.6032" fill="#B3D6CB"/>
<circle cx="1203.84" cy="85.9056" r="2.6032" fill="#B3D6CB"/>
<circle cx="1214.25" cy="85.9056" r="2.6032" fill="#B3D6CB"/>
<circle cx="1224.67" cy="85.9056" r="2.6032" fill="#B3D6CB"/>
<circle cx="1235.08" cy="85.9056" r="2.6032" fill="#B3D6CB"/>
<circle cx="1245.49" cy="85.9056" r="2.6032" fill="#B3D6CB"/>
<circle cx="1255.91" cy="85.9056" r="2.6032" fill="#B3D6CB"/>
<circle cx="1266.32" cy="85.9056" r="2.6032" fill="#B3D6CB"/>
<circle cx="1276.73" cy="85.9056" r="2.6032" fill="#B3D6CB"/>
<circle cx="1287.14" cy="85.9056" r="2.6032" fill="#B3D6CB"/>
<circle cx="1297.56" cy="85.9056" r="2.6032" fill="#B3D6CB"/>
<circle cx="1307.97" cy="85.9056" r="2.6032" fill="#B3D6CB"/>
<circle cx="1318.38" cy="85.9056" r="2.6032" fill="#B3D6CB"/>
<circle cx="1328.8" cy="85.9056" r="2.6032" fill="#B3D6CB"/>
<circle cx="1339.21" cy="85.9056" r="2.6032" fill="#B3D6CB"/>
<circle cx="1349.62" cy="85.9056" r="2.6032" fill="#B3D6CB"/>
<circle cx="1360.03" cy="85.9056" r="2.6032" fill="#B3D6CB"/>
<circle cx="1370.45" cy="85.9056" r="2.6032" fill="#B3D6CB"/>
<circle cx="1172.6" cy="96.3183" r="2.6032" fill="#B3D6CB"/>
<circle cx="1183.02" cy="96.3183" r="2.6032" fill="#B3D6CB"/>
<circle cx="1193.43" cy="96.3183" r="2.6032" fill="#B3D6CB"/>
<circle cx="1203.84" cy="96.3183" r="2.6032" fill="#B3D6CB"/>
<circle cx="1214.25" cy="96.3183" r="2.6032" fill="#B3D6CB"/>
<circle cx="1224.67" cy="96.3183" r="2.6032" fill="#B3D6CB"/>
<circle cx="1235.08" cy="96.3183" r="2.6032" fill="#B3D6CB"/>
<circle cx="1245.49" cy="96.3183" r="2.6032" fill="#B3D6CB"/>
<circle cx="1255.91" cy="96.3183" r="2.6032" fill="#B3D6CB"/>
<circle cx="1266.32" cy="96.3183" r="2.6032" fill="#B3D6CB"/>
<circle cx="1276.73" cy="96.3183" r="2.6032" fill="#B3D6CB"/>
<circle cx="1287.14" cy="96.3183" r="2.6032" fill="#B3D6CB"/>
<circle cx="1297.56" cy="96.3183" r="2.6032" fill="#B3D6CB"/>
<circle cx="1307.97" cy="96.3183" r="2.6032" fill="#B3D6CB"/>
<circle cx="1318.38" cy="96.3183" r="2.6032" fill="#B3D6CB"/>
<circle cx="1328.8" cy="96.3183" r="2.6032" fill="#B3D6CB"/>
<circle cx="1339.21" cy="96.3183" r="2.6032" fill="#B3D6CB"/>
<circle cx="1349.62" cy="96.3183" r="2.6032" fill="#B3D6CB"/>
<circle cx="1360.03" cy="96.3183" r="2.6032" fill="#B3D6CB"/>
<circle cx="1370.45" cy="96.3183" r="2.6032" fill="#B3D6CB"/>
<circle cx="1172.6" cy="106.731" r="2.6032" fill="#B3D6CB"/>
<circle cx="1183.02" cy="106.731" r="2.6032" fill="#B3D6CB"/>
<circle cx="1193.43" cy="106.731" r="2.6032" fill="#B3D6CB"/>
<circle cx="1203.84" cy="106.731" r="2.6032" fill="#B3D6CB"/>
<circle cx="1214.25" cy="106.731" r="2.6032" fill="#B3D6CB"/>
<circle cx="1224.67" cy="106.731" r="2.6032" fill="#B3D6CB"/>
<circle cx="1235.08" cy="106.731" r="2.6032" fill="#B3D6CB"/>
<circle cx="1245.49" cy="106.731" r="2.6032" fill="#B3D6CB"/>
<circle cx="1255.91" cy="106.731" r="2.6032" fill="#B3D6CB"/>
<circle cx="1266.32" cy="106.731" r="2.6032" fill="#B3D6CB"/>
<circle cx="1276.73" cy="106.731" r="2.6032" fill="#B3D6CB"/>
<circle cx="1287.14" cy="106.731" r="2.6032" fill="#B3D6CB"/>
<circle cx="1297.56" cy="106.731" r="2.6032" fill="#B3D6CB"/>
<circle cx="1307.97" cy="106.731" r="2.6032" fill="#B3D6CB"/>
<circle cx="1318.38" cy="106.731" r="2.6032" fill="#B3D6CB"/>
<circle cx="1328.8" cy="106.731" r="2.6032" fill="#B3D6CB"/>
<circle cx="1339.21" cy="106.731" r="2.6032" fill="#B3D6CB"/>
<circle cx="1349.62" cy="106.731" r="2.6032" fill="#B3D6CB"/>
<circle cx="1360.03" cy="106.731" r="2.6032" fill="#B3D6CB"/>
<circle cx="1370.45" cy="106.731" r="2.6032" fill="#B3D6CB"/>
<circle cx="1172.6" cy="117.144" r="2.6032" fill="#B3D6CB"/>
<circle cx="1183.02" cy="117.144" r="2.6032" fill="#B3D6CB"/>
<circle cx="1193.43" cy="117.144" r="2.6032" fill="#B3D6CB"/>
<circle cx="1203.84" cy="117.144" r="2.6032" fill="#B3D6CB"/>
<circle cx="1214.25" cy="117.144" r="2.6032" fill="#B3D6CB"/>
<circle cx="1224.67" cy="117.144" r="2.6032" fill="#B3D6CB"/>
<circle cx="1235.08" cy="117.144" r="2.6032" fill="#B3D6CB"/>
<circle cx="1245.49" cy="117.144" r="2.6032" fill="#B3D6CB"/>
<circle cx="1255.91" cy="117.144" r="2.6032" fill="#B3D6CB"/>
<circle cx="1266.32" cy="117.144" r="2.6032" fill="#B3D6CB"/>
<circle cx="1276.73" cy="117.144" r="2.6032" fill="#B3D6CB"/>
<circle cx="1287.14" cy="117.144" r="2.6032" fill="#B3D6CB"/>
<circle cx="1297.56" cy="117.144" r="2.6032" fill="#B3D6CB"/>
<circle cx="1307.97" cy="117.144" r="2.6032" fill="#B3D6CB"/>
<circle cx="1318.38" cy="117.144" r="2.6032" fill="#B3D6CB"/>
<circle cx="1328.8" cy="117.144" r="2.6032" fill="#B3D6CB"/>
<circle cx="1339.21" cy="117.144" r="2.6032" fill="#B3D6CB"/>
<circle cx="1349.62" cy="117.144" r="2.6032" fill="#B3D6CB"/>
<circle cx="1360.03" cy="117.144" r="2.6032" fill="#B3D6CB"/>
<circle cx="1370.45" cy="117.144" r="2.6032" fill="#B3D6CB"/>
<circle cx="1172.6" cy="127.557" r="2.6032" fill="#B3D6CB"/>
<circle cx="1183.02" cy="127.557" r="2.6032" fill="#B3D6CB"/>
<circle cx="1193.43" cy="127.557" r="2.6032" fill="#B3D6CB"/>
<circle cx="1203.84" cy="127.557" r="2.6032" fill="#B3D6CB"/>
<circle cx="1214.25" cy="127.557" r="2.6032" fill="#B3D6CB"/>
<circle cx="1224.67" cy="127.557" r="2.6032" fill="#B3D6CB"/>
<circle cx="1235.08" cy="127.557" r="2.6032" fill="#B3D6CB"/>
<circle cx="1245.49" cy="127.557" r="2.6032" fill="#B3D6CB"/>
<circle cx="1255.91" cy="127.557" r="2.6032" fill="#B3D6CB"/>
<circle cx="1266.32" cy="127.557" r="2.6032" fill="#B3D6CB"/>
<circle cx="1276.73" cy="127.557" r="2.6032" fill="#B3D6CB"/>
<circle cx="1287.14" cy="127.557" r="2.6032" fill="#B3D6CB"/>
<circle cx="1297.56" cy="127.557" r="2.6032" fill="#B3D6CB"/>
<circle cx="1307.97" cy="127.557" r="2.6032" fill="#B3D6CB"/>
<circle cx="1318.38" cy="127.557" r="2.6032" fill="#B3D6CB"/>
<circle cx="1328.8" cy="127.557" r="2.6032" fill="#B3D6CB"/>
<circle cx="1339.21" cy="127.557" r="2.6032" fill="#B3D6CB"/>
<circle cx="1349.62" cy="127.557" r="2.6032" fill="#B3D6CB"/>
<circle cx="1360.03" cy="127.557" r="2.6032" fill="#B3D6CB"/>
<circle cx="1370.45" cy="127.557" r="2.6032" fill="#B3D6CB"/>
<circle cx="1172.6" cy="137.97" r="2.6032" fill="#B3D6CB"/>
<circle cx="1183.02" cy="137.97" r="2.6032" fill="#B3D6CB"/>
<circle cx="1193.43" cy="137.97" r="2.6032" fill="#B3D6CB"/>
<circle cx="1203.84" cy="137.97" r="2.6032" fill="#B3D6CB"/>
<circle cx="1214.25" cy="137.97" r="2.6032" fill="#B3D6CB"/>
<circle cx="1224.67" cy="137.97" r="2.6032" fill="#B3D6CB"/>
<circle cx="1235.08" cy="137.97" r="2.6032" fill="#B3D6CB"/>
<circle cx="1245.49" cy="137.97" r="2.6032" fill="#B3D6CB"/>
<circle cx="1255.91" cy="137.97" r="2.6032" fill="#B3D6CB"/>
<circle cx="1266.32" cy="137.97" r="2.6032" fill="#B3D6CB"/>
<circle cx="1276.73" cy="137.97" r="2.6032" fill="#B3D6CB"/>
<circle cx="1287.14" cy="137.97" r="2.6032" fill="#B3D6CB"/>
<circle cx="1297.56" cy="137.97" r="2.6032" fill="#B3D6CB"/>
<circle cx="1307.97" cy="137.97" r="2.6032" fill="#B3D6CB"/>
<circle cx="1318.38" cy="137.97" r="2.6032" fill="#B3D6CB"/>
<circle cx="1328.8" cy="137.97" r="2.6032" fill="#B3D6CB"/>
<circle cx="1339.21" cy="137.97" r="2.6032" fill="#B3D6CB"/>
<circle cx="1349.62" cy="137.97" r="2.6032" fill="#B3D6CB"/>
<circle cx="1360.03" cy="137.97" r="2.6032" fill="#B3D6CB"/>
<circle cx="1370.45" cy="137.97" r="2.6032" fill="#B3D6CB"/>
<circle cx="1172.6" cy="148.382" r="2.6032" fill="#B3D6CB"/>
<circle cx="1183.02" cy="148.382" r="2.6032" fill="#B3D6CB"/>
<circle cx="1193.43" cy="148.382" r="2.6032" fill="#B3D6CB"/>
<circle cx="1203.84" cy="148.382" r="2.6032" fill="#B3D6CB"/>
<circle cx="1214.25" cy="148.382" r="2.6032" fill="#B3D6CB"/>
<circle cx="1224.67" cy="148.382" r="2.6032" fill="#B3D6CB"/>
<circle cx="1235.08" cy="148.382" r="2.6032" fill="#B3D6CB"/>
<circle cx="1245.49" cy="148.382" r="2.6032" fill="#B3D6CB"/>
<circle cx="1255.91" cy="148.382" r="2.6032" fill="#B3D6CB"/>
<circle cx="1266.32" cy="148.382" r="2.6032" fill="#B3D6CB"/>
<circle cx="1276.73" cy="148.382" r="2.6032" fill="#B3D6CB"/>
<circle cx="1287.14" cy="148.382" r="2.6032" fill="#B3D6CB"/>
<circle cx="1297.56" cy="148.382" r="2.6032" fill="#B3D6CB"/>
<circle cx="1307.97" cy="148.382" r="2.6032" fill="#B3D6CB"/>
<circle cx="1318.38" cy="148.382" r="2.6032" fill="#B3D6CB"/>
<circle cx="1328.8" cy="148.382" r="2.6032" fill="#B3D6CB"/>
<circle cx="1339.21" cy="148.382" r="2.6032" fill="#B3D6CB"/>
<circle cx="1349.62" cy="148.382" r="2.6032" fill="#B3D6CB"/>
<circle cx="1360.03" cy="148.382" r="2.6032" fill="#B3D6CB"/>
<circle cx="1370.45" cy="148.382" r="2.6032" fill="#B3D6CB"/>
<circle cx="1172.6" cy="158.795" r="2.6032" fill="#B3D6CB"/>
<circle cx="1183.02" cy="158.795" r="2.6032" fill="#B3D6CB"/>
<circle cx="1193.43" cy="158.795" r="2.6032" fill="#B3D6CB"/>
<circle cx="1203.84" cy="158.795" r="2.6032" fill="#B3D6CB"/>
<circle cx="1214.25" cy="158.795" r="2.6032" fill="#B3D6CB"/>
<circle cx="1224.67" cy="158.795" r="2.6032" fill="#B3D6CB"/>
<circle cx="1235.08" cy="158.795" r="2.6032" fill="#B3D6CB"/>
<circle cx="1245.49" cy="158.795" r="2.6032" fill="#B3D6CB"/>
<circle cx="1255.91" cy="158.795" r="2.6032" fill="#B3D6CB"/>
<circle cx="1266.32" cy="158.795" r="2.6032" fill="#B3D6CB"/>
<circle cx="1276.73" cy="158.795" r="2.6032" fill="#B3D6CB"/>
<circle cx="1287.14" cy="158.795" r="2.6032" fill="#B3D6CB"/>
<circle cx="1297.56" cy="158.795" r="2.6032" fill="#B3D6CB"/>
<circle cx="1307.97" cy="158.795" r="2.6032" fill="#B3D6CB"/>
<circle cx="1318.38" cy="158.795" r="2.6032" fill="#B3D6CB"/>
<circle cx="1328.8" cy="158.795" r="2.6032" fill="#B3D6CB"/>
<circle cx="1339.21" cy="158.795" r="2.6032" fill="#B3D6CB"/>
<circle cx="1349.62" cy="158.795" r="2.6032" fill="#B3D6CB"/>
<circle cx="1360.03" cy="158.795" r="2.6032" fill="#B3D6CB"/>
<circle cx="1370.45" cy="158.795" r="2.6032" fill="#B3D6CB"/>
<circle cx="1172.6" cy="169.208" r="2.6032" fill="#B3D6CB"/>
<circle cx="1183.02" cy="169.208" r="2.6032" fill="#B3D6CB"/>
<circle cx="1193.43" cy="169.208" r="2.6032" fill="#B3D6CB"/>
<circle cx="1203.84" cy="169.208" r="2.6032" fill="#B3D6CB"/>
<circle cx="1214.25" cy="169.208" r="2.6032" fill="#B3D6CB"/>
<circle cx="1224.67" cy="169.208" r="2.6032" fill="#B3D6CB"/>
<circle cx="1235.08" cy="169.208" r="2.6032" fill="#B3D6CB"/>
<circle cx="1245.49" cy="169.208" r="2.6032" fill="#B3D6CB"/>
<circle cx="1255.91" cy="169.208" r="2.6032" fill="#B3D6CB"/>
<circle cx="1266.32" cy="169.208" r="2.6032" fill="#B3D6CB"/>
<circle cx="1276.73" cy="169.208" r="2.6032" fill="#B3D6CB"/>
<circle cx="1287.14" cy="169.208" r="2.6032" fill="#B3D6CB"/>
<circle cx="1297.56" cy="169.208" r="2.6032" fill="#B3D6CB"/>
<circle cx="1307.97" cy="169.208" r="2.6032" fill="#B3D6CB"/>
<circle cx="1318.38" cy="169.208" r="2.6032" fill="#B3D6CB"/>
<circle cx="1328.8" cy="169.208" r="2.6032" fill="#B3D6CB"/>
<circle cx="1339.21" cy="169.208" r="2.6032" fill="#B3D6CB"/>
<circle cx="1349.62" cy="169.208" r="2.6032" fill="#B3D6CB"/>
<circle cx="1360.03" cy="169.208" r="2.6032" fill="#B3D6CB"/>
<circle cx="1370.45" cy="169.208" r="2.6032" fill="#B3D6CB"/>
<circle cx="1172.6" cy="179.621" r="2.6032" fill="#B3D6CB"/>
<circle cx="1183.02" cy="179.621" r="2.6032" fill="#B3D6CB"/>
<circle cx="1193.43" cy="179.621" r="2.6032" fill="#B3D6CB"/>
<circle cx="1203.84" cy="179.621" r="2.6032" fill="#B3D6CB"/>
<circle cx="1214.25" cy="179.621" r="2.6032" fill="#B3D6CB"/>
<circle cx="1224.67" cy="179.621" r="2.6032" fill="#B3D6CB"/>
<circle cx="1235.08" cy="179.621" r="2.6032" fill="#B3D6CB"/>
<circle cx="1245.49" cy="179.621" r="2.6032" fill="#B3D6CB"/>
<circle cx="1255.91" cy="179.621" r="2.6032" fill="#B3D6CB"/>
<circle cx="1266.32" cy="179.621" r="2.6032" fill="#B3D6CB"/>
<circle cx="1276.73" cy="179.621" r="2.6032" fill="#B3D6CB"/>
<circle cx="1287.14" cy="179.621" r="2.6032" fill="#B3D6CB"/>
<circle cx="1297.56" cy="179.621" r="2.6032" fill="#B3D6CB"/>
<circle cx="1307.97" cy="179.621" r="2.6032" fill="#B3D6CB"/>
<circle cx="1318.38" cy="179.621" r="2.6032" fill="#B3D6CB"/>
<circle cx="1328.8" cy="179.621" r="2.6032" fill="#B3D6CB"/>
<circle cx="1339.21" cy="179.621" r="2.6032" fill="#B3D6CB"/>
<circle cx="1349.62" cy="179.621" r="2.6032" fill="#B3D6CB"/>
<circle cx="1360.03" cy="179.621" r="2.6032" fill="#B3D6CB"/>
<circle cx="1370.45" cy="179.621" r="2.6032" fill="#B3D6CB"/>
<circle cx="1172.6" cy="190.034" r="2.6032" fill="#B3D6CB"/>
<circle cx="1183.02" cy="190.034" r="2.6032" fill="#B3D6CB"/>
<circle cx="1193.43" cy="190.034" r="2.6032" fill="#B3D6CB"/>
<circle cx="1203.84" cy="190.034" r="2.6032" fill="#B3D6CB"/>
<circle cx="1214.25" cy="190.034" r="2.6032" fill="#B3D6CB"/>
<circle cx="1224.67" cy="190.034" r="2.6032" fill="#B3D6CB"/>
<circle cx="1235.08" cy="190.034" r="2.6032" fill="#B3D6CB"/>
<circle cx="1245.49" cy="190.034" r="2.6032" fill="#B3D6CB"/>
<circle cx="1255.91" cy="190.034" r="2.6032" fill="#B3D6CB"/>
<circle cx="1266.32" cy="190.034" r="2.6032" fill="#B3D6CB"/>
<circle cx="1276.73" cy="190.034" r="2.6032" fill="#B3D6CB"/>
<circle cx="1287.14" cy="190.034" r="2.6032" fill="#B3D6CB"/>
<circle cx="1297.56" cy="190.034" r="2.6032" fill="#B3D6CB"/>
<circle cx="1307.97" cy="190.034" r="2.6032" fill="#B3D6CB"/>
<circle cx="1318.38" cy="190.034" r="2.6032" fill="#B3D6CB"/>
<circle cx="1328.8" cy="190.034" r="2.6032" fill="#B3D6CB"/>
<circle cx="1339.21" cy="190.034" r="2.6032" fill="#B3D6CB"/>
<circle cx="1349.62" cy="190.034" r="2.6032" fill="#B3D6CB"/>
<circle cx="1360.03" cy="190.034" r="2.6032" fill="#B3D6CB"/>
<circle cx="1370.45" cy="190.034" r="2.6032" fill="#B3D6CB"/>
<circle cx="1172.6" cy="200.446" r="2.6032" fill="#B3D6CB"/>
<circle cx="1183.02" cy="200.446" r="2.6032" fill="#B3D6CB"/>
<circle cx="1193.43" cy="200.446" r="2.6032" fill="#B3D6CB"/>
<circle cx="1203.84" cy="200.446" r="2.6032" fill="#B3D6CB"/>
<circle cx="1214.25" cy="200.446" r="2.6032" fill="#B3D6CB"/>
<circle cx="1224.67" cy="200.446" r="2.6032" fill="#B3D6CB"/>
<circle cx="1235.08" cy="200.446" r="2.6032" fill="#B3D6CB"/>
<circle cx="1245.49" cy="200.446" r="2.6032" fill="#B3D6CB"/>
<circle cx="1255.91" cy="200.446" r="2.6032" fill="#B3D6CB"/>
<circle cx="1266.32" cy="200.446" r="2.6032" fill="#B3D6CB"/>
<circle cx="1276.73" cy="200.446" r="2.6032" fill="#B3D6CB"/>
<circle cx="1287.14" cy="200.446" r="2.6032" fill="#B3D6CB"/>
<circle cx="1297.56" cy="200.446" r="2.6032" fill="#B3D6CB"/>
<circle cx="1307.97" cy="200.446" r="2.6032" fill="#B3D6CB"/>
<circle cx="1318.38" cy="200.446" r="2.6032" fill="#B3D6CB"/>
<circle cx="1328.8" cy="200.446" r="2.6032" fill="#B3D6CB"/>
<circle cx="1339.21" cy="200.446" r="2.6032" fill="#B3D6CB"/>
<circle cx="1349.62" cy="200.446" r="2.6032" fill="#B3D6CB"/>
<circle cx="1360.03" cy="200.446" r="2.6032" fill="#B3D6CB"/>
<circle cx="1370.45" cy="200.446" r="2.6032" fill="#B3D6CB"/>
</g>
<ellipse cx="1316.5" cy="219.977" rx="68.5" ry="69.5" fill="#E4F3F3"/>
</svg>
