<svg width="60" height="45" viewBox="0 0 60 45" fill="none" xmlns="http://www.w3.org/2000/svg">
<path d="M6.135 14.8866C6.83823 14.3593 7.79188 14.0631 8.78625 14.0631C9.78061 14.0631 10.7343 14.3593 11.4375 14.8866L30 28.8084L48.5625 14.8866C49.2698 14.3743 50.217 14.0908 51.2003 14.0972C52.1835 14.1036 53.124 14.3994 53.8193 14.9208C54.5146 15.4423 54.909 16.1477 54.9175 16.8851C54.9261 17.6226 54.5481 18.333 53.865 18.8634L32.6512 34.7738C31.948 35.301 30.9944 35.5972 30 35.5972C29.0056 35.5972 28.052 35.301 27.3487 34.7738L6.135 18.8634C5.43198 18.336 5.03705 17.6208 5.03705 16.875C5.03705 16.1292 5.43198 15.414 6.135 14.8866Z" fill="#65AFD5"/>
</svg>
