<svg width="1200" height="630" viewBox="0 0 1200 630" fill="none" xmlns="http://www.w3.org/2000/svg">
<g clip-path="url(#clip0_511_2998)">
<rect width="1200" height="630" fill="#20A4AF"/>
<path d="M709.279 227H621.989C621.989 227 595.521 340.026 587.04 340.026L714.21 340.454V231.608C714.21 229.063 712.001 227 709.276 227H709.279ZM693.865 317.474C693.865 320.016 691.658 322.079 688.933 322.079H656.822C654.114 322.079 651.913 320.038 651.893 317.508L651.358 250.515C651.339 247.959 653.551 245.876 656.287 245.876H688.933C691.655 245.876 693.865 247.937 693.865 250.481V317.474Z" fill="white"/>
<path d="M547.165 402.112L553.282 371.282C638.371 313.755 647.62 419.992 714.213 364.498L714.025 399.633C714.025 401.001 711.815 402.11 709.093 402.11H547.165V402.112Z" fill="white"/>
<path d="M553.158 277.681C560.871 249.144 569.259 227 576.712 227L524.92 227.028L515.11 277.681H485V302.175C485 304.993 486.782 307.279 488.98 307.279H509.379L491.018 402.087H527.419C527.419 402.087 535.309 353.332 545.839 307.279H677.063C679.262 307.279 681.043 304.993 681.043 302.175V277.681H553.158Z" fill="white"/>
<g opacity="0.5">
<path d="M39.8986 -43.1515L91.0777 -29.4381L79.1427 15.1042L27.9635 1.39078L39.8986 -43.1515Z" stroke="white" stroke-width="2"/>
<path d="M96.2675 -28.0476L140.37 -16.2303L92.1257 163.821C83.1972 197.142 70.3896 220.304 53.8156 233.507C37.2968 246.667 16.8944 250.044 -7.54103 243.497C-26.2397 238.487 -41.5057 225.595 -53.2975 204.662L-14.6 179.047C-10.3321 192.739 -3.8317 201.071 5.13235 203.473C9.65858 204.685 13.9566 204.664 17.9984 203.369C22.035 202.076 25.7514 199.534 29.1543 195.805C32.5893 192.041 36.0526 185.725 39.574 176.962C43.1044 168.176 46.7262 156.843 50.4429 142.972L96.2675 -28.0476Z" stroke="white" stroke-width="2"/>
<path d="M273.371 172.839L261.65 121.525L342.906 38.039L395.629 52.166L273.371 172.839Z" stroke="white" stroke-width="2"/>
<path d="M544.734 255.587L585.601 103.069L629.734 114.894L586.086 277.792C575.634 316.799 559.38 343.606 537.451 358.433C515.551 373.24 487.803 376.224 454.063 367.183C435.594 362.234 420.492 355.063 408.707 345.693L425.374 283.489C426.741 294.854 430.23 304.325 435.899 311.841C442.493 320.585 451.974 326.598 464.281 329.895C483.098 334.937 499.315 331.221 512.789 318.703C526.196 306.247 536.812 285.152 544.734 255.587Z" stroke="white" stroke-width="2"/>
<path d="M431.757 225.331L431.757 225.332L431.757 225.333L431.757 225.335L431.756 225.336L431.756 225.337L431.756 225.338L431.755 225.339L431.755 225.34L431.755 225.341L431.755 225.342L431.754 225.343L431.754 225.344L431.754 225.345L431.753 225.346L431.753 225.347L431.753 225.348L431.753 225.349L431.752 225.35L431.752 225.352L431.752 225.353L431.751 225.354L431.751 225.355L431.751 225.356L431.751 225.357L431.75 225.358L431.75 225.359L431.75 225.36L431.749 225.361L431.749 225.362L431.749 225.363L431.749 225.364L431.748 225.365L431.748 225.366L431.748 225.368L431.747 225.369L431.747 225.37L431.747 225.371L431.747 225.372L431.746 225.373L431.746 225.374L431.746 225.375L431.745 225.376L431.745 225.377L431.745 225.378L431.745 225.379L431.744 225.38L431.744 225.381L431.744 225.382L431.743 225.384L431.743 225.385L431.743 225.386L431.743 225.387L431.742 225.388L431.742 225.389L431.742 225.39L431.741 225.391L431.741 225.392L431.741 225.393L431.741 225.394L431.74 225.395L431.74 225.396L431.74 225.397L431.739 225.398L431.739 225.4L431.739 225.401L431.739 225.402L431.738 225.403L431.738 225.404L431.738 225.405L431.737 225.406L431.737 225.407L431.737 225.408L431.737 225.409L431.736 225.41L431.736 225.411L431.736 225.412L431.735 225.413L431.735 225.414L431.735 225.415L431.735 225.417L431.734 225.418L431.734 225.419L431.734 225.42L431.733 225.421L431.733 225.422L431.733 225.423L431.733 225.424L431.732 225.425L431.732 225.426L431.732 225.427L431.731 225.428L431.731 225.429L431.731 225.43L431.731 225.431L431.73 225.433L431.73 225.434L431.73 225.435L431.729 225.436L431.729 225.437L431.729 225.438L431.729 225.439L431.728 225.44L431.728 225.441L431.728 225.442L431.728 225.443L431.727 225.444L431.727 225.445L431.727 225.446L431.726 225.447L431.726 225.449L431.726 225.45L431.726 225.451L431.725 225.452L431.725 225.453L431.725 225.454L431.724 225.455L431.724 225.456L431.724 225.457L431.724 225.458L431.723 225.459L431.723 225.46L431.723 225.461L431.722 225.462L431.722 225.463L431.722 225.465L431.722 225.466L431.721 225.467L431.721 225.468L431.721 225.469L431.72 225.47L431.72 225.471L431.72 225.472L431.72 225.473L431.719 225.474L431.719 225.475L431.719 225.476L431.718 225.477L431.718 225.478L431.718 225.479L431.718 225.48L431.717 225.482L431.717 225.483L431.717 225.484L431.716 225.485L431.716 225.486L431.716 225.487L431.716 225.488L431.715 225.489L431.715 225.49L431.715 225.491L431.714 225.492L431.714 225.493L431.714 225.494L431.714 225.495L431.713 225.496L431.713 225.498L431.713 225.499L431.712 225.5L431.712 225.501L431.712 225.502L431.712 225.503L431.711 225.504L431.711 225.505L431.711 225.506L431.71 225.507L431.71 225.508L431.71 225.509L431.71 225.51L431.709 225.511L431.709 225.512L431.709 225.514L431.708 225.515L431.708 225.516L431.708 225.517L431.708 225.518L431.707 225.519L431.707 225.52L431.707 225.521L431.706 225.522L431.706 225.523L431.706 225.524L431.706 225.525L431.705 225.526L431.705 225.527L431.705 225.528L431.704 225.529L431.704 225.531L431.704 225.532L431.704 225.533L431.703 225.534L431.703 225.535L431.703 225.536L431.702 225.537L431.702 225.538L431.702 225.539L431.702 225.54L431.701 225.541L431.701 225.542L431.701 225.543L431.7 225.544L431.7 225.545L431.7 225.547L431.7 225.548L431.699 225.549L431.699 225.55L431.699 225.551L431.698 225.552L431.698 225.553L431.698 225.554L431.698 225.555L431.697 225.556L431.697 225.557L431.697 225.558L431.696 225.559L431.696 225.56L431.696 225.561L431.696 225.563L431.695 225.564L431.695 225.565L431.695 225.566L431.694 225.567L431.694 225.568L431.694 225.569L431.694 225.57L431.693 225.571L431.693 225.572L431.693 225.573L431.692 225.574L431.692 225.575L431.692 225.576L431.692 225.577L431.691 225.578L431.691 225.58L431.691 225.581L431.69 225.582L431.69 225.583L431.69 225.584L431.69 225.585L431.689 225.586L431.689 225.587L431.689 225.588L431.688 225.589L431.688 225.59L431.688 225.591L431.688 225.592L431.687 225.593L431.687 225.594L431.687 225.596L431.686 225.597L431.686 225.598L431.686 225.599L431.686 225.6L431.685 225.601L431.685 225.602L431.685 225.603L431.684 225.604L431.684 225.605L431.684 225.606L431.684 225.607L431.683 225.608L431.683 225.609L431.683 225.61L431.682 225.612L431.682 225.613L431.682 225.614L431.682 225.615L431.681 225.616L431.681 225.617L431.681 225.618L431.68 225.619L431.68 225.62L431.68 225.621L431.68 225.622L431.679 225.623L431.679 225.624L431.679 225.625L431.678 225.626L431.678 225.627L431.678 225.629L431.678 225.63L431.677 225.631L431.677 225.632L431.677 225.633L431.676 225.634L431.676 225.635L431.676 225.636L431.676 225.637L431.675 225.638L431.675 225.639L431.675 225.64L431.674 225.641L431.674 225.642L431.674 225.643L431.674 225.645L431.673 225.646L431.673 225.647L431.673 225.648L431.672 225.649L431.672 225.65L431.672 225.651L431.672 225.652L431.671 225.653L431.671 225.654L431.671 225.655L431.67 225.656L431.67 225.657L431.67 225.658L431.67 225.659L431.669 225.661L431.669 225.662L431.669 225.663L431.668 225.664L431.668 225.665L431.668 225.666L431.668 225.667L431.667 225.668L431.667 225.669L431.667 225.67L431.666 225.671L431.666 225.672L431.666 225.673L431.666 225.674L431.665 225.675L431.665 225.677L431.665 225.678L431.664 225.679L431.664 225.68L431.664 225.681L431.664 225.682L431.663 225.683L431.663 225.684L431.663 225.685L431.662 225.686L431.662 225.687L431.662 225.688L431.662 225.689L431.661 225.69L431.661 225.691L431.661 225.692L431.66 225.694L431.66 225.695L431.66 225.696L431.66 225.697L431.659 225.698L431.659 225.699L431.659 225.7L431.658 225.701L431.658 225.702L431.658 225.703L431.658 225.704L431.657 225.705L431.657 225.706L431.657 225.707L431.656 225.708L431.656 225.71L431.656 225.711L431.656 225.712L431.655 225.713L431.655 225.714L431.655 225.715L431.654 225.716L431.654 225.717L431.654 225.718L431.654 225.719L431.653 225.72L431.653 225.721L431.653 225.722L431.652 225.723L431.652 225.724L431.652 225.726L431.652 225.727L431.651 225.728L431.651 225.729L431.651 225.73L431.65 225.731L431.65 225.732L431.65 225.733L431.65 225.734L431.649 225.735L431.649 225.736L431.649 225.737L431.648 225.738L431.648 225.739L431.648 225.74L431.648 225.742L431.647 225.743L431.647 225.744L431.647 225.745L431.646 225.746L431.646 225.747L431.646 225.748L431.646 225.749L431.645 225.75L431.645 225.751L431.645 225.752L431.644 225.753L431.644 225.754L431.644 225.755L431.644 225.756L431.643 225.757L431.643 225.759L431.643 225.76L431.642 225.761L431.642 225.762L431.642 225.763L431.642 225.764L431.641 225.765L431.641 225.766L431.641 225.767L431.64 225.768L431.64 225.769L431.64 225.77L431.64 225.771L431.639 225.772L431.639 225.773L431.639 225.775L431.638 225.776L431.638 225.777L431.638 225.778L431.638 225.779L431.637 225.78L431.637 225.781L431.637 225.782L431.636 225.783L431.636 225.784L431.636 225.785L431.636 225.786L431.635 225.787L431.635 225.788L431.635 225.789L431.634 225.791L431.634 225.792L431.634 225.793L431.634 225.794L431.633 225.795L431.633 225.796L431.633 225.797L431.632 225.798L431.632 225.799L431.632 225.8L431.632 225.801L431.631 225.802L431.631 225.803L431.631 225.804L431.63 225.805L431.63 225.806L431.63 225.808L431.63 225.809L431.629 225.81L431.629 225.811L431.629 225.812L431.628 225.813L431.628 225.814L431.628 225.815L431.628 225.816L431.627 225.817L431.627 225.818L431.627 225.819L431.626 225.82L431.626 225.821L431.626 225.822L431.626 225.824L431.625 225.825L431.625 225.826L431.625 225.827L431.624 225.828L431.624 225.829L431.624 225.83L431.624 225.831L431.623 225.832L431.623 225.833L431.623 225.834L431.622 225.835L431.622 225.836L431.622 225.837L431.622 225.838L431.621 225.84L431.621 225.841L431.621 225.842L431.62 225.843L431.62 225.844L431.62 225.845L431.62 225.846L431.619 225.847L431.619 225.848L431.619 225.849L431.618 225.85L431.618 225.851L431.618 225.852L431.618 225.853L431.617 225.854L431.617 225.855L431.617 225.857L431.616 225.858L431.616 225.859L431.616 225.86L431.616 225.861L431.615 225.862L431.615 225.863L431.615 225.864L431.614 225.865L431.614 225.866L431.614 225.867L431.614 225.868L431.613 225.869L431.613 225.87L431.613 225.871L431.612 225.873L431.612 225.874L431.612 225.875L431.612 225.876L431.611 225.877L431.607 225.892L401.283 339.063C376.294 313.945 370.5 275.658 384.404 223.768L428.052 60.87L472.625 72.8132L431.757 225.331Z" stroke="white" stroke-width="2"/>
<path d="M783.984 319.694L824.851 167.176L868.984 179.001L825.335 341.899C814.884 380.906 798.63 407.713 776.7 422.54C754.8 437.347 727.052 440.33 693.312 431.29C674.843 426.341 659.742 419.17 647.956 409.8L664.624 347.596C665.991 358.96 669.479 368.432 675.148 375.948C681.743 384.691 691.224 390.705 703.531 394.002C722.347 399.044 738.564 395.327 752.039 382.809C765.446 370.354 776.062 349.259 783.984 319.694Z" stroke="white" stroke-width="2"/>
<path d="M671.007 289.438L671.007 289.439L671.006 289.44L671.006 289.441L671.006 289.442L671.006 289.443L671.005 289.445L671.005 289.446L671.005 289.447L671.004 289.448L671.004 289.449L671.004 289.45L671.004 289.451L671.003 289.452L671.003 289.453L671.003 289.454L671.002 289.455L671.002 289.456L671.002 289.457L671.002 289.458L671.001 289.459L671.001 289.46L671.001 289.462L671 289.463L671 289.464L671 289.465L671 289.466L670.999 289.467L670.999 289.468L670.999 289.469L670.998 289.47L670.998 289.471L670.998 289.472L670.998 289.473L670.997 289.474L670.997 289.475L670.997 289.476L670.996 289.478L670.996 289.479L670.996 289.48L670.996 289.481L670.995 289.482L670.995 289.483L670.995 289.484L670.994 289.485L670.994 289.486L670.994 289.487L670.994 289.488L670.993 289.489L670.993 289.49L670.993 289.491L670.992 289.492L670.992 289.494L670.992 289.495L670.992 289.496L670.991 289.497L670.991 289.498L670.991 289.499L670.99 289.5L670.99 289.501L670.99 289.502L670.99 289.503L670.989 289.504L670.989 289.505L670.989 289.506L670.988 289.507L670.988 289.508L670.988 289.51L670.988 289.511L670.987 289.512L670.987 289.513L670.987 289.514L670.986 289.515L670.986 289.516L670.986 289.517L670.986 289.518L670.985 289.519L670.985 289.52L670.985 289.521L670.984 289.522L670.984 289.523L670.984 289.524L670.984 289.525L670.983 289.527L670.983 289.528L670.983 289.529L670.982 289.53L670.982 289.531L670.982 289.532L670.982 289.533L670.981 289.534L670.981 289.535L670.981 289.536L670.98 289.537L670.98 289.538L670.98 289.539L670.98 289.54L670.979 289.541L670.979 289.543L670.979 289.544L670.978 289.545L670.978 289.546L670.978 289.547L670.978 289.548L670.977 289.549L670.977 289.55L670.977 289.551L670.976 289.552L670.976 289.553L670.976 289.554L670.976 289.555L670.975 289.556L670.975 289.557L670.975 289.559L670.974 289.56L670.974 289.561L670.974 289.562L670.974 289.563L670.973 289.564L670.973 289.565L670.973 289.566L670.972 289.567L670.972 289.568L670.972 289.569L670.972 289.57L670.971 289.571L670.971 289.572L670.971 289.573L670.97 289.574L670.97 289.576L670.97 289.577L670.97 289.578L670.969 289.579L670.969 289.58L670.969 289.581L670.968 289.582L670.968 289.583L670.968 289.584L670.968 289.585L670.967 289.586L670.967 289.587L670.967 289.588L670.966 289.589L670.966 289.59L670.966 289.592L670.966 289.593L670.965 289.594L670.965 289.595L670.965 289.596L670.964 289.597L670.964 289.598L670.964 289.599L670.964 289.6L670.963 289.601L670.963 289.602L670.963 289.603L670.962 289.604L670.962 289.605L670.962 289.606L670.962 289.608L670.961 289.609L670.961 289.61L670.961 289.611L670.96 289.612L670.96 289.613L670.96 289.614L670.96 289.615L670.959 289.616L670.959 289.617L670.959 289.618L670.958 289.619L670.958 289.62L670.958 289.621L670.958 289.622L670.957 289.624L670.957 289.625L670.957 289.626L670.956 289.627L670.956 289.628L670.956 289.629L670.956 289.63L670.955 289.631L670.955 289.632L670.955 289.633L670.954 289.634L670.954 289.635L670.954 289.636L670.954 289.637L670.953 289.638L670.953 289.639L670.953 289.641L670.952 289.642L670.952 289.643L670.952 289.644L670.952 289.645L670.951 289.646L670.951 289.647L670.951 289.648L670.95 289.649L670.95 289.65L670.95 289.651L670.95 289.652L670.949 289.653L670.949 289.654L670.949 289.655L670.948 289.657L670.948 289.658L670.948 289.659L670.948 289.66L670.947 289.661L670.947 289.662L670.947 289.663L670.946 289.664L670.946 289.665L670.946 289.666L670.946 289.667L670.945 289.668L670.945 289.669L670.945 289.67L670.944 289.671L670.944 289.673L670.944 289.674L670.944 289.675L670.943 289.676L670.943 289.677L670.943 289.678L670.942 289.679L670.942 289.68L670.942 289.681L670.942 289.682L670.941 289.683L670.941 289.684L670.941 289.685L670.94 289.686L670.94 289.687L670.94 289.688L670.94 289.69L670.939 289.691L670.939 289.692L670.939 289.693L670.938 289.694L670.938 289.695L670.938 289.696L670.938 289.697L670.937 289.698L670.937 289.699L670.937 289.7L670.936 289.701L670.936 289.702L670.936 289.703L670.936 289.704L670.935 289.706L670.935 289.707L670.935 289.708L670.934 289.709L670.934 289.71L670.934 289.711L670.934 289.712L670.933 289.713L670.933 289.714L670.933 289.715L670.932 289.716L670.932 289.717L670.932 289.718L670.932 289.719L670.931 289.72L670.931 289.722L670.931 289.723L670.93 289.724L670.93 289.725L670.93 289.726L670.93 289.727L670.929 289.728L670.929 289.729L670.929 289.73L670.928 289.731L670.928 289.732L670.928 289.733L670.928 289.734L670.927 289.735L670.927 289.736L670.927 289.737L670.926 289.739L670.926 289.74L670.926 289.741L670.926 289.742L670.925 289.743L670.925 289.744L670.925 289.745L670.924 289.746L670.924 289.747L670.924 289.748L670.924 289.749L670.923 289.75L670.923 289.751L670.923 289.752L670.922 289.753L670.922 289.755L670.922 289.756L670.922 289.757L670.921 289.758L670.921 289.759L670.921 289.76L670.92 289.761L670.92 289.762L670.92 289.763L670.92 289.764L670.919 289.765L670.919 289.766L670.919 289.767L670.918 289.768L670.918 289.769L670.918 289.771L670.918 289.772L670.917 289.773L670.917 289.774L670.917 289.775L670.916 289.776L670.916 289.777L670.916 289.778L670.916 289.779L670.915 289.78L670.915 289.781L670.915 289.782L670.914 289.783L670.914 289.784L670.914 289.785L670.914 289.787L670.913 289.788L670.913 289.789L670.913 289.79L670.912 289.791L670.912 289.792L670.912 289.793L670.912 289.794L670.911 289.795L670.911 289.796L670.911 289.797L670.91 289.798L670.91 289.799L670.91 289.8L670.91 289.801L670.909 289.802L670.909 289.804L670.909 289.805L670.908 289.806L670.908 289.807L670.908 289.808L670.908 289.809L670.907 289.81L670.907 289.811L670.907 289.812L670.906 289.813L670.906 289.814L670.906 289.815L670.906 289.816L670.905 289.817L670.905 289.818L670.905 289.82L670.904 289.821L670.904 289.822L670.904 289.823L670.904 289.824L670.903 289.825L670.903 289.826L670.903 289.827L670.902 289.828L670.902 289.829L670.902 289.83L670.902 289.831L670.901 289.832L670.901 289.833L670.901 289.834L670.9 289.836L670.9 289.837L670.9 289.838L670.9 289.839L670.899 289.84L670.899 289.841L670.899 289.842L670.898 289.843L670.898 289.844L670.898 289.845L670.898 289.846L670.897 289.847L670.897 289.848L670.897 289.849L670.896 289.85L670.896 289.852L670.896 289.853L670.896 289.854L670.895 289.855L670.895 289.856L670.895 289.857L670.894 289.858L670.894 289.859L670.894 289.86L670.894 289.861L670.893 289.862L670.893 289.863L670.893 289.864L670.892 289.865L670.892 289.866L670.892 289.867L670.892 289.869L670.891 289.87L670.891 289.871L670.891 289.872L670.89 289.873L670.89 289.874L670.89 289.875L670.89 289.876L670.889 289.877L670.889 289.878L670.889 289.879L670.888 289.88L670.888 289.881L670.888 289.882L670.888 289.883L670.887 289.885L670.887 289.886L670.887 289.887L670.886 289.888L670.886 289.889L670.886 289.89L670.886 289.891L670.885 289.892L670.885 289.893L670.885 289.894L670.884 289.895L670.884 289.896L670.884 289.897L670.884 289.898L670.883 289.899L670.883 289.901L670.883 289.902L670.882 289.903L670.882 289.904L670.882 289.905L670.882 289.906L670.881 289.907L670.881 289.908L670.881 289.909L670.88 289.91L670.88 289.911L670.88 289.912L670.88 289.913L670.879 289.914L670.879 289.915L670.879 289.916L670.878 289.918L670.878 289.919L670.878 289.92L670.878 289.921L670.877 289.922L670.877 289.923L670.877 289.924L670.876 289.925L670.876 289.926L670.876 289.927L670.876 289.928L670.875 289.929L670.875 289.93L670.875 289.931L670.874 289.932L670.874 289.934L670.874 289.935L670.874 289.936L670.873 289.937L670.873 289.938L670.873 289.939L670.872 289.94L670.872 289.941L670.872 289.942L670.872 289.943L670.871 289.944L670.871 289.945L670.871 289.946L670.87 289.947L670.87 289.948L670.87 289.95L670.87 289.951L670.869 289.952L670.869 289.953L670.869 289.954L670.868 289.955L670.868 289.956L670.868 289.957L670.868 289.958L670.867 289.959L670.867 289.96L670.867 289.961L670.866 289.962L670.866 289.963L670.866 289.964L670.866 289.965L670.865 289.967L670.865 289.968L670.865 289.969L670.864 289.97L670.864 289.971L670.864 289.972L670.864 289.973L670.863 289.974L670.863 289.975L670.863 289.976L670.862 289.977L670.862 289.978L670.862 289.979L670.862 289.98L670.861 289.981L670.861 289.983L670.861 289.984L670.857 289.999L640.533 403.17C615.544 378.051 609.749 339.765 623.653 287.875L667.302 124.977L711.874 136.92L671.007 289.438Z" stroke="white" stroke-width="2"/>
<path d="M880.775 481.521L836.201 469.577L911.041 190.27L944.807 199.318L1040.47 437.405L1024.11 498.432L936.566 282.064L935.45 279.306L934.674 282.178L880.775 481.521Z" stroke="white" stroke-width="2"/>
<path d="M255.369 123.859L255.371 123.87L267.558 177.222L234.235 301.585L232.561 307.832L188.004 295.893L189.678 289.646L223.065 165.043L223.134 164.785L223.065 164.526L177.33 -6.327L230.135 7.82188L255.369 123.859Z" stroke="white" stroke-width="2"/>
<path d="M1031.49 505.188L1102.15 241.478L1146.12 253.258L1071.5 531.728L1071.28 532.565L1027.31 520.784L1027.53 519.947L1031.49 505.188Z" stroke="white" stroke-width="2"/>
<path d="M1133.55 542.557L1206.72 269.497L1251.29 281.44L1178.13 554.5L1176.45 560.747L1131.88 548.804L1133.55 542.557Z" stroke="white" stroke-width="2"/>
</g>
<rect x="485" y="174.96" width="20" height="72" transform="rotate(-29.8677 485 174.96)" fill="white"/>
<rect x="485" y="174.96" width="7" height="72" transform="rotate(-29.8677 485 174.96)" fill="#FFEF00"/>
<path d="M538.199 227.437L536.002 243.69L520.856 237.397L538.199 227.437Z" fill="#E7E7E7"/>
<path d="M536.611 238.727L536.002 243.69L531.408 241.715L536.611 238.727Z" fill="#333333"/>
<path fill-rule="evenodd" clip-rule="evenodd" d="M410 286.517L400 303.837L420.785 315.837L407.785 338.354L425.105 348.354L438.105 325.837L462.354 339.837L472.354 322.517L448.105 308.517L461.105 286L443.785 276L430.785 298.517L410 286.517Z" fill="#FFEF00"/>
<path d="M758.503 170C739.236 187.773 722.839 207.2 713 224.973L724.478 232C735.137 222.907 762.739 202.102 779 196.453L758.503 170Z" fill="#FFEF00"/>
<path d="M778.423 218.465C761.193 225.323 745.46 233.99 734.499 243.216L740.385 250.724C749.732 247.416 773.258 240.657 785.475 241.024L778.423 218.465Z" fill="#FFEF00"/>
<path d="M648.742 509.052L673.046 449.819L680.475 451.403L656.128 510.627L648.742 509.052ZM665.145 512.55L689.493 453.326L696.922 454.91L672.574 514.135L665.145 512.55ZM697.846 480.679L653.144 471.146L654.606 464.291L699.308 473.824L697.846 480.679ZM690.359 499.788L645.7 490.264L647.162 483.409L691.821 492.933L690.359 499.788Z" fill="#FFEF00"/>
<rect x="747" y="300" width="7.84611" height="8.93932" fill="#E7E7E7" stroke="#E7E7E7" stroke-width="2"/>
<rect x="747" y="392.984" width="7.84611" height="8.93932" fill="#E7E7E7" stroke="#E7E7E7" stroke-width="2"/>
<rect x="849.153" y="392.984" width="7.84611" height="8.93932" fill="#E7E7E7" stroke="#E7E7E7" stroke-width="2"/>
<rect x="849.153" y="300" width="7.84611" height="8.93932" fill="#E7E7E7" stroke="#E7E7E7" stroke-width="2"/>
<path d="M755.846 304.47H848.153" stroke="#E7E7E7" stroke-width="2" stroke-linecap="round"/>
<path d="M853.076 309.939V391.984" stroke="#E7E7E7" stroke-width="2" stroke-linecap="round"/>
<path d="M755.846 397.454H848.153" stroke="#E7E7E7" stroke-width="2" stroke-linecap="round"/>
<path d="M750.923 309.939V391.984" stroke="#E7E7E7" stroke-width="2" stroke-linecap="square"/>
<path d="M791.179 450C790.893 450.002 790.61 449.947 790.345 449.839C790.081 449.731 789.84 449.572 789.638 449.371L776.333 436.058L769.105 446.899C768.875 447.252 768.547 447.529 768.162 447.699C767.776 447.868 767.35 447.922 766.935 447.853C766.528 447.793 766.146 447.618 765.835 447.349C765.524 447.081 765.296 446.729 765.177 446.336L752.154 402.97C751.999 402.582 751.96 402.157 752.041 401.747C752.123 401.337 752.321 400.959 752.612 400.659C752.903 400.359 753.275 400.149 753.683 400.055C754.091 399.962 754.517 399.987 754.91 400.13L798.319 413.139C798.713 413.258 799.065 413.486 799.334 413.797C799.603 414.108 799.778 414.489 799.839 414.896C799.907 415.311 799.853 415.737 799.684 416.122C799.514 416.507 799.236 416.834 798.884 417.064L788.031 424.284L801.358 437.576C801.561 437.777 801.723 438.017 801.833 438.281C801.943 438.546 802 438.829 802 439.115C802 439.402 801.943 439.685 801.833 439.949C801.723 440.213 801.561 440.453 801.358 440.655L792.676 449.328C792.284 449.739 791.747 449.98 791.179 450ZM791.179 444.774L796.8 439.159L781.26 423.656L792.654 416.067L757.515 405.529L768.063 440.633L775.66 429.25L791.179 444.774Z" fill="#FFEF00"/>
<path fill-rule="evenodd" clip-rule="evenodd" d="M410.736 467.254C412.789 465.474 415.896 465.694 417.676 467.746C424.68 475.821 429.807 477.038 433.41 476.248C437.552 475.341 442.127 471.374 446.883 463.904C452.596 454.93 460.485 450.867 468.504 451.05C476.259 451.227 483.373 455.364 487.927 461.221C491.041 465.225 494.856 467.417 499 467.529C503.188 467.642 508.822 465.661 515.57 458.981C517.502 457.069 520.617 457.085 522.528 459.015C524.439 460.945 524.423 464.06 522.492 465.972C514.565 473.819 506.48 477.574 498.73 477.364C490.936 477.154 484.594 472.965 480.159 467.262C477.165 463.411 472.684 460.987 468.276 460.886C464.132 460.792 459.29 462.734 455.183 469.185C450.118 477.141 443.688 484.069 435.513 485.859C426.799 487.768 418.3 483.484 410.242 474.194C408.462 472.142 408.683 469.035 410.736 467.254Z" fill="#E7E7E7"/>
<circle cx="530.441" cy="425.311" r="8" transform="rotate(27.9488 530.441 425.311)" fill="#FFEF00"/>
</g>
<defs>
<clipPath id="clip0_511_2998">
<rect width="1200" height="630" fill="white"/>
</clipPath>
</defs>
</svg>
