<svg width="1384" height="209" viewBox="0 0 1384 209" fill="none" xmlns="http://www.w3.org/2000/svg">
<g opacity="0.5">
<path d="M87.7638 122.711C87.7638 119.746 87.305 117.099 86.3875 114.77C85.5406 112.37 83.9526 110.217 81.6235 108.312C79.365 106.335 76.1537 104.429 71.9896 102.594C67.8961 100.688 62.6027 98.7121 56.1095 96.6651C48.9106 94.4065 42.2057 91.8654 35.9948 89.042C29.7839 86.2187 24.3141 82.9365 19.5854 79.1955C14.9273 75.4546 11.2925 71.1489 8.6811 66.2786C6.06971 61.3377 4.76402 55.6204 4.76402 49.1266C4.76402 42.7741 6.105 36.9862 8.78697 31.7629C11.5395 26.5397 15.4213 22.0576 20.4323 18.3166C25.4434 14.5051 31.3366 11.5758 38.1121 9.52888C44.9582 7.48193 52.5101 6.45846 60.7677 6.45846C72.2013 6.45846 82.0823 8.5407 90.4105 12.7052C98.8092 16.8696 105.302 22.5164 109.89 29.6454C114.478 36.7744 116.771 44.7857 116.771 53.6793H87.7638C87.7638 48.8796 86.7404 44.6445 84.6936 40.9742C82.7175 37.3038 79.6826 34.4098 75.5891 32.2923C71.5661 30.1748 66.4845 29.116 60.3442 29.116C54.4157 29.116 49.4752 29.9983 45.5228 31.7629C41.641 33.5275 38.7121 35.9274 36.7359 38.9625C34.8303 41.9976 33.8775 45.3857 33.8775 49.1266C33.8775 51.95 34.5479 54.4911 35.8889 56.7497C37.2299 58.9379 39.2414 61.0201 41.9234 62.9965C44.6053 64.9022 47.9225 66.7021 51.8749 68.3962C55.8978 70.0196 60.556 71.643 65.8493 73.2665C74.3187 75.8075 81.7294 78.6309 88.0814 81.7366C94.504 84.8423 99.8326 88.3715 104.067 92.3242C108.373 96.2769 111.584 100.724 113.701 105.665C115.889 110.606 116.983 116.217 116.983 122.499C116.983 129.134 115.677 135.063 113.066 140.286C110.455 145.509 106.714 149.956 101.844 153.627C96.9742 157.297 91.1162 160.085 84.2702 161.991C77.4947 163.897 69.9075 164.85 61.5088 164.85C54.0275 164.85 46.6168 163.861 39.2767 161.885C32.0071 159.838 25.4081 156.803 19.4795 152.78C13.551 148.686 8.82225 143.533 5.29335 137.322C1.76445 131.04 0 123.699 0 115.299H29.2193C29.2193 120.17 29.9957 124.334 31.5484 127.793C33.1717 131.181 35.4302 133.969 38.3239 136.157C41.2881 138.275 44.7465 139.827 48.6988 140.816C52.6512 141.804 56.9212 142.298 61.5088 142.298C67.4373 142.298 72.3072 141.486 76.1184 139.863C80.0002 138.169 82.8939 135.839 84.7995 132.875C86.7757 129.91 87.7638 126.522 87.7638 122.711Z" fill="#C8E7ED"/>
<path d="M165.258 0V162.732H137.31V0H165.258ZM237.036 48.1738L187.173 104.182L160.177 131.604L151.284 109.9L172.14 83.6424L203.265 48.1738H237.036ZM208.452 162.732L172.987 109.37L191.619 91.2655L240.848 162.732H208.452Z" fill="#C8E7ED"/>
<path d="M281.5 48.1738V162.732H253.446V48.1738H281.5ZM251.54 18.2107C251.54 14.0463 252.952 10.5876 255.775 7.83485C258.668 5.08207 262.55 3.70567 267.42 3.70567C272.29 3.70567 276.137 5.08207 278.96 7.83485C281.853 10.5876 283.3 14.0463 283.3 18.2107C283.3 22.3046 281.853 25.728 278.96 28.4807C276.137 31.2335 272.29 32.6099 267.42 32.6099C262.55 32.6099 258.668 31.2335 255.775 28.4807C252.952 25.728 251.54 22.3046 251.54 18.2107Z" fill="#C8E7ED"/>
<path d="M337.822 0.105876V162.732H309.767V0.105876H337.822Z" fill="#C8E7ED"/>
<path d="M394.143 0.105876V162.732H366.088V0.105876H394.143Z" fill="#C8E7ED"/>
<path d="M483.812 131.393C483.812 128.993 483.177 126.84 481.907 124.934C480.636 123.028 478.237 121.299 474.708 119.746C471.25 118.123 466.168 116.605 459.463 115.194C453.534 113.923 448.065 112.335 443.054 110.429C438.043 108.523 433.737 106.229 430.138 103.547C426.538 100.794 423.715 97.5827 421.668 93.9124C419.692 90.1714 418.704 85.8658 418.704 80.9954C418.704 76.2663 419.728 71.8195 421.774 67.655C423.821 63.42 426.785 59.7143 430.667 56.538C434.549 53.2911 439.278 50.7501 444.853 48.9149C450.429 47.0091 456.71 46.0562 463.698 46.0562C473.437 46.0562 481.801 47.6444 488.788 50.8207C495.846 53.997 501.245 58.3732 504.986 63.9493C508.726 69.4549 510.597 75.6663 510.597 82.5836H482.648C482.648 79.5485 481.942 76.7957 480.531 74.3252C479.19 71.8548 477.108 69.8784 474.284 68.3962C471.461 66.8433 467.897 66.0669 463.592 66.0669C459.71 66.0669 456.428 66.7021 453.746 67.9726C451.135 69.2432 449.159 70.9019 447.818 72.9488C446.477 74.9958 445.806 77.2545 445.806 79.7249C445.806 81.5601 446.159 83.2188 446.865 84.7011C447.641 86.1128 448.876 87.4186 450.57 88.6185C452.264 89.8185 454.558 90.9125 457.452 91.9007C460.416 92.8889 464.051 93.8418 468.356 94.7594C476.896 96.4534 484.342 98.7121 490.694 101.535C497.116 104.288 502.127 107.959 505.727 112.547C509.326 117.135 511.126 122.993 511.126 130.122C511.126 135.204 510.032 139.863 507.844 144.098C505.656 148.262 502.48 151.897 498.316 155.003C494.152 158.109 489.176 160.544 483.389 162.309C477.602 164.003 471.073 164.85 463.804 164.85C453.287 164.85 444.395 162.979 437.125 159.238C429.856 155.427 424.35 150.627 420.61 144.839C416.869 138.98 414.999 132.91 414.999 126.628H441.783C441.995 131.075 443.195 134.639 445.383 137.322C447.571 140.004 450.323 141.945 453.64 143.145C457.028 144.274 460.592 144.839 464.333 144.839C468.568 144.839 472.132 144.274 475.025 143.145C477.919 141.945 480.107 140.357 481.589 138.38C483.071 136.334 483.812 134.004 483.812 131.393Z" fill="#C8E7ED"/>
<path d="M611.594 79.5132L639.649 61.0907C644.095 58.1261 647.165 55.2675 648.859 52.5147C650.553 49.7619 651.4 46.4444 651.4 42.5623C651.4 39.1037 650.059 35.8921 647.377 32.9276C644.766 29.8924 641.06 28.3749 636.261 28.3749C632.873 28.3749 630.015 29.1513 627.686 30.7042C625.357 32.257 623.592 34.3392 622.392 36.9509C621.263 39.4919 620.699 42.3153 620.699 45.421C620.699 48.5973 621.51 51.8441 623.133 55.1616C624.827 58.4791 627.086 61.973 629.909 65.6434C632.803 69.2432 636.014 73.1606 639.543 77.3956L712.274 162.732H680.302L620.804 93.4889C615.793 87.2774 611.347 81.5601 607.465 76.3369C603.583 71.1136 600.548 66.0669 598.361 61.1966C596.243 56.2557 595.185 51.1736 595.185 45.9504C595.185 37.9037 596.878 30.9159 600.266 24.9868C603.654 19.0578 608.418 14.4698 614.558 11.2229C620.769 7.97602 628.039 6.35258 636.367 6.35258C644.272 6.35258 651.082 7.97602 656.799 11.2229C662.587 14.3992 667.068 18.6342 670.244 23.9281C673.42 29.2219 675.008 35.0098 675.008 41.2918C675.008 46.0915 674.126 50.5383 672.362 54.6322C670.597 58.6555 668.162 62.3612 665.057 65.7492C661.951 69.0667 658.352 72.2077 654.258 75.1722L621.228 98.8886C618.052 101.571 615.652 104.218 614.029 106.829C612.476 109.37 611.418 111.735 610.853 113.923C610.359 116.111 610.112 118.158 610.112 120.064C610.112 124.369 611.029 128.252 612.864 131.71C614.77 135.098 617.452 137.816 620.91 139.863C624.439 141.839 628.603 142.827 633.403 142.827C639.261 142.827 644.907 141.521 650.341 138.91C655.776 136.298 660.646 132.593 664.951 127.793C669.327 122.993 672.785 117.276 675.326 110.641C677.937 103.935 679.243 96.5593 679.243 88.5127H703.169C703.169 96.2063 702.428 103.512 700.946 110.429C699.464 117.276 697.064 123.628 693.747 129.487C690.43 135.345 686.089 140.569 680.725 145.157C680.231 145.58 679.631 146.145 678.925 146.851C678.29 147.556 677.726 148.121 677.232 148.545C670.809 154.05 663.857 158.179 656.376 160.932C648.965 163.614 640.884 164.955 632.132 164.955C621.828 164.955 612.935 163.085 605.454 159.344C597.972 155.603 592.185 150.45 588.091 143.886C584.069 137.322 582.057 129.804 582.057 121.334C582.057 115.052 583.292 109.582 585.762 104.924C588.303 100.194 591.797 95.8181 596.243 91.7948C600.69 87.7009 605.807 83.6071 611.594 79.5132Z" fill="#C8E7ED"/>
<path d="M844.607 31.9747L800.673 162.732H769.865L827.457 8.57599H847.148L844.607 31.9747ZM881.343 162.732L837.197 31.9747L834.55 8.57599H854.347L912.256 162.732H881.343ZM879.332 105.453V128.428H796.65V105.453H879.332Z" fill="#C8E7ED"/>
<path d="M925.913 0.105876H953.968V137.428L951.215 162.732H925.913V0.105876ZM1027.65 104.288V106.512C1027.65 115.052 1026.7 122.887 1024.79 130.016C1022.96 137.145 1020.17 143.321 1016.43 148.545C1012.69 153.697 1008.03 157.721 1002.46 160.614C996.95 163.438 990.492 164.85 983.081 164.85C976.024 164.85 969.883 163.473 964.661 160.72C959.508 157.968 955.168 154.085 951.639 149.074C948.11 143.992 945.287 138.028 943.17 131.181C941.052 124.264 939.464 116.711 938.406 108.523V102.488C939.464 94.23 941.052 86.6775 943.17 79.8308C945.287 72.9841 948.11 67.0198 951.639 61.9377C955.168 56.8556 959.508 52.9382 964.661 50.1854C969.813 47.4326 975.882 46.0562 982.87 46.0562C990.351 46.0562 996.879 47.5032 1002.46 50.3972C1008.1 53.2205 1012.76 57.2438 1016.43 62.4671C1020.17 67.6197 1022.96 73.7606 1024.79 80.8896C1026.7 87.948 1027.65 95.7476 1027.65 104.288ZM999.597 106.512V104.288C999.597 99.4179 999.209 94.83 998.432 90.5243C997.656 86.1481 996.385 82.3013 994.621 78.9838C992.856 75.6663 990.457 73.0547 987.422 71.1489C984.387 69.2432 980.576 68.2903 975.988 68.2903C971.613 68.2903 967.872 69.0314 964.766 70.5137C961.732 71.9959 959.191 74.0429 957.144 76.6545C955.168 79.2661 953.615 82.3365 952.486 85.8658C951.427 89.395 950.721 93.2065 950.369 97.3004V113.817C950.863 119.252 952.027 124.158 953.862 128.534C955.697 132.84 958.414 136.263 962.014 138.804C965.684 141.345 970.413 142.616 976.2 142.616C980.717 142.616 984.493 141.733 987.528 139.969C990.563 138.133 992.962 135.592 994.727 132.345C996.491 129.028 997.726 125.181 998.432 120.805C999.209 116.429 999.597 111.664 999.597 106.512Z" fill="#C8E7ED"/>
<path d="M1077.62 48.1738V162.732H1049.57V48.1738H1077.62ZM1047.66 18.2107C1047.66 14.0463 1049.07 10.5876 1051.9 7.83485C1054.79 5.08207 1058.67 3.70567 1063.54 3.70567C1068.41 3.70567 1072.26 5.08207 1075.08 7.83485C1077.97 10.5876 1079.42 14.0463 1079.42 18.2107C1079.42 22.3046 1077.97 25.728 1075.08 28.4807C1072.26 31.2335 1068.41 32.6099 1063.54 32.6099C1058.67 32.6099 1054.79 31.2335 1051.9 28.4807C1049.07 25.728 1047.66 22.3046 1047.66 18.2107Z" fill="#C8E7ED"/>
<path d="M1133.94 0.105876V162.732H1105.89V0.105876H1133.94Z" fill="#C8E7ED"/>
<path d="M1190.26 48.1738V162.732H1162.21V48.1738H1190.26ZM1160.3 18.2107C1160.3 14.0463 1161.71 10.5876 1164.54 7.83485C1167.43 5.08207 1171.31 3.70567 1176.18 3.70567C1181.05 3.70567 1184.9 5.08207 1187.72 7.83485C1190.62 10.5876 1192.06 14.0463 1192.06 18.2107C1192.06 22.3046 1190.62 25.728 1187.72 28.4807C1184.9 31.2335 1181.05 32.6099 1176.18 32.6099C1171.31 32.6099 1167.43 31.2335 1164.54 28.4807C1161.71 25.728 1160.3 22.3046 1160.3 18.2107Z" fill="#C8E7ED"/>
<path d="M1271.15 48.1738V68.2903H1205.51V48.1738H1271.15ZM1223.08 20.0106H1251.14V129.699C1251.14 133.087 1251.6 135.698 1252.51 137.533C1253.43 139.369 1254.81 140.604 1256.64 141.239C1258.48 141.874 1260.66 142.192 1263.21 142.192C1265.04 142.192 1266.73 142.086 1268.29 141.874C1269.84 141.663 1271.15 141.451 1272.2 141.239L1272.31 162.203C1269.98 162.979 1267.33 163.614 1264.37 164.108C1261.48 164.602 1258.19 164.85 1254.52 164.85C1248.24 164.85 1242.74 163.791 1238.01 161.673C1233.28 159.485 1229.61 155.991 1227 151.191C1224.39 146.321 1223.08 139.898 1223.08 131.922V20.0106Z" fill="#C8E7ED"/>
<path d="M1323.34 150.027L1354.04 48.1738H1384L1338.05 180.096C1336.99 182.919 1335.62 185.99 1333.92 189.307C1332.3 192.624 1330.11 195.765 1327.36 198.73C1324.61 201.765 1321.15 204.236 1316.99 206.141C1312.89 208.047 1307.92 209 1302.06 209C1299.52 209 1297.26 208.824 1295.28 208.471C1293.31 208.118 1291.23 207.659 1289.04 207.094V186.131C1289.74 186.201 1290.55 186.237 1291.47 186.237C1292.46 186.307 1293.31 186.342 1294.01 186.342C1298.11 186.342 1301.49 185.848 1304.18 184.86C1306.86 183.943 1309.01 182.425 1310.63 180.307C1312.33 178.261 1313.74 175.578 1314.87 172.261L1323.34 150.027ZM1308.2 48.1738L1334.14 132.557L1338.69 162.097L1319.42 165.591L1278.03 48.1738H1308.2Z" fill="#C8E7ED"/>
</g>
</svg>
