<svg width="154" height="98" viewBox="0 0 154 98" fill="none" xmlns="http://www.w3.org/2000/svg">
<path fill-rule="evenodd" clip-rule="evenodd" d="M83.5711 40.8527C82.8372 38.9888 81.3628 37.5106 79.5901 36.6453C77.8557 35.7081 75.7971 35.3695 73.8553 35.8565L30.8165 46.6498L14.7536 5.8568C13.3301 2.24174 9.12112 0.0772943 5.35259 1.02237C1.58407 1.96744 -0.316958 5.66416 1.10653 9.27922L19.6574 56.3905C20.8624 59.4507 24.0634 61.4714 27.3036 61.4464C28.1663 61.5327 29.0439 61.4783 29.8989 61.2639L72.4153 50.6016L88.475 91.3865C89.3125 93.5133 91.1141 95.138 93.223 95.9229C95.0881 97.1818 97.4579 97.7022 99.6752 97.1462L148.787 84.83C152.555 83.8849 154.456 80.1882 153.033 76.5731C151.609 72.9581 147.4 70.7936 143.632 71.7387L100.038 82.6712L83.5711 40.8527Z" fill="white"/>
</svg>
