<svg width="315" height="341" viewBox="0 0 315 341" fill="none" xmlns="http://www.w3.org/2000/svg">
<path fill-rule="evenodd" clip-rule="evenodd" d="M44.379 153.672C39.0906 158.109 38.4008 165.994 42.8383 171.282L45.79 174.8C50.2275 180.088 58.112 180.778 63.4004 176.34L200.338 61.4361C205.626 56.9986 206.316 49.1142 201.879 43.8257L198.927 40.3081C194.49 35.0196 186.605 34.3299 181.317 38.7674L44.379 153.672ZM235.246 33.3868C241.506 28.1342 242.322 18.8016 237.069 12.5418C231.817 6.28194 222.484 5.46544 216.224 10.718C209.965 15.9706 209.148 25.3033 214.401 31.5631C219.653 37.8229 228.986 38.6394 235.246 33.3868Z" fill="white"/>
<mask id="path-2-inside-1_173_373" fill="white">
<path fill-rule="evenodd" clip-rule="evenodd" d="M8.03484 326.962C3.59732 321.673 4.28712 313.789 9.57556 309.352L91.7951 240.361C97.0836 235.924 104.968 236.613 109.406 241.902L112.357 245.419C116.795 250.708 116.105 258.592 110.816 263.03L28.5969 332.02C23.3085 336.458 15.424 335.768 10.9865 330.48L8.03484 326.962ZM158.044 201.089C153.607 195.801 154.296 187.916 159.585 183.479L344.836 28.0349C350.124 23.5974 358.009 24.2872 362.446 29.5756L365.398 33.0933C369.835 38.3817 369.145 46.2662 363.857 50.7037L178.606 206.148C173.318 210.585 165.433 209.895 160.996 204.607L158.044 201.089ZM144.473 234.789C150.733 229.536 151.549 220.204 146.297 213.944C141.044 207.684 131.711 206.867 125.452 212.12C119.192 217.373 118.375 226.705 123.628 232.965C128.881 239.225 138.213 240.041 144.473 234.789Z"/>
</mask>
<path d="M91.7951 240.361L93.7235 242.659L91.7951 240.361ZM109.406 241.902L107.107 243.83L109.406 241.902ZM112.357 245.419L114.655 243.491L112.357 245.419ZM110.816 263.03L112.745 265.328L110.816 263.03ZM28.5969 332.02L26.6685 329.722L28.5969 332.02ZM7.64719 307.053C1.08954 312.556 0.234182 322.333 5.73671 328.89L10.333 325.034C6.96046 321.014 7.48471 315.022 11.5039 311.65L7.64719 307.053ZM89.8668 238.063L7.64719 307.053L11.5039 311.65L93.7235 242.659L89.8668 238.063ZM111.704 239.973C106.201 233.416 96.4244 232.56 89.8668 238.063L93.7235 242.659C97.7427 239.287 103.735 239.811 107.107 243.83L111.704 239.973ZM114.655 243.491L111.704 239.973L107.107 243.83L110.059 247.348L114.655 243.491ZM112.745 265.328C119.303 259.825 120.158 250.049 114.655 243.491L110.059 247.348C113.432 251.367 112.907 257.359 108.888 260.732L112.745 265.328ZM30.5253 334.318L112.745 265.328L108.888 260.732L26.6685 329.722L30.5253 334.318ZM8.68838 332.408C14.1909 338.966 23.9676 339.821 30.5253 334.318L26.6685 329.722C22.6493 333.095 16.6572 332.57 13.2846 328.551L8.68838 332.408ZM5.73671 328.89L8.68838 332.408L13.2846 328.551L10.333 325.034L5.73671 328.89ZM157.657 181.181C151.099 186.683 150.244 196.46 155.746 203.018L160.342 199.161C156.97 195.142 157.494 189.149 161.513 185.777L157.657 181.181ZM342.907 25.7368L157.657 181.181L161.513 185.777L346.764 30.333L342.907 25.7368ZM364.744 27.6473C359.242 21.0896 349.465 20.2342 342.907 25.7368L346.764 30.333C350.783 26.9605 356.775 27.4848 360.148 31.504L364.744 27.6473ZM367.696 31.1649L364.744 27.6473L360.148 31.504L363.1 35.0217L367.696 31.1649ZM365.785 53.0018C372.343 47.4993 373.198 37.7226 367.696 31.1649L363.1 35.0217C366.472 39.0409 365.948 45.033 361.929 48.4056L365.785 53.0018ZM180.535 208.446L365.785 53.0018L361.929 48.4056L176.678 203.849L180.535 208.446ZM158.698 206.535C164.2 213.093 173.977 213.948 180.535 208.446L176.678 203.849C172.659 207.222 166.667 206.698 163.294 202.678L158.698 206.535ZM155.746 203.018L158.698 206.535L163.294 202.678L160.342 199.161L155.746 203.018ZM143.999 215.872C148.186 220.863 147.535 228.303 142.545 232.491L146.401 237.087C153.93 230.769 154.912 219.544 148.595 212.015L143.999 215.872ZM127.38 214.418C132.371 210.231 139.811 210.882 143.999 215.872L148.595 212.015C142.277 204.486 131.052 203.504 123.523 209.822L127.38 214.418ZM125.926 231.037C121.738 226.046 122.389 218.606 127.38 214.418L123.523 209.822C115.994 216.14 115.012 227.364 121.33 234.894L125.926 231.037ZM142.545 232.491C137.554 236.678 130.114 236.027 125.926 231.037L121.33 234.894C127.647 242.423 138.872 243.405 146.401 237.087L142.545 232.491Z" fill="white" mask="url(#path-2-inside-1_173_373)"/>
</svg>
