<svg width="395" height="366" viewBox="0 0 395 366" fill="none" xmlns="http://www.w3.org/2000/svg">
<path fill-rule="evenodd" clip-rule="evenodd" d="M249.821 29.5208L88.8559 164.587C84.9592 167.857 84.451 173.666 87.7207 177.563C90.9904 181.46 96.7999 181.968 100.697 178.698L261.662 43.6319C265.559 40.3622 266.067 34.5527 262.797 30.656C259.528 26.7593 253.718 26.2511 249.821 29.5208ZM86.9275 162.289C81.7616 166.624 81.0878 174.325 85.4225 179.491C89.7572 184.657 97.459 185.331 102.625 180.996L263.59 45.9301C268.756 41.5954 269.43 33.8936 265.096 28.7277C260.761 23.5618 253.059 22.8879 247.893 27.2227L86.9275 162.289ZM295.355 4.36199C299.69 9.5279 299.016 17.2297 293.85 21.5644C288.684 25.8991 280.982 25.2253 276.647 20.0594C272.313 14.8935 272.987 7.19169 278.152 2.85698C283.318 -1.47774 291.02 -0.803926 295.355 4.36199ZM211.756 186.052C216.091 191.218 215.417 198.92 210.251 203.255C205.086 207.589 197.384 206.916 193.049 201.75C188.714 196.584 189.388 188.882 194.554 184.547C199.72 180.213 207.422 180.886 211.756 186.052ZM4.36199 344.137C-0.803922 348.472 -1.47774 356.174 2.85698 361.34C7.19169 366.506 14.8935 367.18 20.0594 362.845L181.025 227.779C186.191 223.444 186.865 215.742 182.53 210.576C178.195 205.41 170.493 204.737 165.328 209.071L4.36199 344.137ZM224.174 159.693C219.008 164.028 218.334 171.73 222.669 176.895C227.004 182.061 234.706 182.735 239.872 178.4L389.847 52.5562C395.013 48.2214 395.687 40.5197 391.352 35.3538C387.017 30.1878 379.316 29.514 374.15 33.8487L224.174 159.693Z" fill="#B3D6CB"/>
</svg>
