<svg width="1439" height="1110" viewBox="0 0 1439 1110" fill="none" xmlns="http://www.w3.org/2000/svg">
<path fill-rule="evenodd" clip-rule="evenodd" d="M-1 0L47 2.76636C95 5.53271 191 11.0654 287 30.4299C330.636 39.2319 374.273 50.8918 417.909 62.5516C470.273 76.5434 522.636 90.5353 575 99.5888C671 116.187 767 116.187 863 105.121C897.909 101.098 932.818 95.6107 967.727 90.1237C1028.82 80.5215 1089.91 70.9193 1151 69.1589C1247 66.3925 1343 82.9907 1391 91.2897L1439 99.5888V162.293V165.981V370V740V944.019V947.707V1010.41L1391 1018.71C1343 1027.01 1247 1043.61 1151 1040.84C1089.91 1039.08 1028.82 1029.48 967.727 1019.88C932.818 1014.39 897.909 1008.9 863 1004.88C767 993.813 671 993.813 575 1010.41C522.636 1019.46 470.273 1033.46 417.909 1047.45L417.904 1047.45C374.269 1059.11 330.635 1070.77 287 1079.57C191 1098.93 95 1104.47 47 1107.23L-1 1110V947.707V944.019V740V370V165.981V162.293V0Z" fill="url(#paint0_linear_102_278)"/>
<defs>
<linearGradient id="paint0_linear_102_278" x1="719" y1="0" x2="719" y2="1110" gradientUnits="userSpaceOnUse">
<stop offset="0.5" stop-color="#E4F3F3"/>
<stop offset="1" stop-color="#B3D6CB"/>
</linearGradient>
</defs>
</svg>
