<svg width="1440" height="1055" viewBox="0 0 1440 1055" fill="none" xmlns="http://www.w3.org/2000/svg">
<path fill-rule="evenodd" clip-rule="evenodd" d="M1440 0L1380 22C1376.22 23.3223 1372.21 24.7318 1367.97 26.2196C1304.89 48.3596 1192.44 87.826 1080 115C960 144 840 158 720 144C671.351 138.324 622.703 127.718 574.054 117.112C502.703 101.556 431.351 86 360 86C245.017 86 130.034 126.398 67.8355 148.25L67.8354 148.25C65.1216 149.204 62.5084 150.122 60 151L0 173V216V839V848V1055L60 1033C63.778 1031.68 67.7938 1030.27 72.0326 1028.78C135.112 1006.64 247.556 967.174 360 940C480 911 600 897 720 911C768.649 916.676 817.297 927.282 865.946 937.888C937.297 953.444 1008.65 969 1080 969C1194.98 969 1309.97 928.602 1372.16 906.75C1374.88 905.796 1377.49 904.878 1380 904L1440 882V848V839V216V0Z" fill="url(#paint0_linear_168_371)"/>
<defs>
<linearGradient id="paint0_linear_168_371" x1="720" y1="0" x2="720" y2="1055" gradientUnits="userSpaceOnUse">
<stop stop-color="#E4F3F3"/>
<stop offset="0.640625" stop-color="#ADD0E6"/>
</linearGradient>
</defs>
</svg>
