<svg width="215" height="290" viewBox="0 0 215 290" fill="none" xmlns="http://www.w3.org/2000/svg">
<mask id="mask0_168_367" style="mask-type:alpha" maskUnits="userSpaceOnUse" x="0" y="0" width="204" height="205">
<ellipse cx="101.525" cy="102.392" rx="101.525" ry="102.392" fill="#B3D6CB"/>
</mask>
<g mask="url(#mask0_168_367)">
<circle cx="2.6032" cy="2.6032" r="2.6032" fill="#B3D6CB"/>
<circle cx="13.0159" cy="2.6032" r="2.6032" fill="#B3D6CB"/>
<circle cx="23.4288" cy="2.6032" r="2.6032" fill="#B3D6CB"/>
<circle cx="33.8416" cy="2.6032" r="2.6032" fill="#B3D6CB"/>
<circle cx="44.2544" cy="2.6032" r="2.6032" fill="#B3D6CB"/>
<circle cx="54.6672" cy="2.6032" r="2.6032" fill="#B3D6CB"/>
<circle cx="65.0799" cy="2.6032" r="2.6032" fill="#B3D6CB"/>
<circle cx="75.4927" cy="2.6032" r="2.6032" fill="#B3D6CB"/>
<circle cx="85.9055" cy="2.6032" r="2.6032" fill="#B3D6CB"/>
<circle cx="96.3183" cy="2.6032" r="2.6032" fill="#B3D6CB"/>
<circle cx="106.731" cy="2.6032" r="2.6032" fill="#B3D6CB"/>
<circle cx="117.144" cy="2.6032" r="2.6032" fill="#B3D6CB"/>
<circle cx="127.557" cy="2.6032" r="2.6032" fill="#B3D6CB"/>
<circle cx="137.97" cy="2.6032" r="2.6032" fill="#B3D6CB"/>
<circle cx="148.382" cy="2.6032" r="2.6032" fill="#B3D6CB"/>
<circle cx="158.795" cy="2.6032" r="2.6032" fill="#B3D6CB"/>
<circle cx="169.208" cy="2.6032" r="2.6032" fill="#B3D6CB"/>
<circle cx="179.621" cy="2.6032" r="2.6032" fill="#B3D6CB"/>
<circle cx="190.033" cy="2.6032" r="2.6032" fill="#B3D6CB"/>
<circle cx="200.446" cy="2.6032" r="2.6032" fill="#B3D6CB"/>
<circle cx="2.6032" cy="13.016" r="2.6032" fill="#B3D6CB"/>
<circle cx="13.0159" cy="13.016" r="2.6032" fill="#B3D6CB"/>
<circle cx="23.4288" cy="13.016" r="2.6032" fill="#B3D6CB"/>
<circle cx="33.8416" cy="13.016" r="2.6032" fill="#B3D6CB"/>
<circle cx="44.2544" cy="13.016" r="2.6032" fill="#B3D6CB"/>
<circle cx="54.6672" cy="13.016" r="2.6032" fill="#B3D6CB"/>
<circle cx="65.0799" cy="13.016" r="2.6032" fill="#B3D6CB"/>
<circle cx="75.4927" cy="13.016" r="2.6032" fill="#B3D6CB"/>
<circle cx="85.9055" cy="13.016" r="2.6032" fill="#B3D6CB"/>
<circle cx="96.3183" cy="13.016" r="2.6032" fill="#B3D6CB"/>
<circle cx="106.731" cy="13.016" r="2.6032" fill="#B3D6CB"/>
<circle cx="117.144" cy="13.016" r="2.6032" fill="#B3D6CB"/>
<circle cx="127.557" cy="13.016" r="2.6032" fill="#B3D6CB"/>
<circle cx="137.97" cy="13.016" r="2.6032" fill="#B3D6CB"/>
<circle cx="148.382" cy="13.016" r="2.6032" fill="#B3D6CB"/>
<circle cx="158.795" cy="13.016" r="2.6032" fill="#B3D6CB"/>
<circle cx="169.208" cy="13.016" r="2.6032" fill="#B3D6CB"/>
<circle cx="179.621" cy="13.016" r="2.6032" fill="#B3D6CB"/>
<circle cx="190.033" cy="13.016" r="2.6032" fill="#B3D6CB"/>
<circle cx="200.446" cy="13.016" r="2.6032" fill="#B3D6CB"/>
<circle cx="2.6032" cy="23.4288" r="2.6032" fill="#B3D6CB"/>
<circle cx="13.0159" cy="23.4288" r="2.6032" fill="#B3D6CB"/>
<circle cx="23.4288" cy="23.4288" r="2.6032" fill="#B3D6CB"/>
<circle cx="33.8416" cy="23.4288" r="2.6032" fill="#B3D6CB"/>
<circle cx="44.2544" cy="23.4288" r="2.6032" fill="#B3D6CB"/>
<circle cx="54.6672" cy="23.4288" r="2.6032" fill="#B3D6CB"/>
<circle cx="65.0799" cy="23.4288" r="2.6032" fill="#B3D6CB"/>
<circle cx="75.4927" cy="23.4288" r="2.6032" fill="#B3D6CB"/>
<circle cx="85.9055" cy="23.4288" r="2.6032" fill="#B3D6CB"/>
<circle cx="96.3183" cy="23.4288" r="2.6032" fill="#B3D6CB"/>
<circle cx="106.731" cy="23.4288" r="2.6032" fill="#B3D6CB"/>
<circle cx="117.144" cy="23.4288" r="2.6032" fill="#B3D6CB"/>
<circle cx="127.557" cy="23.4288" r="2.6032" fill="#B3D6CB"/>
<circle cx="137.97" cy="23.4288" r="2.6032" fill="#B3D6CB"/>
<circle cx="148.382" cy="23.4288" r="2.6032" fill="#B3D6CB"/>
<circle cx="158.795" cy="23.4288" r="2.6032" fill="#B3D6CB"/>
<circle cx="169.208" cy="23.4288" r="2.6032" fill="#B3D6CB"/>
<circle cx="179.621" cy="23.4288" r="2.6032" fill="#B3D6CB"/>
<circle cx="190.033" cy="23.4288" r="2.6032" fill="#B3D6CB"/>
<circle cx="200.446" cy="23.4288" r="2.6032" fill="#B3D6CB"/>
<circle cx="2.6032" cy="33.8416" r="2.6032" fill="#B3D6CB"/>
<circle cx="13.0159" cy="33.8416" r="2.6032" fill="#B3D6CB"/>
<circle cx="23.4288" cy="33.8416" r="2.6032" fill="#B3D6CB"/>
<circle cx="33.8416" cy="33.8416" r="2.6032" fill="#B3D6CB"/>
<circle cx="44.2544" cy="33.8416" r="2.6032" fill="#B3D6CB"/>
<circle cx="54.6672" cy="33.8416" r="2.6032" fill="#B3D6CB"/>
<circle cx="65.0799" cy="33.8416" r="2.6032" fill="#B3D6CB"/>
<circle cx="75.4927" cy="33.8416" r="2.6032" fill="#B3D6CB"/>
<circle cx="85.9055" cy="33.8416" r="2.6032" fill="#B3D6CB"/>
<circle cx="96.3183" cy="33.8416" r="2.6032" fill="#B3D6CB"/>
<circle cx="106.731" cy="33.8416" r="2.6032" fill="#B3D6CB"/>
<circle cx="117.144" cy="33.8416" r="2.6032" fill="#B3D6CB"/>
<circle cx="127.557" cy="33.8416" r="2.6032" fill="#B3D6CB"/>
<circle cx="137.97" cy="33.8416" r="2.6032" fill="#B3D6CB"/>
<circle cx="148.382" cy="33.8416" r="2.6032" fill="#B3D6CB"/>
<circle cx="158.795" cy="33.8416" r="2.6032" fill="#B3D6CB"/>
<circle cx="169.208" cy="33.8416" r="2.6032" fill="#B3D6CB"/>
<circle cx="179.621" cy="33.8416" r="2.6032" fill="#B3D6CB"/>
<circle cx="190.033" cy="33.8416" r="2.6032" fill="#B3D6CB"/>
<circle cx="200.446" cy="33.8416" r="2.6032" fill="#B3D6CB"/>
<circle cx="2.6032" cy="44.2544" r="2.6032" fill="#B3D6CB"/>
<circle cx="13.0159" cy="44.2544" r="2.6032" fill="#B3D6CB"/>
<circle cx="23.4288" cy="44.2544" r="2.6032" fill="#B3D6CB"/>
<circle cx="33.8416" cy="44.2544" r="2.6032" fill="#B3D6CB"/>
<circle cx="44.2544" cy="44.2544" r="2.6032" fill="#B3D6CB"/>
<circle cx="54.6672" cy="44.2544" r="2.6032" fill="#B3D6CB"/>
<circle cx="65.0799" cy="44.2544" r="2.6032" fill="#B3D6CB"/>
<circle cx="75.4927" cy="44.2544" r="2.6032" fill="#B3D6CB"/>
<circle cx="85.9055" cy="44.2544" r="2.6032" fill="#B3D6CB"/>
<circle cx="96.3183" cy="44.2544" r="2.6032" fill="#B3D6CB"/>
<circle cx="106.731" cy="44.2544" r="2.6032" fill="#B3D6CB"/>
<circle cx="117.144" cy="44.2544" r="2.6032" fill="#B3D6CB"/>
<circle cx="127.557" cy="44.2544" r="2.6032" fill="#B3D6CB"/>
<circle cx="137.97" cy="44.2544" r="2.6032" fill="#B3D6CB"/>
<circle cx="148.382" cy="44.2544" r="2.6032" fill="#B3D6CB"/>
<circle cx="158.795" cy="44.2544" r="2.6032" fill="#B3D6CB"/>
<circle cx="169.208" cy="44.2544" r="2.6032" fill="#B3D6CB"/>
<circle cx="179.621" cy="44.2544" r="2.6032" fill="#B3D6CB"/>
<circle cx="190.033" cy="44.2544" r="2.6032" fill="#B3D6CB"/>
<circle cx="200.446" cy="44.2544" r="2.6032" fill="#B3D6CB"/>
<circle cx="2.6032" cy="54.6672" r="2.6032" fill="#B3D6CB"/>
<circle cx="13.0159" cy="54.6672" r="2.6032" fill="#B3D6CB"/>
<circle cx="23.4288" cy="54.6672" r="2.6032" fill="#B3D6CB"/>
<circle cx="33.8416" cy="54.6672" r="2.6032" fill="#B3D6CB"/>
<circle cx="44.2544" cy="54.6672" r="2.6032" fill="#B3D6CB"/>
<circle cx="54.6672" cy="54.6672" r="2.6032" fill="#B3D6CB"/>
<circle cx="65.0799" cy="54.6672" r="2.6032" fill="#B3D6CB"/>
<circle cx="75.4927" cy="54.6672" r="2.6032" fill="#B3D6CB"/>
<circle cx="85.9055" cy="54.6672" r="2.6032" fill="#B3D6CB"/>
<circle cx="96.3183" cy="54.6672" r="2.6032" fill="#B3D6CB"/>
<circle cx="106.731" cy="54.6672" r="2.6032" fill="#B3D6CB"/>
<circle cx="117.144" cy="54.6672" r="2.6032" fill="#B3D6CB"/>
<circle cx="127.557" cy="54.6672" r="2.6032" fill="#B3D6CB"/>
<circle cx="137.97" cy="54.6672" r="2.6032" fill="#B3D6CB"/>
<circle cx="148.382" cy="54.6672" r="2.6032" fill="#B3D6CB"/>
<circle cx="158.795" cy="54.6672" r="2.6032" fill="#B3D6CB"/>
<circle cx="169.208" cy="54.6672" r="2.6032" fill="#B3D6CB"/>
<circle cx="179.621" cy="54.6672" r="2.6032" fill="#B3D6CB"/>
<circle cx="190.033" cy="54.6672" r="2.6032" fill="#B3D6CB"/>
<circle cx="200.446" cy="54.6672" r="2.6032" fill="#B3D6CB"/>
<circle cx="2.6032" cy="65.08" r="2.6032" fill="#B3D6CB"/>
<circle cx="13.0159" cy="65.08" r="2.6032" fill="#B3D6CB"/>
<circle cx="23.4288" cy="65.08" r="2.6032" fill="#B3D6CB"/>
<circle cx="33.8416" cy="65.08" r="2.6032" fill="#B3D6CB"/>
<circle cx="44.2544" cy="65.08" r="2.6032" fill="#B3D6CB"/>
<circle cx="54.6672" cy="65.08" r="2.6032" fill="#B3D6CB"/>
<circle cx="65.0799" cy="65.08" r="2.6032" fill="#B3D6CB"/>
<circle cx="75.4927" cy="65.08" r="2.6032" fill="#B3D6CB"/>
<circle cx="85.9055" cy="65.08" r="2.6032" fill="#B3D6CB"/>
<circle cx="96.3183" cy="65.08" r="2.6032" fill="#B3D6CB"/>
<circle cx="106.731" cy="65.08" r="2.6032" fill="#B3D6CB"/>
<circle cx="117.144" cy="65.08" r="2.6032" fill="#B3D6CB"/>
<circle cx="127.557" cy="65.08" r="2.6032" fill="#B3D6CB"/>
<circle cx="137.97" cy="65.08" r="2.6032" fill="#B3D6CB"/>
<circle cx="148.382" cy="65.08" r="2.6032" fill="#B3D6CB"/>
<circle cx="158.795" cy="65.08" r="2.6032" fill="#B3D6CB"/>
<circle cx="169.208" cy="65.08" r="2.6032" fill="#B3D6CB"/>
<circle cx="179.621" cy="65.08" r="2.6032" fill="#B3D6CB"/>
<circle cx="190.033" cy="65.08" r="2.6032" fill="#B3D6CB"/>
<circle cx="200.446" cy="65.08" r="2.6032" fill="#B3D6CB"/>
<circle cx="2.6032" cy="75.4928" r="2.6032" fill="#B3D6CB"/>
<circle cx="13.0159" cy="75.4928" r="2.6032" fill="#B3D6CB"/>
<circle cx="23.4288" cy="75.4928" r="2.6032" fill="#B3D6CB"/>
<circle cx="33.8416" cy="75.4928" r="2.6032" fill="#B3D6CB"/>
<circle cx="44.2544" cy="75.4928" r="2.6032" fill="#B3D6CB"/>
<circle cx="54.6672" cy="75.4928" r="2.6032" fill="#B3D6CB"/>
<circle cx="65.0799" cy="75.4928" r="2.6032" fill="#B3D6CB"/>
<circle cx="75.4927" cy="75.4928" r="2.6032" fill="#B3D6CB"/>
<circle cx="85.9055" cy="75.4928" r="2.6032" fill="#B3D6CB"/>
<circle cx="96.3183" cy="75.4928" r="2.6032" fill="#B3D6CB"/>
<circle cx="106.731" cy="75.4928" r="2.6032" fill="#B3D6CB"/>
<circle cx="117.144" cy="75.4928" r="2.6032" fill="#B3D6CB"/>
<circle cx="127.557" cy="75.4928" r="2.6032" fill="#B3D6CB"/>
<circle cx="137.97" cy="75.4928" r="2.6032" fill="#B3D6CB"/>
<circle cx="148.382" cy="75.4928" r="2.6032" fill="#B3D6CB"/>
<circle cx="158.795" cy="75.4928" r="2.6032" fill="#B3D6CB"/>
<circle cx="169.208" cy="75.4928" r="2.6032" fill="#B3D6CB"/>
<circle cx="179.621" cy="75.4928" r="2.6032" fill="#B3D6CB"/>
<circle cx="190.033" cy="75.4928" r="2.6032" fill="#B3D6CB"/>
<circle cx="200.446" cy="75.4928" r="2.6032" fill="#B3D6CB"/>
<circle cx="2.6032" cy="85.9056" r="2.6032" fill="#B3D6CB"/>
<circle cx="13.0159" cy="85.9056" r="2.6032" fill="#B3D6CB"/>
<circle cx="23.4288" cy="85.9056" r="2.6032" fill="#B3D6CB"/>
<circle cx="33.8416" cy="85.9056" r="2.6032" fill="#B3D6CB"/>
<circle cx="44.2544" cy="85.9056" r="2.6032" fill="#B3D6CB"/>
<circle cx="54.6672" cy="85.9056" r="2.6032" fill="#B3D6CB"/>
<circle cx="65.0799" cy="85.9056" r="2.6032" fill="#B3D6CB"/>
<circle cx="75.4927" cy="85.9056" r="2.6032" fill="#B3D6CB"/>
<circle cx="85.9055" cy="85.9056" r="2.6032" fill="#B3D6CB"/>
<circle cx="96.3183" cy="85.9056" r="2.6032" fill="#B3D6CB"/>
<circle cx="106.731" cy="85.9056" r="2.6032" fill="#B3D6CB"/>
<circle cx="117.144" cy="85.9056" r="2.6032" fill="#B3D6CB"/>
<circle cx="127.557" cy="85.9056" r="2.6032" fill="#B3D6CB"/>
<circle cx="137.97" cy="85.9056" r="2.6032" fill="#B3D6CB"/>
<circle cx="148.382" cy="85.9056" r="2.6032" fill="#B3D6CB"/>
<circle cx="158.795" cy="85.9056" r="2.6032" fill="#B3D6CB"/>
<circle cx="169.208" cy="85.9056" r="2.6032" fill="#B3D6CB"/>
<circle cx="179.621" cy="85.9056" r="2.6032" fill="#B3D6CB"/>
<circle cx="190.033" cy="85.9056" r="2.6032" fill="#B3D6CB"/>
<circle cx="200.446" cy="85.9056" r="2.6032" fill="#B3D6CB"/>
<circle cx="2.6032" cy="96.3183" r="2.6032" fill="#B3D6CB"/>
<circle cx="13.0159" cy="96.3183" r="2.6032" fill="#B3D6CB"/>
<circle cx="23.4288" cy="96.3183" r="2.6032" fill="#B3D6CB"/>
<circle cx="33.8416" cy="96.3183" r="2.6032" fill="#B3D6CB"/>
<circle cx="44.2544" cy="96.3183" r="2.6032" fill="#B3D6CB"/>
<circle cx="54.6672" cy="96.3183" r="2.6032" fill="#B3D6CB"/>
<circle cx="65.0799" cy="96.3183" r="2.6032" fill="#B3D6CB"/>
<circle cx="75.4927" cy="96.3183" r="2.6032" fill="#B3D6CB"/>
<circle cx="85.9055" cy="96.3183" r="2.6032" fill="#B3D6CB"/>
<circle cx="96.3183" cy="96.3183" r="2.6032" fill="#B3D6CB"/>
<circle cx="106.731" cy="96.3183" r="2.6032" fill="#B3D6CB"/>
<circle cx="117.144" cy="96.3183" r="2.6032" fill="#B3D6CB"/>
<circle cx="127.557" cy="96.3183" r="2.6032" fill="#B3D6CB"/>
<circle cx="137.97" cy="96.3183" r="2.6032" fill="#B3D6CB"/>
<circle cx="148.382" cy="96.3183" r="2.6032" fill="#B3D6CB"/>
<circle cx="158.795" cy="96.3183" r="2.6032" fill="#B3D6CB"/>
<circle cx="169.208" cy="96.3183" r="2.6032" fill="#B3D6CB"/>
<circle cx="179.621" cy="96.3183" r="2.6032" fill="#B3D6CB"/>
<circle cx="190.033" cy="96.3183" r="2.6032" fill="#B3D6CB"/>
<circle cx="200.446" cy="96.3183" r="2.6032" fill="#B3D6CB"/>
<circle cx="2.6032" cy="106.731" r="2.6032" fill="#B3D6CB"/>
<circle cx="13.0159" cy="106.731" r="2.6032" fill="#B3D6CB"/>
<circle cx="23.4288" cy="106.731" r="2.6032" fill="#B3D6CB"/>
<circle cx="33.8416" cy="106.731" r="2.6032" fill="#B3D6CB"/>
<circle cx="44.2544" cy="106.731" r="2.6032" fill="#B3D6CB"/>
<circle cx="54.6672" cy="106.731" r="2.6032" fill="#B3D6CB"/>
<circle cx="65.0799" cy="106.731" r="2.6032" fill="#B3D6CB"/>
<circle cx="75.4927" cy="106.731" r="2.6032" fill="#B3D6CB"/>
<circle cx="85.9055" cy="106.731" r="2.6032" fill="#B3D6CB"/>
<circle cx="96.3183" cy="106.731" r="2.6032" fill="#B3D6CB"/>
<circle cx="106.731" cy="106.731" r="2.6032" fill="#B3D6CB"/>
<circle cx="117.144" cy="106.731" r="2.6032" fill="#B3D6CB"/>
<circle cx="127.557" cy="106.731" r="2.6032" fill="#B3D6CB"/>
<circle cx="137.97" cy="106.731" r="2.6032" fill="#B3D6CB"/>
<circle cx="148.382" cy="106.731" r="2.6032" fill="#B3D6CB"/>
<circle cx="158.795" cy="106.731" r="2.6032" fill="#B3D6CB"/>
<circle cx="169.208" cy="106.731" r="2.6032" fill="#B3D6CB"/>
<circle cx="179.621" cy="106.731" r="2.6032" fill="#B3D6CB"/>
<circle cx="190.033" cy="106.731" r="2.6032" fill="#B3D6CB"/>
<circle cx="200.446" cy="106.731" r="2.6032" fill="#B3D6CB"/>
<circle cx="2.6032" cy="117.144" r="2.6032" fill="#B3D6CB"/>
<circle cx="13.0159" cy="117.144" r="2.6032" fill="#B3D6CB"/>
<circle cx="23.4288" cy="117.144" r="2.6032" fill="#B3D6CB"/>
<circle cx="33.8416" cy="117.144" r="2.6032" fill="#B3D6CB"/>
<circle cx="44.2544" cy="117.144" r="2.6032" fill="#B3D6CB"/>
<circle cx="54.6672" cy="117.144" r="2.6032" fill="#B3D6CB"/>
<circle cx="65.0799" cy="117.144" r="2.6032" fill="#B3D6CB"/>
<circle cx="75.4927" cy="117.144" r="2.6032" fill="#B3D6CB"/>
<circle cx="85.9055" cy="117.144" r="2.6032" fill="#B3D6CB"/>
<circle cx="96.3183" cy="117.144" r="2.6032" fill="#B3D6CB"/>
<circle cx="106.731" cy="117.144" r="2.6032" fill="#B3D6CB"/>
<circle cx="117.144" cy="117.144" r="2.6032" fill="#B3D6CB"/>
<circle cx="127.557" cy="117.144" r="2.6032" fill="#B3D6CB"/>
<circle cx="137.97" cy="117.144" r="2.6032" fill="#B3D6CB"/>
<circle cx="148.382" cy="117.144" r="2.6032" fill="#B3D6CB"/>
<circle cx="158.795" cy="117.144" r="2.6032" fill="#B3D6CB"/>
<circle cx="169.208" cy="117.144" r="2.6032" fill="#B3D6CB"/>
<circle cx="179.621" cy="117.144" r="2.6032" fill="#B3D6CB"/>
<circle cx="190.033" cy="117.144" r="2.6032" fill="#B3D6CB"/>
<circle cx="200.446" cy="117.144" r="2.6032" fill="#B3D6CB"/>
<circle cx="2.6032" cy="127.557" r="2.6032" fill="#B3D6CB"/>
<circle cx="13.0159" cy="127.557" r="2.6032" fill="#B3D6CB"/>
<circle cx="23.4288" cy="127.557" r="2.6032" fill="#B3D6CB"/>
<circle cx="33.8416" cy="127.557" r="2.6032" fill="#B3D6CB"/>
<circle cx="44.2544" cy="127.557" r="2.6032" fill="#B3D6CB"/>
<circle cx="54.6672" cy="127.557" r="2.6032" fill="#B3D6CB"/>
<circle cx="65.0799" cy="127.557" r="2.6032" fill="#B3D6CB"/>
<circle cx="75.4927" cy="127.557" r="2.6032" fill="#B3D6CB"/>
<circle cx="85.9055" cy="127.557" r="2.6032" fill="#B3D6CB"/>
<circle cx="96.3183" cy="127.557" r="2.6032" fill="#B3D6CB"/>
<circle cx="106.731" cy="127.557" r="2.6032" fill="#B3D6CB"/>
<circle cx="117.144" cy="127.557" r="2.6032" fill="#B3D6CB"/>
<circle cx="127.557" cy="127.557" r="2.6032" fill="#B3D6CB"/>
<circle cx="137.97" cy="127.557" r="2.6032" fill="#B3D6CB"/>
<circle cx="148.382" cy="127.557" r="2.6032" fill="#B3D6CB"/>
<circle cx="158.795" cy="127.557" r="2.6032" fill="#B3D6CB"/>
<circle cx="169.208" cy="127.557" r="2.6032" fill="#B3D6CB"/>
<circle cx="179.621" cy="127.557" r="2.6032" fill="#B3D6CB"/>
<circle cx="190.033" cy="127.557" r="2.6032" fill="#B3D6CB"/>
<circle cx="200.446" cy="127.557" r="2.6032" fill="#B3D6CB"/>
<circle cx="2.6032" cy="137.97" r="2.6032" fill="#B3D6CB"/>
<circle cx="13.0159" cy="137.97" r="2.6032" fill="#B3D6CB"/>
<circle cx="23.4288" cy="137.97" r="2.6032" fill="#B3D6CB"/>
<circle cx="33.8416" cy="137.97" r="2.6032" fill="#B3D6CB"/>
<circle cx="44.2544" cy="137.97" r="2.6032" fill="#B3D6CB"/>
<circle cx="54.6672" cy="137.97" r="2.6032" fill="#B3D6CB"/>
<circle cx="65.0799" cy="137.97" r="2.6032" fill="#B3D6CB"/>
<circle cx="75.4927" cy="137.97" r="2.6032" fill="#B3D6CB"/>
<circle cx="85.9055" cy="137.97" r="2.6032" fill="#B3D6CB"/>
<circle cx="96.3183" cy="137.97" r="2.6032" fill="#B3D6CB"/>
<circle cx="106.731" cy="137.97" r="2.6032" fill="#B3D6CB"/>
<circle cx="117.144" cy="137.97" r="2.6032" fill="#B3D6CB"/>
<circle cx="127.557" cy="137.97" r="2.6032" fill="#B3D6CB"/>
<circle cx="137.97" cy="137.97" r="2.6032" fill="#B3D6CB"/>
<circle cx="148.382" cy="137.97" r="2.6032" fill="#B3D6CB"/>
<circle cx="158.795" cy="137.97" r="2.6032" fill="#B3D6CB"/>
<circle cx="169.208" cy="137.97" r="2.6032" fill="#B3D6CB"/>
<circle cx="179.621" cy="137.97" r="2.6032" fill="#B3D6CB"/>
<circle cx="190.033" cy="137.97" r="2.6032" fill="#B3D6CB"/>
<circle cx="200.446" cy="137.97" r="2.6032" fill="#B3D6CB"/>
<circle cx="2.6032" cy="148.382" r="2.6032" fill="#B3D6CB"/>
<circle cx="13.0159" cy="148.382" r="2.6032" fill="#B3D6CB"/>
<circle cx="23.4288" cy="148.382" r="2.6032" fill="#B3D6CB"/>
<circle cx="33.8416" cy="148.382" r="2.6032" fill="#B3D6CB"/>
<circle cx="44.2544" cy="148.382" r="2.6032" fill="#B3D6CB"/>
<circle cx="54.6672" cy="148.382" r="2.6032" fill="#B3D6CB"/>
<circle cx="65.0799" cy="148.382" r="2.6032" fill="#B3D6CB"/>
<circle cx="75.4927" cy="148.382" r="2.6032" fill="#B3D6CB"/>
<circle cx="85.9055" cy="148.382" r="2.6032" fill="#B3D6CB"/>
<circle cx="96.3183" cy="148.382" r="2.6032" fill="#B3D6CB"/>
<circle cx="106.731" cy="148.382" r="2.6032" fill="#B3D6CB"/>
<circle cx="117.144" cy="148.382" r="2.6032" fill="#B3D6CB"/>
<circle cx="127.557" cy="148.382" r="2.6032" fill="#B3D6CB"/>
<circle cx="137.97" cy="148.382" r="2.6032" fill="#B3D6CB"/>
<circle cx="148.382" cy="148.382" r="2.6032" fill="#B3D6CB"/>
<circle cx="158.795" cy="148.382" r="2.6032" fill="#B3D6CB"/>
<circle cx="169.208" cy="148.382" r="2.6032" fill="#B3D6CB"/>
<circle cx="179.621" cy="148.382" r="2.6032" fill="#B3D6CB"/>
<circle cx="190.033" cy="148.382" r="2.6032" fill="#B3D6CB"/>
<circle cx="200.446" cy="148.382" r="2.6032" fill="#B3D6CB"/>
<circle cx="2.6032" cy="158.795" r="2.6032" fill="#B3D6CB"/>
<circle cx="13.0159" cy="158.795" r="2.6032" fill="#B3D6CB"/>
<circle cx="23.4288" cy="158.795" r="2.6032" fill="#B3D6CB"/>
<circle cx="33.8416" cy="158.795" r="2.6032" fill="#B3D6CB"/>
<circle cx="44.2544" cy="158.795" r="2.6032" fill="#B3D6CB"/>
<circle cx="54.6672" cy="158.795" r="2.6032" fill="#B3D6CB"/>
<circle cx="65.0799" cy="158.795" r="2.6032" fill="#B3D6CB"/>
<circle cx="75.4927" cy="158.795" r="2.6032" fill="#B3D6CB"/>
<circle cx="85.9055" cy="158.795" r="2.6032" fill="#B3D6CB"/>
<circle cx="96.3183" cy="158.795" r="2.6032" fill="#B3D6CB"/>
<circle cx="106.731" cy="158.795" r="2.6032" fill="#B3D6CB"/>
<circle cx="117.144" cy="158.795" r="2.6032" fill="#B3D6CB"/>
<circle cx="127.557" cy="158.795" r="2.6032" fill="#B3D6CB"/>
<circle cx="137.97" cy="158.795" r="2.6032" fill="#B3D6CB"/>
<circle cx="148.382" cy="158.795" r="2.6032" fill="#B3D6CB"/>
<circle cx="158.795" cy="158.795" r="2.6032" fill="#B3D6CB"/>
<circle cx="169.208" cy="158.795" r="2.6032" fill="#B3D6CB"/>
<circle cx="179.621" cy="158.795" r="2.6032" fill="#B3D6CB"/>
<circle cx="190.033" cy="158.795" r="2.6032" fill="#B3D6CB"/>
<circle cx="200.446" cy="158.795" r="2.6032" fill="#B3D6CB"/>
<circle cx="2.6032" cy="169.208" r="2.6032" fill="#B3D6CB"/>
<circle cx="13.0159" cy="169.208" r="2.6032" fill="#B3D6CB"/>
<circle cx="23.4288" cy="169.208" r="2.6032" fill="#B3D6CB"/>
<circle cx="33.8416" cy="169.208" r="2.6032" fill="#B3D6CB"/>
<circle cx="44.2544" cy="169.208" r="2.6032" fill="#B3D6CB"/>
<circle cx="54.6672" cy="169.208" r="2.6032" fill="#B3D6CB"/>
<circle cx="65.0799" cy="169.208" r="2.6032" fill="#B3D6CB"/>
<circle cx="75.4927" cy="169.208" r="2.6032" fill="#B3D6CB"/>
<circle cx="85.9055" cy="169.208" r="2.6032" fill="#B3D6CB"/>
<circle cx="96.3183" cy="169.208" r="2.6032" fill="#B3D6CB"/>
<circle cx="106.731" cy="169.208" r="2.6032" fill="#B3D6CB"/>
<circle cx="117.144" cy="169.208" r="2.6032" fill="#B3D6CB"/>
<circle cx="127.557" cy="169.208" r="2.6032" fill="#B3D6CB"/>
<circle cx="137.97" cy="169.208" r="2.6032" fill="#B3D6CB"/>
<circle cx="148.382" cy="169.208" r="2.6032" fill="#B3D6CB"/>
<circle cx="158.795" cy="169.208" r="2.6032" fill="#B3D6CB"/>
<circle cx="169.208" cy="169.208" r="2.6032" fill="#B3D6CB"/>
<circle cx="179.621" cy="169.208" r="2.6032" fill="#B3D6CB"/>
<circle cx="190.033" cy="169.208" r="2.6032" fill="#B3D6CB"/>
<circle cx="200.446" cy="169.208" r="2.6032" fill="#B3D6CB"/>
<circle cx="2.6032" cy="179.621" r="2.6032" fill="#B3D6CB"/>
<circle cx="13.0159" cy="179.621" r="2.6032" fill="#B3D6CB"/>
<circle cx="23.4288" cy="179.621" r="2.6032" fill="#B3D6CB"/>
<circle cx="33.8416" cy="179.621" r="2.6032" fill="#B3D6CB"/>
<circle cx="44.2544" cy="179.621" r="2.6032" fill="#B3D6CB"/>
<circle cx="54.6672" cy="179.621" r="2.6032" fill="#B3D6CB"/>
<circle cx="65.0799" cy="179.621" r="2.6032" fill="#B3D6CB"/>
<circle cx="75.4927" cy="179.621" r="2.6032" fill="#B3D6CB"/>
<circle cx="85.9055" cy="179.621" r="2.6032" fill="#B3D6CB"/>
<circle cx="96.3183" cy="179.621" r="2.6032" fill="#B3D6CB"/>
<circle cx="106.731" cy="179.621" r="2.6032" fill="#B3D6CB"/>
<circle cx="117.144" cy="179.621" r="2.6032" fill="#B3D6CB"/>
<circle cx="127.557" cy="179.621" r="2.6032" fill="#B3D6CB"/>
<circle cx="137.97" cy="179.621" r="2.6032" fill="#B3D6CB"/>
<circle cx="148.382" cy="179.621" r="2.6032" fill="#B3D6CB"/>
<circle cx="158.795" cy="179.621" r="2.6032" fill="#B3D6CB"/>
<circle cx="169.208" cy="179.621" r="2.6032" fill="#B3D6CB"/>
<circle cx="179.621" cy="179.621" r="2.6032" fill="#B3D6CB"/>
<circle cx="190.033" cy="179.621" r="2.6032" fill="#B3D6CB"/>
<circle cx="200.446" cy="179.621" r="2.6032" fill="#B3D6CB"/>
<circle cx="2.6032" cy="190.034" r="2.6032" fill="#B3D6CB"/>
<circle cx="13.0159" cy="190.034" r="2.6032" fill="#B3D6CB"/>
<circle cx="23.4288" cy="190.034" r="2.6032" fill="#B3D6CB"/>
<circle cx="33.8416" cy="190.034" r="2.6032" fill="#B3D6CB"/>
<circle cx="44.2544" cy="190.034" r="2.6032" fill="#B3D6CB"/>
<circle cx="54.6672" cy="190.034" r="2.6032" fill="#B3D6CB"/>
<circle cx="65.0799" cy="190.034" r="2.6032" fill="#B3D6CB"/>
<circle cx="75.4927" cy="190.034" r="2.6032" fill="#B3D6CB"/>
<circle cx="85.9055" cy="190.034" r="2.6032" fill="#B3D6CB"/>
<circle cx="96.3183" cy="190.034" r="2.6032" fill="#B3D6CB"/>
<circle cx="106.731" cy="190.034" r="2.6032" fill="#B3D6CB"/>
<circle cx="117.144" cy="190.034" r="2.6032" fill="#B3D6CB"/>
<circle cx="127.557" cy="190.034" r="2.6032" fill="#B3D6CB"/>
<circle cx="137.97" cy="190.034" r="2.6032" fill="#B3D6CB"/>
<circle cx="148.382" cy="190.034" r="2.6032" fill="#B3D6CB"/>
<circle cx="158.795" cy="190.034" r="2.6032" fill="#B3D6CB"/>
<circle cx="169.208" cy="190.034" r="2.6032" fill="#B3D6CB"/>
<circle cx="179.621" cy="190.034" r="2.6032" fill="#B3D6CB"/>
<circle cx="190.033" cy="190.034" r="2.6032" fill="#B3D6CB"/>
<circle cx="200.446" cy="190.034" r="2.6032" fill="#B3D6CB"/>
<circle cx="2.6032" cy="200.446" r="2.6032" fill="#B3D6CB"/>
<circle cx="13.0159" cy="200.446" r="2.6032" fill="#B3D6CB"/>
<circle cx="23.4288" cy="200.446" r="2.6032" fill="#B3D6CB"/>
<circle cx="33.8416" cy="200.446" r="2.6032" fill="#B3D6CB"/>
<circle cx="44.2544" cy="200.446" r="2.6032" fill="#B3D6CB"/>
<circle cx="54.6672" cy="200.446" r="2.6032" fill="#B3D6CB"/>
<circle cx="65.0799" cy="200.446" r="2.6032" fill="#B3D6CB"/>
<circle cx="75.4927" cy="200.446" r="2.6032" fill="#B3D6CB"/>
<circle cx="85.9055" cy="200.446" r="2.6032" fill="#B3D6CB"/>
<circle cx="96.3183" cy="200.446" r="2.6032" fill="#B3D6CB"/>
<circle cx="106.731" cy="200.446" r="2.6032" fill="#B3D6CB"/>
<circle cx="117.144" cy="200.446" r="2.6032" fill="#B3D6CB"/>
<circle cx="127.557" cy="200.446" r="2.6032" fill="#B3D6CB"/>
<circle cx="137.97" cy="200.446" r="2.6032" fill="#B3D6CB"/>
<circle cx="148.382" cy="200.446" r="2.6032" fill="#B3D6CB"/>
<circle cx="158.795" cy="200.446" r="2.6032" fill="#B3D6CB"/>
<circle cx="169.208" cy="200.446" r="2.6032" fill="#B3D6CB"/>
<circle cx="179.621" cy="200.446" r="2.6032" fill="#B3D6CB"/>
<circle cx="190.033" cy="200.446" r="2.6032" fill="#B3D6CB"/>
<circle cx="200.446" cy="200.446" r="2.6032" fill="#B3D6CB"/>
</g>
<ellipse cx="146.5" cy="219.977" rx="68.5" ry="69.5" fill="#E4F3F3"/>
</svg>
