<svg width="134" height="166" viewBox="0 0 134 166" fill="none" xmlns="http://www.w3.org/2000/svg">
<path d="M132.263 137.252C132.263 151.863 120.2 163.752 105.263 163.752C90.326 163.752 78.2628 151.863 78.2628 137.252C78.2628 122.642 90.326 110.752 105.263 110.752C120.2 110.752 132.263 122.642 132.263 137.252Z" stroke="white" stroke-width="3"/>
<mask id="mask0_168_366" style="mask-type:alpha" maskUnits="userSpaceOnUse" x="0" y="0" width="105" height="106">
<ellipse cx="52.0552" cy="52.5001" rx="52.0552" ry="52.5001" fill="white"/>
</mask>
<g mask="url(#mask0_168_366)">
<circle cx="1.33475" cy="1.33475" r="1.33475" fill="white"/>
<circle cx="6.67368" cy="1.33475" r="1.33475" fill="white"/>
<circle cx="12.0128" cy="1.33475" r="1.33475" fill="white"/>
<circle cx="17.3517" cy="1.33475" r="1.33475" fill="white"/>
<circle cx="22.6908" cy="1.33475" r="1.33475" fill="white"/>
<circle cx="28.0297" cy="1.33475" r="1.33475" fill="white"/>
<circle cx="33.3688" cy="1.33475" r="1.33475" fill="white"/>
<circle cx="38.7077" cy="1.33475" r="1.33475" fill="white"/>
<circle cx="44.0468" cy="1.33475" r="1.33475" fill="white"/>
<circle cx="49.3857" cy="1.33475" r="1.33475" fill="white"/>
<circle cx="54.7248" cy="1.33475" r="1.33475" fill="white"/>
<circle cx="60.0638" cy="1.33475" r="1.33475" fill="white"/>
<circle cx="65.4028" cy="1.33475" r="1.33475" fill="white"/>
<circle cx="70.7417" cy="1.33475" r="1.33475" fill="white"/>
<circle cx="76.0807" cy="1.33475" r="1.33475" fill="white"/>
<circle cx="81.4198" cy="1.33475" r="1.33475" fill="white"/>
<circle cx="86.7587" cy="1.33475" r="1.33475" fill="white"/>
<circle cx="92.0978" cy="1.33475" r="1.33475" fill="white"/>
<circle cx="97.4367" cy="1.33475" r="1.33475" fill="white"/>
<circle cx="102.776" cy="1.33475" r="1.33475" fill="white"/>
<circle cx="1.33475" cy="6.67375" r="1.33475" fill="white"/>
<circle cx="6.67368" cy="6.67375" r="1.33475" fill="white"/>
<circle cx="12.0128" cy="6.67375" r="1.33475" fill="white"/>
<circle cx="17.3517" cy="6.67375" r="1.33475" fill="white"/>
<circle cx="22.6908" cy="6.67375" r="1.33475" fill="white"/>
<circle cx="28.0297" cy="6.67375" r="1.33475" fill="white"/>
<circle cx="33.3688" cy="6.67375" r="1.33475" fill="white"/>
<circle cx="38.7077" cy="6.67375" r="1.33475" fill="white"/>
<circle cx="44.0468" cy="6.67375" r="1.33475" fill="white"/>
<circle cx="49.3857" cy="6.67375" r="1.33475" fill="white"/>
<circle cx="54.7248" cy="6.67375" r="1.33475" fill="white"/>
<circle cx="60.0638" cy="6.67375" r="1.33475" fill="white"/>
<circle cx="65.4028" cy="6.67375" r="1.33475" fill="white"/>
<circle cx="70.7417" cy="6.67375" r="1.33475" fill="white"/>
<circle cx="76.0807" cy="6.67375" r="1.33475" fill="white"/>
<circle cx="81.4198" cy="6.67375" r="1.33475" fill="white"/>
<circle cx="86.7587" cy="6.67375" r="1.33475" fill="white"/>
<circle cx="92.0978" cy="6.67375" r="1.33475" fill="white"/>
<circle cx="97.4367" cy="6.67375" r="1.33475" fill="white"/>
<circle cx="102.776" cy="6.67375" r="1.33475" fill="white"/>
<circle cx="1.33475" cy="12.0128" r="1.33475" fill="white"/>
<circle cx="6.67368" cy="12.0128" r="1.33475" fill="white"/>
<circle cx="12.0128" cy="12.0128" r="1.33475" fill="white"/>
<circle cx="17.3517" cy="12.0128" r="1.33475" fill="white"/>
<circle cx="22.6908" cy="12.0128" r="1.33475" fill="white"/>
<circle cx="28.0297" cy="12.0128" r="1.33475" fill="white"/>
<circle cx="33.3688" cy="12.0128" r="1.33475" fill="white"/>
<circle cx="38.7077" cy="12.0128" r="1.33475" fill="white"/>
<circle cx="44.0468" cy="12.0128" r="1.33475" fill="white"/>
<circle cx="49.3857" cy="12.0128" r="1.33475" fill="white"/>
<circle cx="54.7248" cy="12.0128" r="1.33475" fill="white"/>
<circle cx="60.0638" cy="12.0128" r="1.33475" fill="white"/>
<circle cx="65.4028" cy="12.0128" r="1.33475" fill="white"/>
<circle cx="70.7417" cy="12.0128" r="1.33475" fill="white"/>
<circle cx="76.0807" cy="12.0128" r="1.33475" fill="white"/>
<circle cx="81.4198" cy="12.0128" r="1.33475" fill="white"/>
<circle cx="86.7587" cy="12.0128" r="1.33475" fill="white"/>
<circle cx="92.0978" cy="12.0128" r="1.33475" fill="white"/>
<circle cx="97.4367" cy="12.0128" r="1.33475" fill="white"/>
<circle cx="102.776" cy="12.0128" r="1.33475" fill="white"/>
<circle cx="1.33475" cy="17.3517" r="1.33475" fill="white"/>
<circle cx="6.67368" cy="17.3517" r="1.33475" fill="white"/>
<circle cx="12.0128" cy="17.3517" r="1.33475" fill="white"/>
<circle cx="17.3517" cy="17.3517" r="1.33475" fill="white"/>
<circle cx="22.6908" cy="17.3517" r="1.33475" fill="white"/>
<circle cx="28.0297" cy="17.3517" r="1.33475" fill="white"/>
<circle cx="33.3688" cy="17.3517" r="1.33475" fill="white"/>
<circle cx="38.7077" cy="17.3517" r="1.33475" fill="white"/>
<circle cx="44.0468" cy="17.3517" r="1.33475" fill="white"/>
<circle cx="49.3857" cy="17.3517" r="1.33475" fill="white"/>
<circle cx="54.7248" cy="17.3517" r="1.33475" fill="white"/>
<circle cx="60.0638" cy="17.3517" r="1.33475" fill="white"/>
<circle cx="65.4028" cy="17.3517" r="1.33475" fill="white"/>
<circle cx="70.7417" cy="17.3517" r="1.33475" fill="white"/>
<circle cx="76.0807" cy="17.3517" r="1.33475" fill="white"/>
<circle cx="81.4198" cy="17.3517" r="1.33475" fill="white"/>
<circle cx="86.7587" cy="17.3517" r="1.33475" fill="white"/>
<circle cx="92.0978" cy="17.3517" r="1.33475" fill="white"/>
<circle cx="97.4367" cy="17.3517" r="1.33475" fill="white"/>
<circle cx="102.776" cy="17.3517" r="1.33475" fill="white"/>
<circle cx="1.33475" cy="22.6907" r="1.33475" fill="white"/>
<circle cx="6.67368" cy="22.6907" r="1.33475" fill="white"/>
<circle cx="12.0128" cy="22.6907" r="1.33475" fill="white"/>
<circle cx="17.3517" cy="22.6907" r="1.33475" fill="white"/>
<circle cx="22.6908" cy="22.6907" r="1.33475" fill="white"/>
<circle cx="28.0297" cy="22.6907" r="1.33475" fill="white"/>
<circle cx="33.3688" cy="22.6907" r="1.33475" fill="white"/>
<circle cx="38.7077" cy="22.6907" r="1.33475" fill="white"/>
<circle cx="44.0468" cy="22.6907" r="1.33475" fill="white"/>
<circle cx="49.3857" cy="22.6907" r="1.33475" fill="white"/>
<circle cx="54.7248" cy="22.6907" r="1.33475" fill="white"/>
<circle cx="60.0638" cy="22.6907" r="1.33475" fill="white"/>
<circle cx="65.4028" cy="22.6907" r="1.33475" fill="white"/>
<circle cx="70.7417" cy="22.6907" r="1.33475" fill="white"/>
<circle cx="76.0807" cy="22.6907" r="1.33475" fill="white"/>
<circle cx="81.4198" cy="22.6907" r="1.33475" fill="white"/>
<circle cx="86.7587" cy="22.6907" r="1.33475" fill="white"/>
<circle cx="92.0978" cy="22.6907" r="1.33475" fill="white"/>
<circle cx="97.4367" cy="22.6907" r="1.33475" fill="white"/>
<circle cx="102.776" cy="22.6907" r="1.33475" fill="white"/>
<circle cx="1.33475" cy="28.0297" r="1.33475" fill="white"/>
<circle cx="6.67368" cy="28.0297" r="1.33475" fill="white"/>
<circle cx="12.0128" cy="28.0297" r="1.33475" fill="white"/>
<circle cx="17.3517" cy="28.0297" r="1.33475" fill="white"/>
<circle cx="22.6908" cy="28.0297" r="1.33475" fill="white"/>
<circle cx="28.0297" cy="28.0297" r="1.33475" fill="white"/>
<circle cx="33.3688" cy="28.0297" r="1.33475" fill="white"/>
<circle cx="38.7077" cy="28.0297" r="1.33475" fill="white"/>
<circle cx="44.0468" cy="28.0297" r="1.33475" fill="white"/>
<circle cx="49.3857" cy="28.0297" r="1.33475" fill="white"/>
<circle cx="54.7248" cy="28.0297" r="1.33475" fill="white"/>
<circle cx="60.0638" cy="28.0297" r="1.33475" fill="white"/>
<circle cx="65.4028" cy="28.0297" r="1.33475" fill="white"/>
<circle cx="70.7417" cy="28.0297" r="1.33475" fill="white"/>
<circle cx="76.0807" cy="28.0297" r="1.33475" fill="white"/>
<circle cx="81.4198" cy="28.0297" r="1.33475" fill="white"/>
<circle cx="86.7587" cy="28.0297" r="1.33475" fill="white"/>
<circle cx="92.0978" cy="28.0297" r="1.33475" fill="white"/>
<circle cx="97.4367" cy="28.0297" r="1.33475" fill="white"/>
<circle cx="102.776" cy="28.0297" r="1.33475" fill="white"/>
<circle cx="1.33475" cy="33.3687" r="1.33475" fill="white"/>
<circle cx="6.67368" cy="33.3687" r="1.33475" fill="white"/>
<circle cx="12.0128" cy="33.3687" r="1.33475" fill="white"/>
<circle cx="17.3517" cy="33.3687" r="1.33475" fill="white"/>
<circle cx="22.6908" cy="33.3687" r="1.33475" fill="white"/>
<circle cx="28.0297" cy="33.3687" r="1.33475" fill="white"/>
<circle cx="33.3688" cy="33.3687" r="1.33475" fill="white"/>
<circle cx="38.7077" cy="33.3687" r="1.33475" fill="white"/>
<circle cx="44.0468" cy="33.3687" r="1.33475" fill="white"/>
<circle cx="49.3857" cy="33.3687" r="1.33475" fill="white"/>
<circle cx="54.7248" cy="33.3687" r="1.33475" fill="white"/>
<circle cx="60.0638" cy="33.3687" r="1.33475" fill="white"/>
<circle cx="65.4028" cy="33.3687" r="1.33475" fill="white"/>
<circle cx="70.7417" cy="33.3687" r="1.33475" fill="white"/>
<circle cx="76.0807" cy="33.3687" r="1.33475" fill="white"/>
<circle cx="81.4198" cy="33.3687" r="1.33475" fill="white"/>
<circle cx="86.7587" cy="33.3687" r="1.33475" fill="white"/>
<circle cx="92.0978" cy="33.3687" r="1.33475" fill="white"/>
<circle cx="97.4367" cy="33.3687" r="1.33475" fill="white"/>
<circle cx="102.776" cy="33.3687" r="1.33475" fill="white"/>
<circle cx="1.33475" cy="38.7077" r="1.33475" fill="white"/>
<circle cx="6.67368" cy="38.7077" r="1.33475" fill="white"/>
<circle cx="12.0128" cy="38.7077" r="1.33475" fill="white"/>
<circle cx="17.3517" cy="38.7077" r="1.33475" fill="white"/>
<circle cx="22.6908" cy="38.7077" r="1.33475" fill="white"/>
<circle cx="28.0297" cy="38.7077" r="1.33475" fill="white"/>
<circle cx="33.3688" cy="38.7077" r="1.33475" fill="white"/>
<circle cx="38.7077" cy="38.7077" r="1.33475" fill="white"/>
<circle cx="44.0468" cy="38.7077" r="1.33475" fill="white"/>
<circle cx="49.3857" cy="38.7077" r="1.33475" fill="white"/>
<circle cx="54.7248" cy="38.7077" r="1.33475" fill="white"/>
<circle cx="60.0638" cy="38.7077" r="1.33475" fill="white"/>
<circle cx="65.4028" cy="38.7077" r="1.33475" fill="white"/>
<circle cx="70.7417" cy="38.7077" r="1.33475" fill="white"/>
<circle cx="76.0807" cy="38.7077" r="1.33475" fill="white"/>
<circle cx="81.4198" cy="38.7077" r="1.33475" fill="white"/>
<circle cx="86.7587" cy="38.7077" r="1.33475" fill="white"/>
<circle cx="92.0978" cy="38.7077" r="1.33475" fill="white"/>
<circle cx="97.4367" cy="38.7077" r="1.33475" fill="white"/>
<circle cx="102.776" cy="38.7077" r="1.33475" fill="white"/>
<circle cx="1.33475" cy="44.0467" r="1.33475" fill="white"/>
<circle cx="6.67368" cy="44.0467" r="1.33475" fill="white"/>
<circle cx="12.0128" cy="44.0467" r="1.33475" fill="white"/>
<circle cx="17.3517" cy="44.0467" r="1.33475" fill="white"/>
<circle cx="22.6908" cy="44.0467" r="1.33475" fill="white"/>
<circle cx="28.0297" cy="44.0467" r="1.33475" fill="white"/>
<circle cx="33.3688" cy="44.0467" r="1.33475" fill="white"/>
<circle cx="38.7077" cy="44.0467" r="1.33475" fill="white"/>
<circle cx="44.0468" cy="44.0467" r="1.33475" fill="white"/>
<circle cx="49.3857" cy="44.0467" r="1.33475" fill="white"/>
<circle cx="54.7248" cy="44.0467" r="1.33475" fill="white"/>
<circle cx="60.0638" cy="44.0467" r="1.33475" fill="white"/>
<circle cx="65.4028" cy="44.0467" r="1.33475" fill="white"/>
<circle cx="70.7417" cy="44.0467" r="1.33475" fill="white"/>
<circle cx="76.0807" cy="44.0467" r="1.33475" fill="white"/>
<circle cx="81.4198" cy="44.0467" r="1.33475" fill="white"/>
<circle cx="86.7587" cy="44.0467" r="1.33475" fill="white"/>
<circle cx="92.0978" cy="44.0467" r="1.33475" fill="white"/>
<circle cx="97.4367" cy="44.0467" r="1.33475" fill="white"/>
<circle cx="102.776" cy="44.0467" r="1.33475" fill="white"/>
<circle cx="1.33475" cy="49.3857" r="1.33475" fill="white"/>
<circle cx="6.67368" cy="49.3857" r="1.33475" fill="white"/>
<circle cx="12.0128" cy="49.3857" r="1.33475" fill="white"/>
<circle cx="17.3517" cy="49.3857" r="1.33475" fill="white"/>
<circle cx="22.6908" cy="49.3857" r="1.33475" fill="white"/>
<circle cx="28.0297" cy="49.3857" r="1.33475" fill="white"/>
<circle cx="33.3688" cy="49.3857" r="1.33475" fill="white"/>
<circle cx="38.7077" cy="49.3857" r="1.33475" fill="white"/>
<circle cx="44.0468" cy="49.3857" r="1.33475" fill="white"/>
<circle cx="49.3857" cy="49.3857" r="1.33475" fill="white"/>
<circle cx="54.7248" cy="49.3857" r="1.33475" fill="white"/>
<circle cx="60.0638" cy="49.3857" r="1.33475" fill="white"/>
<circle cx="65.4028" cy="49.3857" r="1.33475" fill="white"/>
<circle cx="70.7417" cy="49.3857" r="1.33475" fill="white"/>
<circle cx="76.0807" cy="49.3857" r="1.33475" fill="white"/>
<circle cx="81.4198" cy="49.3857" r="1.33475" fill="white"/>
<circle cx="86.7587" cy="49.3857" r="1.33475" fill="white"/>
<circle cx="92.0978" cy="49.3857" r="1.33475" fill="white"/>
<circle cx="97.4367" cy="49.3857" r="1.33475" fill="white"/>
<circle cx="102.776" cy="49.3857" r="1.33475" fill="white"/>
<circle cx="1.33475" cy="54.7247" r="1.33475" fill="white"/>
<circle cx="6.67368" cy="54.7247" r="1.33475" fill="white"/>
<circle cx="12.0128" cy="54.7247" r="1.33475" fill="white"/>
<circle cx="17.3517" cy="54.7247" r="1.33475" fill="white"/>
<circle cx="22.6908" cy="54.7247" r="1.33475" fill="white"/>
<circle cx="28.0297" cy="54.7247" r="1.33475" fill="white"/>
<circle cx="33.3688" cy="54.7247" r="1.33475" fill="white"/>
<circle cx="38.7077" cy="54.7247" r="1.33475" fill="white"/>
<circle cx="44.0468" cy="54.7247" r="1.33475" fill="white"/>
<circle cx="49.3857" cy="54.7247" r="1.33475" fill="white"/>
<circle cx="54.7248" cy="54.7247" r="1.33475" fill="white"/>
<circle cx="60.0638" cy="54.7247" r="1.33475" fill="white"/>
<circle cx="65.4028" cy="54.7247" r="1.33475" fill="white"/>
<circle cx="70.7417" cy="54.7247" r="1.33475" fill="white"/>
<circle cx="76.0807" cy="54.7247" r="1.33475" fill="white"/>
<circle cx="81.4198" cy="54.7247" r="1.33475" fill="white"/>
<circle cx="86.7587" cy="54.7247" r="1.33475" fill="white"/>
<circle cx="92.0978" cy="54.7247" r="1.33475" fill="white"/>
<circle cx="97.4367" cy="54.7247" r="1.33475" fill="white"/>
<circle cx="102.776" cy="54.7247" r="1.33475" fill="white"/>
<circle cx="1.33475" cy="60.0637" r="1.33475" fill="white"/>
<circle cx="6.67368" cy="60.0637" r="1.33475" fill="white"/>
<circle cx="12.0128" cy="60.0637" r="1.33475" fill="white"/>
<circle cx="17.3517" cy="60.0637" r="1.33475" fill="white"/>
<circle cx="22.6908" cy="60.0637" r="1.33475" fill="white"/>
<circle cx="28.0297" cy="60.0637" r="1.33475" fill="white"/>
<circle cx="33.3688" cy="60.0637" r="1.33475" fill="white"/>
<circle cx="38.7077" cy="60.0637" r="1.33475" fill="white"/>
<circle cx="44.0468" cy="60.0637" r="1.33475" fill="white"/>
<circle cx="49.3857" cy="60.0637" r="1.33475" fill="white"/>
<circle cx="54.7248" cy="60.0637" r="1.33475" fill="white"/>
<circle cx="60.0638" cy="60.0637" r="1.33475" fill="white"/>
<circle cx="65.4028" cy="60.0637" r="1.33475" fill="white"/>
<circle cx="70.7417" cy="60.0637" r="1.33475" fill="white"/>
<circle cx="76.0807" cy="60.0637" r="1.33475" fill="white"/>
<circle cx="81.4198" cy="60.0637" r="1.33475" fill="white"/>
<circle cx="86.7587" cy="60.0637" r="1.33475" fill="white"/>
<circle cx="92.0978" cy="60.0637" r="1.33475" fill="white"/>
<circle cx="97.4367" cy="60.0637" r="1.33475" fill="white"/>
<circle cx="102.776" cy="60.0637" r="1.33475" fill="white"/>
<circle cx="1.33475" cy="65.4027" r="1.33475" fill="white"/>
<circle cx="6.67368" cy="65.4027" r="1.33475" fill="white"/>
<circle cx="12.0128" cy="65.4027" r="1.33475" fill="white"/>
<circle cx="17.3517" cy="65.4027" r="1.33475" fill="white"/>
<circle cx="22.6908" cy="65.4027" r="1.33475" fill="white"/>
<circle cx="28.0297" cy="65.4027" r="1.33475" fill="white"/>
<circle cx="33.3688" cy="65.4027" r="1.33475" fill="white"/>
<circle cx="38.7077" cy="65.4027" r="1.33475" fill="white"/>
<circle cx="44.0468" cy="65.4027" r="1.33475" fill="white"/>
<circle cx="49.3857" cy="65.4027" r="1.33475" fill="white"/>
<circle cx="54.7248" cy="65.4027" r="1.33475" fill="white"/>
<circle cx="60.0638" cy="65.4027" r="1.33475" fill="white"/>
<circle cx="65.4028" cy="65.4027" r="1.33475" fill="white"/>
<circle cx="70.7417" cy="65.4027" r="1.33475" fill="white"/>
<circle cx="76.0807" cy="65.4027" r="1.33475" fill="white"/>
<circle cx="81.4198" cy="65.4027" r="1.33475" fill="white"/>
<circle cx="86.7587" cy="65.4027" r="1.33475" fill="white"/>
<circle cx="92.0978" cy="65.4027" r="1.33475" fill="white"/>
<circle cx="97.4367" cy="65.4027" r="1.33475" fill="white"/>
<circle cx="102.776" cy="65.4027" r="1.33475" fill="white"/>
<circle cx="1.33475" cy="70.7417" r="1.33475" fill="white"/>
<circle cx="6.67368" cy="70.7417" r="1.33475" fill="white"/>
<circle cx="12.0128" cy="70.7417" r="1.33475" fill="white"/>
<circle cx="17.3517" cy="70.7417" r="1.33475" fill="white"/>
<circle cx="22.6908" cy="70.7417" r="1.33475" fill="white"/>
<circle cx="28.0297" cy="70.7417" r="1.33475" fill="white"/>
<circle cx="33.3688" cy="70.7417" r="1.33475" fill="white"/>
<circle cx="38.7077" cy="70.7417" r="1.33475" fill="white"/>
<circle cx="44.0468" cy="70.7417" r="1.33475" fill="white"/>
<circle cx="49.3857" cy="70.7417" r="1.33475" fill="white"/>
<circle cx="54.7248" cy="70.7417" r="1.33475" fill="white"/>
<circle cx="60.0638" cy="70.7417" r="1.33475" fill="white"/>
<circle cx="65.4028" cy="70.7417" r="1.33475" fill="white"/>
<circle cx="70.7417" cy="70.7417" r="1.33475" fill="white"/>
<circle cx="76.0807" cy="70.7417" r="1.33475" fill="white"/>
<circle cx="81.4198" cy="70.7417" r="1.33475" fill="white"/>
<circle cx="86.7587" cy="70.7417" r="1.33475" fill="white"/>
<circle cx="92.0978" cy="70.7417" r="1.33475" fill="white"/>
<circle cx="97.4367" cy="70.7417" r="1.33475" fill="white"/>
<circle cx="102.776" cy="70.7417" r="1.33475" fill="white"/>
<circle cx="1.33475" cy="76.0807" r="1.33475" fill="white"/>
<circle cx="6.67368" cy="76.0807" r="1.33475" fill="white"/>
<circle cx="12.0128" cy="76.0807" r="1.33475" fill="white"/>
<circle cx="17.3517" cy="76.0807" r="1.33475" fill="white"/>
<circle cx="22.6908" cy="76.0807" r="1.33475" fill="white"/>
<circle cx="28.0297" cy="76.0807" r="1.33475" fill="white"/>
<circle cx="33.3688" cy="76.0807" r="1.33475" fill="white"/>
<circle cx="38.7077" cy="76.0807" r="1.33475" fill="white"/>
<circle cx="44.0468" cy="76.0807" r="1.33475" fill="white"/>
<circle cx="49.3857" cy="76.0807" r="1.33475" fill="white"/>
<circle cx="54.7248" cy="76.0807" r="1.33475" fill="white"/>
<circle cx="60.0638" cy="76.0807" r="1.33475" fill="white"/>
<circle cx="65.4028" cy="76.0807" r="1.33475" fill="white"/>
<circle cx="70.7417" cy="76.0807" r="1.33475" fill="white"/>
<circle cx="76.0807" cy="76.0807" r="1.33475" fill="white"/>
<circle cx="81.4198" cy="76.0807" r="1.33475" fill="white"/>
<circle cx="86.7587" cy="76.0807" r="1.33475" fill="white"/>
<circle cx="92.0978" cy="76.0807" r="1.33475" fill="white"/>
<circle cx="97.4367" cy="76.0807" r="1.33475" fill="white"/>
<circle cx="102.776" cy="76.0807" r="1.33475" fill="white"/>
<circle cx="1.33475" cy="81.4197" r="1.33475" fill="white"/>
<circle cx="6.67368" cy="81.4197" r="1.33475" fill="white"/>
<circle cx="12.0128" cy="81.4197" r="1.33475" fill="white"/>
<circle cx="17.3517" cy="81.4197" r="1.33475" fill="white"/>
<circle cx="22.6908" cy="81.4197" r="1.33475" fill="white"/>
<circle cx="28.0297" cy="81.4197" r="1.33475" fill="white"/>
<circle cx="33.3688" cy="81.4197" r="1.33475" fill="white"/>
<circle cx="38.7077" cy="81.4197" r="1.33475" fill="white"/>
<circle cx="44.0468" cy="81.4197" r="1.33475" fill="white"/>
<circle cx="49.3857" cy="81.4197" r="1.33475" fill="white"/>
<circle cx="54.7248" cy="81.4197" r="1.33475" fill="white"/>
<circle cx="60.0638" cy="81.4197" r="1.33475" fill="white"/>
<circle cx="65.4028" cy="81.4197" r="1.33475" fill="white"/>
<circle cx="70.7417" cy="81.4197" r="1.33475" fill="white"/>
<circle cx="76.0807" cy="81.4197" r="1.33475" fill="white"/>
<circle cx="81.4198" cy="81.4197" r="1.33475" fill="white"/>
<circle cx="86.7587" cy="81.4197" r="1.33475" fill="white"/>
<circle cx="92.0978" cy="81.4197" r="1.33475" fill="white"/>
<circle cx="97.4367" cy="81.4197" r="1.33475" fill="white"/>
<circle cx="102.776" cy="81.4197" r="1.33475" fill="white"/>
<circle cx="1.33475" cy="86.7587" r="1.33475" fill="white"/>
<circle cx="6.67368" cy="86.7587" r="1.33475" fill="white"/>
<circle cx="12.0128" cy="86.7587" r="1.33475" fill="white"/>
<circle cx="17.3517" cy="86.7587" r="1.33475" fill="white"/>
<circle cx="22.6908" cy="86.7587" r="1.33475" fill="white"/>
<circle cx="28.0297" cy="86.7587" r="1.33475" fill="white"/>
<circle cx="33.3688" cy="86.7587" r="1.33475" fill="white"/>
<circle cx="38.7077" cy="86.7587" r="1.33475" fill="white"/>
<circle cx="44.0468" cy="86.7587" r="1.33475" fill="white"/>
<circle cx="49.3857" cy="86.7587" r="1.33475" fill="white"/>
<circle cx="54.7248" cy="86.7587" r="1.33475" fill="white"/>
<circle cx="60.0638" cy="86.7587" r="1.33475" fill="white"/>
<circle cx="65.4028" cy="86.7587" r="1.33475" fill="white"/>
<circle cx="70.7417" cy="86.7587" r="1.33475" fill="white"/>
<circle cx="76.0807" cy="86.7587" r="1.33475" fill="white"/>
<circle cx="81.4198" cy="86.7587" r="1.33475" fill="white"/>
<circle cx="86.7587" cy="86.7587" r="1.33475" fill="white"/>
<circle cx="92.0978" cy="86.7587" r="1.33475" fill="white"/>
<circle cx="97.4367" cy="86.7587" r="1.33475" fill="white"/>
<circle cx="102.776" cy="86.7587" r="1.33475" fill="white"/>
<circle cx="1.33475" cy="92.0977" r="1.33475" fill="white"/>
<circle cx="6.67368" cy="92.0977" r="1.33475" fill="white"/>
<circle cx="12.0128" cy="92.0977" r="1.33475" fill="white"/>
<circle cx="17.3517" cy="92.0977" r="1.33475" fill="white"/>
<circle cx="22.6908" cy="92.0977" r="1.33475" fill="white"/>
<circle cx="28.0297" cy="92.0977" r="1.33475" fill="white"/>
<circle cx="33.3688" cy="92.0977" r="1.33475" fill="white"/>
<circle cx="38.7077" cy="92.0977" r="1.33475" fill="white"/>
<circle cx="44.0468" cy="92.0977" r="1.33475" fill="white"/>
<circle cx="49.3857" cy="92.0977" r="1.33475" fill="white"/>
<circle cx="54.7248" cy="92.0977" r="1.33475" fill="white"/>
<circle cx="60.0638" cy="92.0977" r="1.33475" fill="white"/>
<circle cx="65.4028" cy="92.0977" r="1.33475" fill="white"/>
<circle cx="70.7417" cy="92.0977" r="1.33475" fill="white"/>
<circle cx="76.0807" cy="92.0977" r="1.33475" fill="white"/>
<circle cx="81.4198" cy="92.0977" r="1.33475" fill="white"/>
<circle cx="86.7587" cy="92.0977" r="1.33475" fill="white"/>
<circle cx="92.0978" cy="92.0977" r="1.33475" fill="white"/>
<circle cx="97.4367" cy="92.0977" r="1.33475" fill="white"/>
<circle cx="102.776" cy="92.0977" r="1.33475" fill="white"/>
<circle cx="1.33475" cy="97.4366" r="1.33475" fill="white"/>
<circle cx="6.67368" cy="97.4366" r="1.33475" fill="white"/>
<circle cx="12.0128" cy="97.4366" r="1.33475" fill="white"/>
<circle cx="17.3517" cy="97.4366" r="1.33475" fill="white"/>
<circle cx="22.6908" cy="97.4366" r="1.33475" fill="white"/>
<circle cx="28.0297" cy="97.4366" r="1.33475" fill="white"/>
<circle cx="33.3688" cy="97.4366" r="1.33475" fill="white"/>
<circle cx="38.7077" cy="97.4366" r="1.33475" fill="white"/>
<circle cx="44.0468" cy="97.4366" r="1.33475" fill="white"/>
<circle cx="49.3857" cy="97.4366" r="1.33475" fill="white"/>
<circle cx="54.7248" cy="97.4366" r="1.33475" fill="white"/>
<circle cx="60.0638" cy="97.4366" r="1.33475" fill="white"/>
<circle cx="65.4028" cy="97.4366" r="1.33475" fill="white"/>
<circle cx="70.7417" cy="97.4366" r="1.33475" fill="white"/>
<circle cx="76.0807" cy="97.4366" r="1.33475" fill="white"/>
<circle cx="81.4198" cy="97.4366" r="1.33475" fill="white"/>
<circle cx="86.7587" cy="97.4366" r="1.33475" fill="white"/>
<circle cx="92.0978" cy="97.4366" r="1.33475" fill="white"/>
<circle cx="97.4367" cy="97.4366" r="1.33475" fill="white"/>
<circle cx="102.776" cy="97.4366" r="1.33475" fill="white"/>
<circle cx="1.33475" cy="102.776" r="1.33475" fill="white"/>
<circle cx="6.67368" cy="102.776" r="1.33475" fill="white"/>
<circle cx="12.0128" cy="102.776" r="1.33475" fill="white"/>
<circle cx="17.3517" cy="102.776" r="1.33475" fill="white"/>
<circle cx="22.6908" cy="102.776" r="1.33475" fill="white"/>
<circle cx="28.0297" cy="102.776" r="1.33475" fill="white"/>
<circle cx="33.3688" cy="102.776" r="1.33475" fill="white"/>
<circle cx="38.7077" cy="102.776" r="1.33475" fill="white"/>
<circle cx="44.0468" cy="102.776" r="1.33475" fill="white"/>
<circle cx="49.3857" cy="102.776" r="1.33475" fill="white"/>
<circle cx="54.7248" cy="102.776" r="1.33475" fill="white"/>
<circle cx="60.0638" cy="102.776" r="1.33475" fill="white"/>
<circle cx="65.4028" cy="102.776" r="1.33475" fill="white"/>
<circle cx="70.7417" cy="102.776" r="1.33475" fill="white"/>
<circle cx="76.0807" cy="102.776" r="1.33475" fill="white"/>
<circle cx="81.4198" cy="102.776" r="1.33475" fill="white"/>
<circle cx="86.7587" cy="102.776" r="1.33475" fill="white"/>
<circle cx="92.0978" cy="102.776" r="1.33475" fill="white"/>
<circle cx="97.4367" cy="102.776" r="1.33475" fill="white"/>
<circle cx="102.776" cy="102.776" r="1.33475" fill="white"/>
</g>
</svg>
