<svg width="71" height="70" viewBox="0 0 71 70" fill="none" xmlns="http://www.w3.org/2000/svg">
<rect width="70" height="70" fill="white"/>
<path d="M68.8343 9H42.2002C42.2002 9 34.1244 43.2088 31.5366 43.2088L70.339 43.3383V10.3946C70.339 9.62447 69.6648 9 68.8334 9H68.8343ZM64.1312 36.383C64.1312 37.1523 63.4578 37.7768 62.6265 37.7768H52.8286C52.0024 37.7768 51.3307 37.1591 51.3247 36.3933L51.1615 16.1171C51.1555 15.3435 51.8306 14.7131 52.6654 14.7131H62.6265C63.457 14.7131 64.1312 15.3367 64.1312 16.1069V36.383Z" fill="#333333"/>
<path d="M19.3696 62L21.2359 52.6687C47.1984 35.2576 50.0206 67.4115 70.3395 50.6155L70.2819 61.2494C70.2819 61.6635 69.6077 61.9991 68.7772 61.9991H19.3696V62Z" fill="#333333"/>
<path d="M21.1985 24.3392C23.5518 15.7022 26.1112 9 28.3854 9L12.5824 9.00852L9.58931 24.3392H0.4021V31.7527C0.4021 32.6055 0.945757 33.2973 1.61653 33.2973H7.84068L2.23834 61.9923H13.3451C13.3451 61.9923 15.7525 47.2359 18.9655 33.2973H59.0046C59.6754 33.2973 60.219 32.6055 60.219 31.7527V24.3392H21.1985Z" fill="#333333"/>
</svg>
