<svg width="1373" height="149" viewBox="0 0 1373 149" fill="none" xmlns="http://www.w3.org/2000/svg">
<g opacity="0.5">
<path d="M34.5314 95.4875L56.4921 6.14824H68.3812L69.1384 24.9725L45.6632 116.665H33.0925L34.5314 95.4875ZM20.6734 6.14824L38.6963 95.1839V116.665H24.9898L0 6.14824H20.6734ZM91.9322 94.8044L109.652 6.14824H130.401L105.412 116.665H91.705L91.9322 94.8044ZM74.0607 6.14824L96.0214 95.7911L97.3088 116.665H84.7381L61.3386 24.8966L62.2473 6.14824H74.0607Z" fill="#C8E7ED"/>
<path d="M136.081 76.4356V74.8416C136.081 68.8198 136.939 63.2788 138.656 58.2185C140.372 53.1077 142.871 48.6799 146.152 44.9353C149.434 41.1907 153.447 38.281 158.193 36.2063C162.939 34.081 168.34 33.0183 174.398 33.0183C180.558 33.0183 186.01 34.081 190.755 36.2063C195.551 38.281 199.59 41.1907 202.872 44.9353C206.153 48.6799 208.652 53.1077 210.369 58.2185C212.085 63.2788 212.943 68.8198 212.943 74.8416V76.4356C212.943 82.4067 212.085 87.9477 210.369 93.0586C208.652 98.1189 206.153 102.547 202.872 106.342C199.59 110.086 195.577 112.996 190.831 115.071C186.086 117.146 180.659 118.183 174.55 118.183C168.492 118.183 163.065 117.146 158.269 115.071C153.473 112.996 149.434 110.086 146.152 106.342C142.871 102.547 140.372 98.1189 138.656 93.0586C136.939 87.9477 136.081 82.4067 136.081 76.4356ZM156.073 74.8416V76.4356C156.073 80.0284 156.426 83.3934 157.133 86.5308C157.84 89.6682 158.925 92.426 160.389 94.8044C161.853 97.1827 163.746 99.055 166.069 100.421C168.441 101.737 171.268 102.395 174.55 102.395C177.781 102.395 180.558 101.737 182.88 100.421C185.202 99.055 187.095 97.1827 188.559 94.8044C190.074 92.426 191.185 89.6682 191.891 86.5308C192.598 83.3934 192.952 80.0284 192.952 76.4356V74.8416C192.952 71.2994 192.598 67.9849 191.891 64.8981C191.185 61.7607 190.074 59.0029 188.559 56.6246C187.095 54.1956 185.177 52.298 182.804 50.9317C180.482 49.5149 177.68 48.8064 174.398 48.8064C171.167 48.8064 168.391 49.5149 166.069 50.9317C163.746 52.298 161.853 54.1956 160.389 56.6246C158.925 59.0029 157.84 61.7607 157.133 64.8981C156.426 67.9849 156.073 71.2994 156.073 74.8416Z" fill="#C8E7ED"/>
<path d="M247.475 51.3113V116.665H227.483V34.5364H246.415L247.475 51.3113ZM272.389 34.0051L272.086 52.6775C270.975 52.4751 269.713 52.3233 268.3 52.2221C266.936 52.1209 265.649 52.0703 264.437 52.0703C261.358 52.0703 258.657 52.5004 256.335 53.3607C254.012 54.1703 252.069 55.3595 250.504 56.9282C248.989 58.4969 247.828 60.4198 247.02 62.6969C246.213 64.9234 245.758 67.4536 245.657 70.2873L241.341 69.756C241.341 64.5439 241.871 59.7113 242.931 55.2583C243.991 50.8052 245.531 46.9088 247.55 43.569C249.57 40.2292 252.094 37.6485 255.123 35.8268C258.203 33.9545 261.737 33.0183 265.725 33.0183C266.836 33.0183 268.022 33.1195 269.284 33.322C270.597 33.4738 271.632 33.7015 272.389 34.0051Z" fill="#C8E7ED"/>
<path d="M303.361 0V116.665H283.369V0H303.361ZM354.704 34.5364L319.036 74.6898L299.726 94.349L293.365 78.7886L308.283 59.9643L330.547 34.5364H354.704ZM334.257 116.665L308.889 78.4091L322.217 65.4294L357.43 116.665H334.257Z" fill="#C8E7ED"/>
<path d="M386.509 34.5364V116.665H366.441V34.5364H386.509ZM365.078 13.0555C365.078 10.07 366.088 7.59042 368.107 5.61691C370.177 3.6434 372.954 2.65665 376.437 2.65665C379.921 2.65665 382.672 3.6434 384.691 5.61691C386.761 7.59042 387.796 10.07 387.796 13.0555C387.796 15.9905 386.761 18.4447 384.691 20.4182C382.672 22.3917 379.921 23.3785 376.437 23.3785C372.954 23.3785 370.177 22.3917 368.107 20.4182C366.088 18.4447 365.078 15.9905 365.078 13.0555Z" fill="#C8E7ED"/>
<path d="M425.205 52.0703V116.665H405.213V34.5364H423.994L425.205 52.0703ZM422.025 72.6403H416.118C416.168 66.6692 416.976 61.2547 418.541 56.3968C420.106 51.539 422.302 47.3642 425.129 43.8726C428.007 40.381 431.415 37.6991 435.353 35.8268C439.29 33.9545 443.682 33.0183 448.529 33.0183C452.467 33.0183 456.026 33.575 459.206 34.6882C462.387 35.8015 465.113 37.5726 467.385 40.0015C469.707 42.4305 471.474 45.6184 472.686 49.5655C473.948 53.4619 474.579 58.2691 474.579 63.9873V116.665H454.436V63.8355C454.436 60.0908 453.88 57.1306 452.77 54.9547C451.71 52.7787 450.144 51.2354 448.075 50.3245C446.055 49.4137 443.556 48.9582 440.578 48.9582C437.498 48.9582 434.797 49.5908 432.475 50.8558C430.203 52.0703 428.285 53.7655 426.72 55.9414C425.205 58.1173 424.044 60.6222 423.236 63.4559C422.429 66.2897 422.025 69.3512 422.025 72.6403Z" fill="#C8E7ED"/>
<path d="M544.323 34.5364H562.498V114.16C562.498 121.599 560.882 127.899 557.651 133.06C554.471 138.272 550.003 142.219 544.247 144.901C538.492 147.634 531.803 149 524.18 149C520.898 149 517.339 148.545 513.502 147.634C509.716 146.723 506.056 145.281 502.522 143.307C499.039 141.384 496.136 138.879 493.814 135.793L502.825 123.952C505.551 127.14 508.631 129.543 512.064 131.163C515.497 132.832 519.207 133.667 523.195 133.667C527.234 133.667 530.667 132.908 533.494 131.39C536.372 129.923 538.568 127.747 540.083 124.862C541.648 122.029 542.43 118.537 542.43 114.388V53.2848L544.323 34.5364ZM488.967 76.5874V74.9934C488.967 68.7186 489.724 63.0258 491.239 57.9149C492.753 52.7534 494.924 48.3257 497.751 44.6317C500.629 40.9377 504.087 38.0786 508.126 36.0545C512.215 34.0304 516.809 33.0183 521.908 33.0183C527.31 33.0183 531.854 34.0051 535.539 35.9786C539.275 37.9521 542.354 40.7606 544.778 44.404C547.251 48.0474 549.17 52.3739 550.533 57.3836C551.946 62.3427 553.032 67.8078 553.789 73.7789V78.1055C553.082 83.9248 551.946 89.2634 550.381 94.1212C548.867 98.9791 546.847 103.23 544.323 106.873C541.799 110.466 538.669 113.249 534.933 115.223C531.197 117.196 526.805 118.183 521.757 118.183C516.708 118.183 512.165 117.146 508.126 115.071C504.087 112.996 500.629 110.086 497.751 106.342C494.924 102.597 492.753 98.1948 491.239 93.1345C489.724 88.0742 488.967 82.5585 488.967 76.5874ZM508.959 74.9934V76.5874C508.959 80.1296 509.312 83.444 510.019 86.5308C510.726 89.6176 511.811 92.3501 513.275 94.7285C514.739 97.0562 516.582 98.8779 518.803 100.194C521.025 101.509 523.675 102.167 526.755 102.167C530.894 102.167 534.277 101.307 536.902 99.5863C539.578 97.8152 541.597 95.4116 542.96 92.3754C544.374 89.2887 545.282 85.8224 545.686 81.9766V70.0596C545.434 67.0234 544.879 64.215 544.02 61.6342C543.213 59.0535 542.077 56.827 540.613 54.9547C539.149 53.0824 537.281 51.6149 535.009 50.5522C532.737 49.4896 530.036 48.9582 526.906 48.9582C523.877 48.9582 521.227 49.6414 518.955 51.0076C516.683 52.3233 514.815 54.1703 513.351 56.5486C511.887 58.927 510.776 61.6848 510.019 64.8222C509.312 67.9596 508.959 71.35 508.959 74.9934Z" fill="#C8E7ED"/>
<path d="M693.732 100.269V116.665H635.119V100.269H693.732ZM641.481 6.14824V116.665H620.656V6.14824H641.481ZM686.084 51.7667V67.7825H635.119V51.7667H686.084ZM693.505 6.14824V22.6195H635.119V6.14824H693.505Z" fill="#C8E7ED"/>
<path d="M722.357 34.5364L736.972 60.6475L751.814 34.5364H773.548L749.467 74.7657L774.532 116.665H752.799L737.123 89.2634L721.372 116.665H699.639L724.628 74.7657L700.699 34.5364H722.357Z" fill="#C8E7ED"/>
<path d="M805.126 50.3245V148.241H785.058V34.5364H803.611L805.126 50.3245ZM857.756 74.7657V76.3597C857.756 82.3308 857.049 87.8718 855.636 92.9827C854.272 98.043 852.253 102.471 849.577 106.266C846.902 110.011 843.57 112.945 839.581 115.071C835.644 117.146 831.1 118.183 825.951 118.183C820.902 118.183 816.51 117.221 812.774 115.299C809.038 113.325 805.883 110.542 803.308 106.949C800.734 103.356 798.664 99.1815 797.099 94.4249C795.584 89.6176 794.448 84.3802 793.691 78.7127V73.6271C794.448 67.6054 795.584 62.1403 797.099 57.2318C798.664 52.2727 800.734 47.9968 803.308 44.404C805.883 40.7606 809.013 37.9521 812.698 35.9786C816.434 34.0051 820.801 33.0183 825.799 33.0183C830.999 33.0183 835.568 34.0051 839.506 35.9786C843.494 37.9521 846.851 40.7859 849.577 44.4799C852.304 48.1739 854.348 52.5763 855.711 57.6872C857.074 62.7981 857.756 68.4909 857.756 74.7657ZM837.688 76.3597V74.7657C837.688 71.1223 837.36 67.7572 836.704 64.6704C836.048 61.533 835.038 58.8005 833.675 56.4727C832.312 54.0944 830.545 52.2474 828.374 50.9317C826.203 49.6161 823.578 48.9582 820.498 48.9582C817.419 48.9582 814.768 49.4643 812.547 50.4763C810.326 51.4884 808.508 52.9305 807.095 54.8029C805.681 56.6752 804.571 58.9017 803.763 61.4824C803.005 64.0126 802.501 66.821 802.248 69.9078V82.5079C802.703 86.2525 803.586 89.6176 804.899 92.6032C806.211 95.5887 808.13 97.9671 810.654 99.7382C813.229 101.509 816.561 102.395 820.65 102.395C823.729 102.395 826.355 101.712 828.525 100.345C830.696 98.9791 832.463 97.1068 833.826 94.7285C835.189 92.2995 836.174 89.5164 836.78 86.379C837.385 83.2416 837.688 79.9019 837.688 76.3597Z" fill="#C8E7ED"/>
<path d="M909.174 118.183C902.965 118.183 897.386 117.171 892.439 115.147C887.491 113.123 883.276 110.314 879.792 106.721C876.359 103.078 873.709 98.8526 871.841 94.0453C870.024 89.1875 869.115 83.9754 869.115 78.4091V75.3729C869.115 69.0475 870.024 63.3041 871.841 58.1426C873.658 52.9305 876.233 48.4522 879.565 44.7076C882.897 40.963 886.885 38.0786 891.53 36.0545C896.175 34.0304 901.299 33.0183 906.902 33.0183C912.708 33.0183 917.832 34.0051 922.275 35.9786C926.718 37.9015 930.428 40.6341 933.407 44.1763C936.385 47.7185 938.632 51.9691 940.146 56.9282C941.661 61.8366 942.418 67.2764 942.418 73.2476V81.6729H878.202V67.8584H922.729V66.3403C922.628 63.1523 922.023 60.2427 920.912 57.6113C919.801 54.9294 918.085 52.804 915.762 51.2354C913.44 49.6161 910.436 48.8064 906.751 48.8064C903.772 48.8064 901.172 49.4643 898.951 50.7799C896.78 52.045 894.963 53.8667 893.499 56.245C892.085 58.5728 891.025 61.3559 890.318 64.5945C889.612 67.8331 889.258 71.4259 889.258 75.3729V78.4091C889.258 81.8501 889.713 85.038 890.621 87.973C891.58 90.908 892.969 93.4634 894.786 95.6393C896.654 97.7646 898.875 99.4345 901.45 100.649C904.075 101.813 907.054 102.395 910.386 102.395C914.576 102.395 918.362 101.585 921.745 99.9659C925.178 98.296 928.156 95.8417 930.681 92.6032L940.752 103.078C939.036 105.608 936.714 108.037 933.785 110.365C930.908 112.692 927.424 114.59 923.335 116.058C919.246 117.474 914.526 118.183 909.174 118.183Z" fill="#C8E7ED"/>
<path d="M975.814 51.3113V116.665H955.822V34.5364H974.754L975.814 51.3113ZM1000.73 34.0051L1000.42 52.6775C999.314 52.4751 998.052 52.3233 996.639 52.2221C995.275 52.1209 993.988 52.0703 992.776 52.0703C989.697 52.0703 986.996 52.5004 984.674 53.3607C982.351 54.1703 980.408 55.3595 978.843 56.9282C977.328 58.4969 976.167 60.4198 975.359 62.6969C974.552 64.9234 974.097 67.4536 973.996 70.2873L969.68 69.756C969.68 64.5439 970.21 59.7113 971.27 55.2583C972.33 50.8052 973.87 46.9088 975.889 43.569C977.909 40.2292 980.433 37.6485 983.462 35.8268C986.542 33.9545 990.076 33.0183 994.064 33.0183C995.174 33.0183 996.361 33.1195 997.623 33.322C998.936 33.4738 999.971 33.7015 1000.73 34.0051Z" fill="#C8E7ED"/>
<path d="M1032.91 34.5364V116.665H1012.84V34.5364H1032.91ZM1011.48 13.0555C1011.48 10.07 1012.49 7.59042 1014.51 5.61691C1016.58 3.6434 1019.36 2.65665 1022.84 2.65665C1026.32 2.65665 1029.07 3.6434 1031.09 5.61691C1033.16 7.59042 1034.2 10.07 1034.2 13.0555C1034.2 15.9905 1033.16 18.4447 1031.09 20.4182C1029.07 22.3917 1026.32 23.3785 1022.84 23.3785C1019.36 23.3785 1016.58 22.3917 1014.51 20.4182C1012.49 18.4447 1011.48 15.9905 1011.48 13.0555Z" fill="#C8E7ED"/>
<path d="M1088.8 118.183C1082.59 118.183 1077.01 117.171 1072.06 115.147C1067.11 113.123 1062.9 110.314 1059.42 106.721C1055.98 103.078 1053.33 98.8526 1051.46 94.0453C1049.65 89.1875 1048.74 83.9754 1048.74 78.4091V75.3729C1048.74 69.0475 1049.65 63.3041 1051.46 58.1426C1053.28 52.9305 1055.86 48.4522 1059.19 44.7076C1062.52 40.963 1066.51 38.0786 1071.15 36.0545C1075.8 34.0304 1080.92 33.0183 1086.53 33.0183C1092.33 33.0183 1097.46 34.0051 1101.9 35.9786C1106.34 37.9015 1110.05 40.6341 1113.03 44.1763C1116.01 47.7185 1118.26 51.9691 1119.77 56.9282C1121.28 61.8366 1122.04 67.2764 1122.04 73.2476V81.6729H1057.83V67.8584H1102.35V66.3403C1102.25 63.1523 1101.65 60.2427 1100.54 57.6113C1099.42 54.9294 1097.71 52.804 1095.39 51.2354C1093.06 49.6161 1090.06 48.8064 1086.37 48.8064C1083.4 48.8064 1080.8 49.4643 1078.57 50.7799C1076.4 52.045 1074.59 53.8667 1073.12 56.245C1071.71 58.5728 1070.65 61.3559 1069.94 64.5945C1069.24 67.8331 1068.88 71.4259 1068.88 75.3729V78.4091C1068.88 81.8501 1069.34 85.038 1070.24 87.973C1071.2 90.908 1072.59 93.4634 1074.41 95.6393C1076.28 97.7646 1078.5 99.4345 1081.07 100.649C1083.7 101.813 1086.68 102.395 1090.01 102.395C1094.2 102.395 1097.99 101.585 1101.37 99.9659C1104.8 98.296 1107.78 95.8417 1110.3 92.6032L1120.38 103.078C1118.66 105.608 1116.34 108.037 1113.41 110.365C1110.53 112.692 1107.05 114.59 1102.96 116.058C1098.87 117.474 1094.15 118.183 1088.8 118.183Z" fill="#C8E7ED"/>
<path d="M1155.06 52.0703V116.665H1135.07V34.5364H1153.85L1155.06 52.0703ZM1151.88 72.6403H1145.97C1146.02 66.6692 1146.83 61.2547 1148.39 56.3968C1149.96 51.539 1152.16 47.3642 1154.98 43.8726C1157.86 40.381 1161.27 37.6991 1165.21 35.8268C1169.14 33.9545 1173.54 33.0183 1178.38 33.0183C1182.32 33.0183 1185.88 33.575 1189.06 34.6882C1192.24 35.8015 1194.97 37.5726 1197.24 40.0015C1199.56 42.4305 1201.33 45.6184 1202.54 49.5655C1203.8 53.4619 1204.43 58.2691 1204.43 63.9873V116.665H1184.29V63.8355C1184.29 60.0908 1183.73 57.1306 1182.62 54.9547C1181.56 52.7787 1180 51.2354 1177.93 50.3245C1175.91 49.4137 1173.41 48.9582 1170.43 48.9582C1167.35 48.9582 1164.65 49.5908 1162.33 50.8558C1160.06 52.0703 1158.14 53.7655 1156.57 55.9414C1155.06 58.1173 1153.9 60.6222 1153.09 63.4559C1152.28 66.2897 1151.88 69.3512 1151.88 72.6403Z" fill="#C8E7ED"/>
<path d="M1255.7 102.395C1258.53 102.395 1261.05 101.838 1263.27 100.725C1265.49 99.6116 1267.26 98.043 1268.57 96.0188C1269.94 93.9947 1270.67 91.6417 1270.77 88.9598H1289.62C1289.52 94.5261 1287.96 99.5104 1284.93 103.913C1281.9 108.315 1277.86 111.807 1272.81 114.388C1267.82 116.918 1262.21 118.183 1256 118.183C1249.69 118.183 1244.19 117.12 1239.49 114.995C1234.8 112.87 1230.89 109.909 1227.76 106.114C1224.68 102.319 1222.35 97.9165 1220.79 92.9068C1219.27 87.8971 1218.52 82.5332 1218.52 76.8151V74.3861C1218.52 68.668 1219.27 63.3041 1220.79 58.2944C1222.35 53.2848 1224.68 48.8823 1227.76 45.0871C1230.89 41.2919 1234.8 38.3316 1239.49 36.2063C1244.19 34.081 1249.67 33.0183 1255.93 33.0183C1262.54 33.0183 1268.35 34.3087 1273.34 36.8895C1278.39 39.4702 1282.33 43.1136 1285.16 47.8197C1288.03 52.5257 1289.52 58.0667 1289.62 64.4427H1270.77C1270.67 61.5077 1270.01 58.8764 1268.8 56.5486C1267.59 54.2209 1265.87 52.3486 1263.65 50.9317C1261.43 49.5149 1258.73 48.8064 1255.55 48.8064C1252.17 48.8064 1249.34 49.5149 1247.07 50.9317C1244.85 52.3486 1243.1 54.2968 1241.84 56.7764C1240.63 59.2053 1239.77 61.9378 1239.27 64.974C1238.81 67.9596 1238.59 71.097 1238.59 74.3861V76.8151C1238.59 80.1549 1238.81 83.3428 1239.27 86.379C1239.77 89.4152 1240.63 92.1477 1241.84 94.5767C1243.1 96.955 1244.85 98.8526 1247.07 100.269C1249.34 101.686 1252.22 102.395 1255.7 102.395Z" fill="#C8E7ED"/>
<path d="M1339.76 118.183C1333.55 118.183 1327.97 117.171 1323.02 115.147C1318.07 113.123 1313.86 110.314 1310.37 106.721C1306.94 103.078 1304.29 98.8526 1302.42 94.0453C1300.61 89.1875 1299.7 83.9754 1299.7 78.4091V75.3729C1299.7 69.0475 1300.61 63.3041 1302.42 58.1426C1304.24 52.9305 1306.81 48.4522 1310.15 44.7076C1313.48 40.963 1317.47 38.0786 1322.11 36.0545C1326.76 34.0304 1331.88 33.0183 1337.48 33.0183C1343.29 33.0183 1348.41 34.0051 1352.86 35.9786C1357.3 37.9015 1361.01 40.6341 1363.99 44.1763C1366.97 47.7185 1369.21 51.9691 1370.73 56.9282C1372.24 61.8366 1373 67.2764 1373 73.2476V81.6729H1308.78V67.8584H1353.31V66.3403C1353.21 63.1523 1352.6 60.2427 1351.49 57.6113C1350.38 54.9294 1348.67 52.804 1346.34 51.2354C1344.02 49.6161 1341.02 48.8064 1337.33 48.8064C1334.35 48.8064 1331.75 49.4643 1329.53 50.7799C1327.36 52.045 1325.54 53.8667 1324.08 56.245C1322.67 58.5728 1321.61 61.3559 1320.9 64.5945C1320.19 67.8331 1319.84 71.4259 1319.84 75.3729V78.4091C1319.84 81.8501 1320.29 85.038 1321.2 87.973C1322.16 90.908 1323.55 93.4634 1325.37 95.6393C1327.24 97.7646 1329.46 99.4345 1332.03 100.649C1334.66 101.813 1337.64 102.395 1340.97 102.395C1345.16 102.395 1348.94 101.585 1352.33 99.9659C1355.76 98.296 1358.74 95.8417 1361.26 92.6032L1371.33 103.078C1369.62 105.608 1367.3 108.037 1364.37 110.365C1361.49 112.692 1358.01 114.59 1353.92 116.058C1349.83 117.474 1345.11 118.183 1339.76 118.183Z" fill="#C8E7ED"/>
</g>
</svg>
