<?xml version="1.0" encoding="UTF-8"?>
<svg id="_圖層_1" data-name="圖層 1" xmlns="http://www.w3.org/2000/svg" viewBox="0 0 1440 1024">
  <defs>
    <style>
      .cls-1 {
        fill: #fff;
        stroke: #dcdddd;
        stroke-miterlimit: 10;
      }
    </style>
  </defs>
  <g>
    <path class="cls-1" d="M0-.05V1024.05"/>
    <path class="cls-1" d="M68.57-.05V1024.06"/>
    <path class="cls-1" d="M137.14-.05V1024.06"/>
    <path class="cls-1" d="M205.71-.05V1024.06"/>
    <path class="cls-1" d="M274.29-.04V1024.06"/>
    <path class="cls-1" d="M342.86-.04V1024.07"/>
    <path class="cls-1" d="M411.43-.04V1024.07"/>
    <path class="cls-1" d="M480-.04V1024.07"/>
    <path class="cls-1" d="M548.57-.03V1024.08"/>
    <path class="cls-1" d="M617.14-.03V1024.08"/>
    <path class="cls-1" d="M685.71-.03V1024.08"/>
    <path class="cls-1" d="M754.29-.03V1024.08"/>
    <path class="cls-1" d="M822.86-.02V1024.09"/>
    <path class="cls-1" d="M891.43-.02V1024.09"/>
    <path class="cls-1" d="M960-.02V1024.09"/>
    <path class="cls-1" d="M1028.57-.02V1024.09"/>
    <path class="cls-1" d="M1097.14-.01V1024.1"/>
    <path class="cls-1" d="M1165.71-.01V1024.1"/>
    <path class="cls-1" d="M1234.29,0V1024.1"/>
    <path class="cls-1" d="M1302.86,0V1024.1"/>
    <path class="cls-1" d="M1371.43,0V1024.11"/>
    <path class="cls-1" d="M1440,0V1024.11"/>
  </g>
  <g>
    <path class="cls-1" d="M.03,959.95c479.97,0,959.95,0,1439.92,0"/>
    <path class="cls-1" d="M.03,891.37c479.97,0,959.95,0,1439.92,0"/>
    <path class="cls-1" d="M.03,822.8c479.97,0,959.95,0,1439.92,0"/>
    <path class="cls-1" d="M.04,754.23c479.97,0,959.95,0,1439.92,0"/>
    <path class="cls-1" d="M.04,685.66c479.97,0,959.95,0,1439.92,0"/>
    <path class="cls-1" d="M.04,617.09c479.97,0,959.95,0,1439.92,0"/>
    <path class="cls-1" d="M.05,548.52c479.97,0,959.95,0,1439.92,0"/>
    <path class="cls-1" d="M.05,479.95c479.97,0,959.95,0,1439.92,0"/>
    <path class="cls-1" d="M.05,411.37c479.97,0,959.95,0,1439.92,0"/>
    <path class="cls-1" d="M.06,342.8c479.97,0,959.95,0,1439.92,0"/>
    <path class="cls-1" d="M.06,274.23c479.97,0,959.95,0,1439.92,0"/>
    <path class="cls-1" d="M.07,205.66c479.97,0,959.95,0,1439.92,0"/>
    <path class="cls-1" d="M.07,137.09c479.97,0,959.95,0,1439.92,0"/>
    <path class="cls-1" d="M.07,68.52c479.97,0,959.95,0,1439.92,0"/>
    <path class="cls-1" d="M.08-.05c479.97,0,959.95,0,1439.92,0"/>
  </g>
</svg>